<mxfile host="app.diagrams.net" modified="2023-09-29T03:13:48.756Z" agent="Mozilla/5.0 (X11; Ubuntu; Linux x86_64; rv:109.0) Gecko/20100101 Firefox/117.0" etag="Jik7EvaHVJsSVpcU95G3" version="21.8.2" type="google" pages="2">
  <diagram name="Page-1" id="PelLKDfR4gzMyJQ9XP1I">
    <mxGraphModel grid="1" page="1" gridSize="10" guides="1" tooltips="1" connect="1" arrows="1" fold="1" pageScale="1" pageWidth="850" pageHeight="1100" math="0" shadow="0">
      <root>
        <mxCell id="0" />
        <mxCell id="1" parent="0" />
        <mxCell id="Xk8yTALQggG_DItqTwMV-92" value="" style="rounded=1;whiteSpace=wrap;html=1;fillColor=none;dashed=1;dashPattern=8 8;arcSize=6;" vertex="1" parent="1">
          <mxGeometry x="40" y="60" width="720" height="320" as="geometry" />
        </mxCell>
        <mxCell id="Xk8yTALQggG_DItqTwMV-46" value="" style="rounded=0;whiteSpace=wrap;html=1;" vertex="1" parent="1">
          <mxGeometry x="400" y="100" width="280" height="160" as="geometry" />
        </mxCell>
        <mxCell id="Xk8yTALQggG_DItqTwMV-47" style="edgeStyle=orthogonalEdgeStyle;rounded=0;orthogonalLoop=1;jettySize=auto;html=1;exitX=1;exitY=0.5;exitDx=0;exitDy=0;entryX=0;entryY=0.5;entryDx=0;entryDy=0;" edge="1" parent="1" source="Xk8yTALQggG_DItqTwMV-52" target="Xk8yTALQggG_DItqTwMV-46">
          <mxGeometry relative="1" as="geometry" />
        </mxCell>
        <mxCell id="Xk8yTALQggG_DItqTwMV-48" value="&lt;div&gt;They are stored&lt;br&gt;in a standard format&lt;br&gt;(alphabetical order)&lt;br&gt;&lt;/div&gt;" style="edgeLabel;html=1;align=center;verticalAlign=middle;resizable=0;points=[];" connectable="0" vertex="1" parent="Xk8yTALQggG_DItqTwMV-47">
          <mxGeometry x="-0.146" relative="1" as="geometry">
            <mxPoint x="11" y="-25" as="offset" />
          </mxGeometry>
        </mxCell>
        <mxCell id="Xk8yTALQggG_DItqTwMV-49" value="The signals are normalized,&lt;br&gt;smoothed and resampled&lt;br&gt;to the same time step value" style="edgeLabel;html=1;align=center;verticalAlign=middle;resizable=0;points=[];" connectable="0" vertex="1" parent="Xk8yTALQggG_DItqTwMV-47">
          <mxGeometry x="-0.0018" y="-1" relative="1" as="geometry">
            <mxPoint y="29" as="offset" />
          </mxGeometry>
        </mxCell>
        <mxCell id="Xk8yTALQggG_DItqTwMV-50" style="edgeStyle=orthogonalEdgeStyle;rounded=0;orthogonalLoop=1;jettySize=auto;html=1;exitX=0.5;exitY=1;exitDx=0;exitDy=0;entryX=0;entryY=0.5;entryDx=0;entryDy=0;" edge="1" parent="1" source="Xk8yTALQggG_DItqTwMV-52" target="Xk8yTALQggG_DItqTwMV-72">
          <mxGeometry relative="1" as="geometry" />
        </mxCell>
        <mxCell id="Xk8yTALQggG_DItqTwMV-51" value="A mask to indicate which&lt;br&gt; neurons were recorded." style="edgeLabel;html=1;align=center;verticalAlign=middle;resizable=0;points=[];" connectable="0" vertex="1" parent="Xk8yTALQggG_DItqTwMV-50">
          <mxGeometry x="0.039" y="2" relative="1" as="geometry">
            <mxPoint x="14" y="-13" as="offset" />
          </mxGeometry>
        </mxCell>
        <mxCell id="Xk8yTALQggG_DItqTwMV-52" value="" style="rounded=0;whiteSpace=wrap;html=1;" vertex="1" parent="1">
          <mxGeometry x="80" y="115" width="160" height="130" as="geometry" />
        </mxCell>
        <mxCell id="Xk8yTALQggG_DItqTwMV-53" value="ADLR" style="rounded=1;whiteSpace=wrap;html=1;fillColor=#dae8fc;strokeColor=#6c8ebf;" vertex="1" parent="1">
          <mxGeometry x="90" y="125" width="140" height="20" as="geometry" />
        </mxCell>
        <mxCell id="Xk8yTALQggG_DItqTwMV-54" value="VD9" style="rounded=1;whiteSpace=wrap;html=1;fillColor=#e1d5e7;strokeColor=#9673a6;" vertex="1" parent="1">
          <mxGeometry x="90" y="155" width="140" height="20" as="geometry" />
        </mxCell>
        <mxCell id="Xk8yTALQggG_DItqTwMV-55" value="PLNR" style="rounded=1;whiteSpace=wrap;html=1;fillColor=#ffe6cc;strokeColor=#d79b00;" vertex="1" parent="1">
          <mxGeometry x="90" y="185" width="140" height="20" as="geometry" />
        </mxCell>
        <mxCell id="Xk8yTALQggG_DItqTwMV-56" value="..." style="text;html=1;align=center;verticalAlign=middle;resizable=0;points=[];autosize=1;strokeColor=none;fillColor=none;" vertex="1" parent="1">
          <mxGeometry x="145" y="205" width="30" height="30" as="geometry" />
        </mxCell>
        <mxCell id="Xk8yTALQggG_DItqTwMV-57" value="A subset of neurons is recorded" style="text;html=1;strokeColor=none;fillColor=none;align=center;verticalAlign=middle;whiteSpace=wrap;rounded=0;" vertex="1" parent="1">
          <mxGeometry x="80" y="85" width="160" height="30" as="geometry" />
        </mxCell>
        <mxCell id="Xk8yTALQggG_DItqTwMV-58" value="&lt;div&gt;ADAL&lt;/div&gt;" style="rounded=1;whiteSpace=wrap;html=1;rotation=-90;" vertex="1" parent="1">
          <mxGeometry x="350" y="170" width="140" height="20" as="geometry" />
        </mxCell>
        <mxCell id="Xk8yTALQggG_DItqTwMV-59" value="&lt;font style=&quot;font-size: 10px;&quot;&gt;idx 0&lt;br&gt;&lt;/font&gt;" style="rounded=1;whiteSpace=wrap;html=1;fillColor=none;strokeColor=none;" vertex="1" parent="1">
          <mxGeometry x="405" y="80" width="30" height="20" as="geometry" />
        </mxCell>
        <mxCell id="Xk8yTALQggG_DItqTwMV-60" value="&lt;font style=&quot;font-size: 10px;&quot;&gt;idx 300&amp;nbsp; idx 301&lt;br&gt;&lt;/font&gt;" style="rounded=1;whiteSpace=wrap;html=1;fillColor=none;strokeColor=none;" vertex="1" parent="1">
          <mxGeometry x="605.5" y="80" width="77.5" height="20" as="geometry" />
        </mxCell>
        <mxCell id="Xk8yTALQggG_DItqTwMV-61" value="&lt;div&gt;ADLR&lt;/div&gt;" style="rounded=1;whiteSpace=wrap;html=1;rotation=-90;fillColor=#dae8fc;strokeColor=#6c8ebf;" vertex="1" parent="1">
          <mxGeometry x="410" y="170" width="140" height="20" as="geometry" />
        </mxCell>
        <mxCell id="Xk8yTALQggG_DItqTwMV-62" value="AFDL" style="rounded=1;whiteSpace=wrap;html=1;rotation=-90;" vertex="1" parent="1">
          <mxGeometry x="440" y="170" width="140" height="20" as="geometry" />
        </mxCell>
        <mxCell id="Xk8yTALQggG_DItqTwMV-63" value="PLNR" style="rounded=1;whiteSpace=wrap;html=1;rotation=-90;fillColor=#ffe6cc;strokeColor=#d79b00;" vertex="1" parent="1">
          <mxGeometry x="500" y="170" width="140" height="20" as="geometry" />
        </mxCell>
        <mxCell id="Xk8yTALQggG_DItqTwMV-64" value="VD8" style="rounded=1;whiteSpace=wrap;html=1;rotation=-90;" vertex="1" parent="1">
          <mxGeometry x="560" y="170" width="140" height="20" as="geometry" />
        </mxCell>
        <mxCell id="Xk8yTALQggG_DItqTwMV-65" value="VD9" style="rounded=1;whiteSpace=wrap;html=1;rotation=-90;fillColor=#e1d5e7;strokeColor=#9673a6;" vertex="1" parent="1">
          <mxGeometry x="590" y="170" width="140" height="20" as="geometry" />
        </mxCell>
        <mxCell id="Xk8yTALQggG_DItqTwMV-66" value="..." style="text;html=1;align=center;verticalAlign=middle;resizable=0;points=[];autosize=1;strokeColor=none;fillColor=none;" vertex="1" parent="1">
          <mxGeometry x="435" y="165" width="30" height="30" as="geometry" />
        </mxCell>
        <mxCell id="Xk8yTALQggG_DItqTwMV-67" value="&lt;font style=&quot;font-size: 10px;&quot;&gt;idx 7&lt;br&gt;&lt;/font&gt;" style="rounded=1;whiteSpace=wrap;html=1;fillColor=none;strokeColor=none;" vertex="1" parent="1">
          <mxGeometry x="465" y="80" width="30" height="20" as="geometry" />
        </mxCell>
        <mxCell id="Xk8yTALQggG_DItqTwMV-68" value="&lt;font style=&quot;font-size: 10px;&quot;&gt;idx 153&lt;br&gt;&lt;/font&gt;" style="rounded=1;whiteSpace=wrap;html=1;fillColor=none;strokeColor=none;" vertex="1" parent="1">
          <mxGeometry x="552.5" y="80" width="35" height="20" as="geometry" />
        </mxCell>
        <mxCell id="Xk8yTALQggG_DItqTwMV-69" value="..." style="text;html=1;align=center;verticalAlign=middle;resizable=0;points=[];autosize=1;strokeColor=none;fillColor=none;" vertex="1" parent="1">
          <mxGeometry x="525" y="165" width="30" height="30" as="geometry" />
        </mxCell>
        <mxCell id="Xk8yTALQggG_DItqTwMV-70" value="&lt;font style=&quot;font-size: 10px;&quot;&gt;idx 8&lt;br&gt;&lt;/font&gt;" style="rounded=1;whiteSpace=wrap;html=1;fillColor=none;strokeColor=none;" vertex="1" parent="1">
          <mxGeometry x="495" y="80" width="30" height="20" as="geometry" />
        </mxCell>
        <mxCell id="Xk8yTALQggG_DItqTwMV-71" value="..." style="text;html=1;align=center;verticalAlign=middle;resizable=0;points=[];autosize=1;strokeColor=none;fillColor=none;" vertex="1" parent="1">
          <mxGeometry x="587.5" y="165" width="30" height="30" as="geometry" />
        </mxCell>
        <mxCell id="Xk8yTALQggG_DItqTwMV-72" value="" style="rounded=0;whiteSpace=wrap;html=1;" vertex="1" parent="1">
          <mxGeometry x="400" y="290" width="280" height="30" as="geometry" />
        </mxCell>
        <mxCell id="Xk8yTALQggG_DItqTwMV-73" value="&lt;div&gt;&lt;br&gt;&lt;/div&gt;" style="rounded=1;whiteSpace=wrap;html=1;rotation=-90;fillColor=#f8cecc;strokeColor=#b85450;" vertex="1" parent="1">
          <mxGeometry x="415" y="295" width="10" height="20" as="geometry" />
        </mxCell>
        <mxCell id="Xk8yTALQggG_DItqTwMV-74" value="&lt;div&gt;&lt;br&gt;&lt;/div&gt;" style="rounded=1;whiteSpace=wrap;html=1;rotation=-90;fillColor=#d5e8d4;strokeColor=#82b366;" vertex="1" parent="1">
          <mxGeometry x="475" y="295" width="10" height="20" as="geometry" />
        </mxCell>
        <mxCell id="Xk8yTALQggG_DItqTwMV-75" value="&lt;div&gt;&lt;br&gt;&lt;/div&gt;" style="rounded=1;whiteSpace=wrap;html=1;rotation=-90;fillColor=#f8cecc;strokeColor=#b85450;" vertex="1" parent="1">
          <mxGeometry x="505" y="295" width="10" height="20" as="geometry" />
        </mxCell>
        <mxCell id="Xk8yTALQggG_DItqTwMV-76" value="&lt;div&gt;&lt;br&gt;&lt;/div&gt;" style="rounded=1;whiteSpace=wrap;html=1;rotation=-90;fillColor=#d5e8d4;strokeColor=#82b366;" vertex="1" parent="1">
          <mxGeometry x="565" y="295" width="10" height="20" as="geometry" />
        </mxCell>
        <mxCell id="Xk8yTALQggG_DItqTwMV-77" value="&lt;div&gt;&lt;br&gt;&lt;/div&gt;" style="rounded=1;whiteSpace=wrap;html=1;rotation=-90;fillColor=#f8cecc;strokeColor=#b85450;" vertex="1" parent="1">
          <mxGeometry x="625" y="295" width="10" height="20" as="geometry" />
        </mxCell>
        <mxCell id="Xk8yTALQggG_DItqTwMV-78" value="&lt;div&gt;&lt;br&gt;&lt;/div&gt;" style="rounded=1;whiteSpace=wrap;html=1;rotation=-90;fillColor=#d5e8d4;strokeColor=#82b366;" vertex="1" parent="1">
          <mxGeometry x="655" y="295" width="10" height="20" as="geometry" />
        </mxCell>
        <mxCell id="Xk8yTALQggG_DItqTwMV-79" value="&lt;div&gt;&lt;br&gt;&lt;/div&gt;" style="rounded=1;whiteSpace=wrap;html=1;rotation=-90;fillColor=#f8cecc;strokeColor=#b85450;" vertex="1" parent="1">
          <mxGeometry x="415" y="326" width="10" height="20" as="geometry" />
        </mxCell>
        <mxCell id="Xk8yTALQggG_DItqTwMV-80" value="&lt;div&gt;&lt;br&gt;&lt;/div&gt;" style="rounded=1;whiteSpace=wrap;html=1;rotation=-90;fillColor=#d5e8d4;strokeColor=#82b366;" vertex="1" parent="1">
          <mxGeometry x="415" y="346" width="10" height="20" as="geometry" />
        </mxCell>
        <mxCell id="Xk8yTALQggG_DItqTwMV-81" value="= False" style="text;html=1;strokeColor=none;fillColor=none;align=left;verticalAlign=middle;whiteSpace=wrap;rounded=0;fontStyle=2" vertex="1" parent="1">
          <mxGeometry x="432" y="329" width="68" height="10" as="geometry" />
        </mxCell>
        <mxCell id="Xk8yTALQggG_DItqTwMV-82" value="= True" style="text;html=1;strokeColor=none;fillColor=none;align=left;verticalAlign=middle;whiteSpace=wrap;rounded=0;fontStyle=2" vertex="1" parent="1">
          <mxGeometry x="432" y="349" width="108" height="10" as="geometry" />
        </mxCell>
        <mxCell id="Xk8yTALQggG_DItqTwMV-83" value="" style="shape=curlyBracket;whiteSpace=wrap;html=1;rounded=1;flipH=1;labelPosition=right;verticalLabelPosition=middle;align=left;verticalAlign=middle;size=0.5;" vertex="1" parent="1">
          <mxGeometry x="680" y="110" width="20" height="70" as="geometry" />
        </mxCell>
        <mxCell id="Xk8yTALQggG_DItqTwMV-84" value="" style="shape=curlyBracket;whiteSpace=wrap;html=1;rounded=1;flipH=1;labelPosition=right;verticalLabelPosition=middle;align=left;verticalAlign=middle;size=0.5;" vertex="1" parent="1">
          <mxGeometry x="681" y="180" width="20" height="70" as="geometry" />
        </mxCell>
        <mxCell id="Xk8yTALQggG_DItqTwMV-85" value="Training" style="rounded=1;whiteSpace=wrap;html=1;fillColor=none;strokeColor=none;rotation=-90;" vertex="1" parent="1">
          <mxGeometry x="671" y="135" width="79" height="20" as="geometry" />
        </mxCell>
        <mxCell id="Xk8yTALQggG_DItqTwMV-86" value="Validation" style="rounded=1;whiteSpace=wrap;html=1;fillColor=none;strokeColor=none;rotation=-90;" vertex="1" parent="1">
          <mxGeometry x="671" y="205" width="79" height="20" as="geometry" />
        </mxCell>
        <mxCell id="Xk8yTALQggG_DItqTwMV-87" value="..." style="text;html=1;align=center;verticalAlign=middle;resizable=0;points=[];autosize=1;strokeColor=none;fillColor=none;" vertex="1" parent="1">
          <mxGeometry x="435" y="290" width="30" height="30" as="geometry" />
        </mxCell>
        <mxCell id="Xk8yTALQggG_DItqTwMV-88" value="..." style="text;html=1;align=center;verticalAlign=middle;resizable=0;points=[];autosize=1;strokeColor=none;fillColor=none;" vertex="1" parent="1">
          <mxGeometry x="525" y="290" width="30" height="30" as="geometry" />
        </mxCell>
        <mxCell id="Xk8yTALQggG_DItqTwMV-89" value="..." style="text;html=1;align=center;verticalAlign=middle;resizable=0;points=[];autosize=1;strokeColor=none;fillColor=none;" vertex="1" parent="1">
          <mxGeometry x="587.5" y="290" width="30" height="30" as="geometry" />
        </mxCell>
        <mxCell id="Xk8yTALQggG_DItqTwMV-94" value="&lt;font style=&quot;font-size: 14px;&quot;&gt;(A)&lt;/font&gt;" style="text;html=1;align=center;verticalAlign=middle;resizable=0;points=[];autosize=1;strokeColor=none;fillColor=none;fontSize=14;" vertex="1" parent="1">
          <mxGeometry x="60" y="346" width="40" height="30" as="geometry" />
        </mxCell>
        <mxCell id="WMsOLuUslBmP-Vln_nGQ-1" value="" style="group" connectable="0" vertex="1" parent="1">
          <mxGeometry x="764" y="4.380000000000001" width="720" height="431.25" as="geometry" />
        </mxCell>
        <mxCell id="Xk8yTALQggG_DItqTwMV-142" value="" style="rounded=1;whiteSpace=wrap;html=1;fillColor=none;dashed=1;dashPattern=8 8;arcSize=6;" vertex="1" parent="WMsOLuUslBmP-Vln_nGQ-1">
          <mxGeometry width="720" height="431.25" as="geometry" />
        </mxCell>
        <mxCell id="0KyeHba4yDVpDjUTVp0E-85" value="" style="rounded=0;whiteSpace=wrap;html=1;shadow=1;fillColor=#ffe6cc;strokeColor=#d79b00;" vertex="1" parent="WMsOLuUslBmP-Vln_nGQ-1">
          <mxGeometry x="255" y="87.24" width="190" height="92.76" as="geometry" />
        </mxCell>
        <mxCell id="0KyeHba4yDVpDjUTVp0E-4" value="&lt;h1 align=&quot;center&quot;&gt;&lt;br&gt;&lt;/h1&gt;" style="rounded=0;whiteSpace=wrap;html=1;glass=0;shadow=1;align=center;" vertex="1" parent="WMsOLuUslBmP-Vln_nGQ-1">
          <mxGeometry x="40" y="253.8029925187032" width="160" height="120.44887780548629" as="geometry" />
        </mxCell>
        <mxCell id="0KyeHba4yDVpDjUTVp0E-10" value="(L, 302) → (L, H)*" style="rounded=1;whiteSpace=wrap;html=1;" vertex="1" parent="WMsOLuUslBmP-Vln_nGQ-1">
          <mxGeometry x="50" y="339.8379052369077" width="140" height="25.810473815461346" as="geometry" />
        </mxCell>
        <mxCell id="0KyeHba4yDVpDjUTVp0E-11" value="ReLu" style="rounded=1;whiteSpace=wrap;html=1;" vertex="1" parent="WMsOLuUslBmP-Vln_nGQ-1">
          <mxGeometry x="50" y="309.72568578553614" width="140" height="25.810473815461346" as="geometry" />
        </mxCell>
        <mxCell id="0KyeHba4yDVpDjUTVp0E-12" value="Layer Normalization**" style="rounded=1;whiteSpace=wrap;html=1;" vertex="1" parent="WMsOLuUslBmP-Vln_nGQ-1">
          <mxGeometry x="50" y="279.61346633416457" width="140" height="25.810473815461346" as="geometry" />
        </mxCell>
        <mxCell id="0KyeHba4yDVpDjUTVp0E-13" value="&lt;h1 style=&quot;font-size: 23px;&quot;&gt;&lt;i&gt;&lt;font style=&quot;font-size: 18px;&quot;&gt;&lt;span style=&quot;font-weight: normal;&quot;&gt;Embedding&lt;/span&gt;&lt;/font&gt;&lt;/i&gt;&lt;/h1&gt;" style="rounded=0;whiteSpace=wrap;html=1;strokeColor=none;fillColor=none;" vertex="1" parent="WMsOLuUslBmP-Vln_nGQ-1">
          <mxGeometry x="50" y="253.8029925187032" width="140" height="25.810473815461346" as="geometry" />
        </mxCell>
        <mxCell id="0KyeHba4yDVpDjUTVp0E-16" value="&lt;h1 align=&quot;center&quot;&gt;&lt;br&gt;&lt;/h1&gt;" style="rounded=0;whiteSpace=wrap;html=1;glass=0;shadow=1;align=center;gradientColor=none;gradientDirection=east;fillColor=default;" vertex="1" parent="WMsOLuUslBmP-Vln_nGQ-1">
          <mxGeometry x="40" y="167.76807980049873" width="160" height="51.62094763092269" as="geometry" />
        </mxCell>
        <mxCell id="0KyeHba4yDVpDjUTVp0E-22" style="edgeStyle=orthogonalEdgeStyle;rounded=0;orthogonalLoop=1;jettySize=auto;html=1;exitX=0.5;exitY=0;exitDx=0;exitDy=0;entryX=0.5;entryY=1;entryDx=0;entryDy=0;" edge="1" parent="WMsOLuUslBmP-Vln_nGQ-1" source="0KyeHba4yDVpDjUTVp0E-13" target="0KyeHba4yDVpDjUTVp0E-16">
          <mxGeometry relative="1" as="geometry" />
        </mxCell>
        <mxCell id="0KyeHba4yDVpDjUTVp0E-23" value="&lt;h1 style=&quot;font-size: 23px;&quot;&gt;&lt;i&gt;&lt;font style=&quot;font-size: 18px;&quot;&gt;&lt;span style=&quot;font-weight: normal;&quot;&gt;Core&lt;br&gt;&lt;/span&gt;&lt;/font&gt;&lt;/i&gt;&lt;/h1&gt;" style="rounded=0;whiteSpace=wrap;html=1;strokeColor=none;fillColor=none;" vertex="1" parent="WMsOLuUslBmP-Vln_nGQ-1">
          <mxGeometry x="50" y="180.67331670822944" width="140" height="25.810473815461346" as="geometry" />
        </mxCell>
        <mxCell id="0KyeHba4yDVpDjUTVp0E-25" value="&lt;h1 align=&quot;center&quot;&gt;&lt;br&gt;&lt;/h1&gt;" style="rounded=0;whiteSpace=wrap;html=1;glass=0;shadow=1;align=center;" vertex="1" parent="WMsOLuUslBmP-Vln_nGQ-1">
          <mxGeometry x="40" y="73.12967581047381" width="160" height="60.224438902743145" as="geometry" />
        </mxCell>
        <mxCell id="0KyeHba4yDVpDjUTVp0E-30" style="edgeStyle=orthogonalEdgeStyle;rounded=0;orthogonalLoop=1;jettySize=auto;html=1;exitX=0.5;exitY=0;exitDx=0;exitDy=0;entryX=0.5;entryY=1;entryDx=0;entryDy=0;" edge="1" parent="WMsOLuUslBmP-Vln_nGQ-1" source="0KyeHba4yDVpDjUTVp0E-16" target="0KyeHba4yDVpDjUTVp0E-25">
          <mxGeometry relative="1" as="geometry" />
        </mxCell>
        <mxCell id="0KyeHba4yDVpDjUTVp0E-26" value="(L, H) →&amp;nbsp;(L, 302)" style="rounded=1;whiteSpace=wrap;html=1;" vertex="1" parent="WMsOLuUslBmP-Vln_nGQ-1">
          <mxGeometry x="50" y="98.94014962593515" width="140" height="25.810473815461346" as="geometry" />
        </mxCell>
        <mxCell id="0KyeHba4yDVpDjUTVp0E-29" value="&lt;h1 style=&quot;font-size: 23px;&quot;&gt;&lt;i&gt;&lt;font style=&quot;font-size: 18px;&quot;&gt;&lt;span style=&quot;font-weight: normal;&quot;&gt;Linear Mapping&lt;br&gt;&lt;/span&gt;&lt;/font&gt;&lt;/i&gt;&lt;/h1&gt;" style="rounded=0;whiteSpace=wrap;html=1;strokeColor=none;fillColor=none;" vertex="1" parent="WMsOLuUslBmP-Vln_nGQ-1">
          <mxGeometry x="50" y="73.12967581047381" width="140" height="25.810473815461346" as="geometry" />
        </mxCell>
        <mxCell id="0KyeHba4yDVpDjUTVp0E-47" style="edgeStyle=orthogonalEdgeStyle;rounded=0;orthogonalLoop=1;jettySize=auto;html=1;exitX=0.5;exitY=0;exitDx=0;exitDy=0;entryX=0.5;entryY=1;entryDx=0;entryDy=0;" edge="1" parent="WMsOLuUslBmP-Vln_nGQ-1">
          <mxGeometry relative="1" as="geometry">
            <mxPoint x="119.91999999999999" y="309.72568578553614" as="sourcePoint" />
            <mxPoint x="119.91999999999999" y="305.42394014962593" as="targetPoint" />
          </mxGeometry>
        </mxCell>
        <mxCell id="0KyeHba4yDVpDjUTVp0E-48" style="edgeStyle=orthogonalEdgeStyle;rounded=0;orthogonalLoop=1;jettySize=auto;html=1;exitX=0.5;exitY=0;exitDx=0;exitDy=0;entryX=0.5;entryY=1;entryDx=0;entryDy=0;" edge="1" parent="WMsOLuUslBmP-Vln_nGQ-1">
          <mxGeometry relative="1" as="geometry">
            <mxPoint x="119.91999999999999" y="339.8379052369077" as="sourcePoint" />
            <mxPoint x="119.91999999999999" y="335.53615960099745" as="targetPoint" />
          </mxGeometry>
        </mxCell>
        <mxCell id="0KyeHba4yDVpDjUTVp0E-83" value="" style="rounded=0;whiteSpace=wrap;html=1;shadow=1;fillColor=#dae8fc;strokeColor=#6c8ebf;" vertex="1" parent="WMsOLuUslBmP-Vln_nGQ-1">
          <mxGeometry x="481" y="111.94862842892768" width="190" height="172.06982543640896" as="geometry" />
        </mxCell>
        <mxCell id="0KyeHba4yDVpDjUTVp0E-107" style="edgeStyle=orthogonalEdgeStyle;rounded=0;orthogonalLoop=1;jettySize=auto;html=1;exitX=0.5;exitY=1;exitDx=0;exitDy=0;entryX=0.5;entryY=1;entryDx=0;entryDy=0;" edge="1" parent="WMsOLuUslBmP-Vln_nGQ-1" source="0KyeHba4yDVpDjUTVp0E-83" target="0KyeHba4yDVpDjUTVp0E-91">
          <mxGeometry relative="1" as="geometry">
            <Array as="points" />
            <mxPoint x="576" y="291.55511221945136" as="targetPoint" />
          </mxGeometry>
        </mxCell>
        <mxCell id="0KyeHba4yDVpDjUTVp0E-86" style="edgeStyle=orthogonalEdgeStyle;rounded=0;orthogonalLoop=1;jettySize=auto;html=1;exitX=0.5;exitY=0;exitDx=0;exitDy=0;entryX=0.5;entryY=1;entryDx=0;entryDy=0;" edge="1" parent="WMsOLuUslBmP-Vln_nGQ-1" target="0KyeHba4yDVpDjUTVp0E-38">
          <mxGeometry relative="1" as="geometry">
            <Array as="points" />
            <mxPoint x="350" y="193.58264339152117" as="sourcePoint" />
            <mxPoint x="350" y="190.2662094763093" as="targetPoint" />
          </mxGeometry>
        </mxCell>
        <mxCell id="0KyeHba4yDVpDjUTVp0E-38" value="&lt;div&gt;(L, H) → (L, H)&lt;/div&gt;" style="rounded=1;whiteSpace=wrap;html=1;fontSize=11;" vertex="1" parent="WMsOLuUslBmP-Vln_nGQ-1">
          <mxGeometry x="280" y="132.1926433915212" width="140" height="25.810473815461346" as="geometry" />
        </mxCell>
        <mxCell id="04mjnKvzDmpaJsaF9DF_-5" style="edgeStyle=orthogonalEdgeStyle;rounded=0;orthogonalLoop=1;jettySize=auto;html=1;exitX=0.5;exitY=0;exitDx=0;exitDy=0;entryX=0.5;entryY=1;entryDx=0;entryDy=0;" edge="1" parent="WMsOLuUslBmP-Vln_nGQ-1" source="0KyeHba4yDVpDjUTVp0E-39">
          <mxGeometry relative="1" as="geometry">
            <mxPoint x="350" y="73.79214463840398" as="targetPoint" />
          </mxGeometry>
        </mxCell>
        <mxCell id="0KyeHba4yDVpDjUTVp0E-39" value="ReLu" style="rounded=1;whiteSpace=wrap;html=1;fontSize=11;" vertex="1" parent="WMsOLuUslBmP-Vln_nGQ-1">
          <mxGeometry x="280" y="102.0804239401496" width="140" height="25.810473815461346" as="geometry" />
        </mxCell>
        <mxCell id="0KyeHba4yDVpDjUTVp0E-49" style="edgeStyle=orthogonalEdgeStyle;rounded=0;orthogonalLoop=1;jettySize=auto;html=1;exitX=0.5;exitY=0;exitDx=0;exitDy=0;entryX=0.5;entryY=1;entryDx=0;entryDy=0;" edge="1" parent="WMsOLuUslBmP-Vln_nGQ-1">
          <mxGeometry relative="1" as="geometry">
            <mxPoint x="349.9" y="132.1926433915212" as="sourcePoint" />
            <mxPoint x="349.9" y="127.89089775561095" as="targetPoint" />
          </mxGeometry>
        </mxCell>
        <mxCell id="0KyeHba4yDVpDjUTVp0E-89" style="edgeStyle=orthogonalEdgeStyle;rounded=0;orthogonalLoop=1;jettySize=auto;html=1;endArrow=classic;endFill=1;" edge="1" parent="WMsOLuUslBmP-Vln_nGQ-1">
          <mxGeometry relative="1" as="geometry">
            <mxPoint x="350" y="172.81" as="sourcePoint" />
            <mxPoint x="350.25" y="94.40289276807978" as="targetPoint" />
            <Array as="points">
              <mxPoint x="350" y="172.56" />
              <mxPoint x="435" y="172.56" />
              <mxPoint x="435" y="94.55999999999999" />
            </Array>
          </mxGeometry>
        </mxCell>
        <mxCell id="0KyeHba4yDVpDjUTVp0E-91" value="Multi-Head Attention" style="rounded=1;whiteSpace=wrap;html=1;" vertex="1" parent="WMsOLuUslBmP-Vln_nGQ-1">
          <mxGeometry x="506" y="235.63241895261845" width="140" height="25.810473815461346" as="geometry" />
        </mxCell>
        <mxCell id="0KyeHba4yDVpDjUTVp0E-92" value="Add &amp;amp; Layer Norm." style="rounded=1;whiteSpace=wrap;html=1;" vertex="1" parent="WMsOLuUslBmP-Vln_nGQ-1">
          <mxGeometry x="506" y="205.52019950124685" width="140" height="25.810473815461346" as="geometry" />
        </mxCell>
        <mxCell id="0KyeHba4yDVpDjUTVp0E-93" value="&lt;i&gt;Feed Forward&lt;/i&gt;" style="rounded=1;whiteSpace=wrap;html=1;" vertex="1" parent="WMsOLuUslBmP-Vln_nGQ-1">
          <mxGeometry x="506" y="153.89925187032418" width="140" height="25.810473815461346" as="geometry" />
        </mxCell>
        <mxCell id="0KyeHba4yDVpDjUTVp0E-110" style="edgeStyle=orthogonalEdgeStyle;rounded=0;orthogonalLoop=1;jettySize=auto;html=1;exitX=0.5;exitY=0;exitDx=0;exitDy=0;entryX=0.5;entryY=1;entryDx=0;entryDy=0;" edge="1" parent="WMsOLuUslBmP-Vln_nGQ-1" source="0KyeHba4yDVpDjUTVp0E-92" target="0KyeHba4yDVpDjUTVp0E-93">
          <mxGeometry relative="1" as="geometry" />
        </mxCell>
        <mxCell id="0KyeHba4yDVpDjUTVp0E-115" style="edgeStyle=orthogonalEdgeStyle;rounded=0;orthogonalLoop=1;jettySize=auto;html=1;exitX=0.5;exitY=0;exitDx=0;exitDy=0;" edge="1" parent="WMsOLuUslBmP-Vln_nGQ-1">
          <mxGeometry relative="1" as="geometry">
            <mxPoint x="576" y="94.74164588528679" as="targetPoint" />
            <mxPoint x="576" y="124.85386533665834" as="sourcePoint" />
          </mxGeometry>
        </mxCell>
        <mxCell id="0KyeHba4yDVpDjUTVp0E-105" style="edgeStyle=orthogonalEdgeStyle;rounded=0;orthogonalLoop=1;jettySize=auto;html=1;exitX=0.5;exitY=1;exitDx=0;exitDy=0;entryX=1;entryY=0.5;entryDx=0;entryDy=0;" edge="1" parent="WMsOLuUslBmP-Vln_nGQ-1" target="0KyeHba4yDVpDjUTVp0E-92">
          <mxGeometry relative="1" as="geometry">
            <mxPoint x="575.9259259259259" y="227.02892768079798" as="targetPoint" />
            <Array as="points">
              <mxPoint x="576" y="275.41496259351624" />
              <mxPoint x="661" y="275.41496259351624" />
              <mxPoint x="661" y="218.63192019950122" />
            </Array>
            <mxPoint x="576" y="291.55511221945136" as="sourcePoint" />
          </mxGeometry>
        </mxCell>
        <mxCell id="0KyeHba4yDVpDjUTVp0E-109" style="edgeStyle=orthogonalEdgeStyle;rounded=0;orthogonalLoop=1;jettySize=auto;html=1;exitX=0.5;exitY=0;exitDx=0;exitDy=0;entryX=0.5;entryY=1;entryDx=0;entryDy=0;" edge="1" parent="WMsOLuUslBmP-Vln_nGQ-1">
          <mxGeometry relative="1" as="geometry">
            <mxPoint x="575.82" y="235.63241895261845" as="sourcePoint" />
            <mxPoint x="575.82" y="231.33067331670821" as="targetPoint" />
          </mxGeometry>
        </mxCell>
        <mxCell id="0KyeHba4yDVpDjUTVp0E-111" value="Add &amp;amp; Layer Norm." style="rounded=1;whiteSpace=wrap;html=1;" vertex="1" parent="WMsOLuUslBmP-Vln_nGQ-1">
          <mxGeometry x="506" y="123.78703241895262" width="140" height="25.810473815461346" as="geometry" />
        </mxCell>
        <mxCell id="0KyeHba4yDVpDjUTVp0E-112" style="edgeStyle=orthogonalEdgeStyle;rounded=0;orthogonalLoop=1;jettySize=auto;html=1;exitX=0.5;exitY=0;exitDx=0;exitDy=0;entryX=1;entryY=0.5;entryDx=0;entryDy=0;" edge="1" parent="WMsOLuUslBmP-Vln_nGQ-1" source="0KyeHba4yDVpDjUTVp0E-92" target="0KyeHba4yDVpDjUTVp0E-111">
          <mxGeometry relative="1" as="geometry">
            <Array as="points">
              <mxPoint x="576" y="192.6149625935162" />
              <mxPoint x="661" y="192.6149625935162" />
              <mxPoint x="661" y="136.69226932668326" />
            </Array>
          </mxGeometry>
        </mxCell>
        <mxCell id="0KyeHba4yDVpDjUTVp0E-113" style="edgeStyle=orthogonalEdgeStyle;rounded=0;orthogonalLoop=1;jettySize=auto;html=1;exitX=0.5;exitY=0;exitDx=0;exitDy=0;entryX=0.5;entryY=1;entryDx=0;entryDy=0;" edge="1" parent="WMsOLuUslBmP-Vln_nGQ-1">
          <mxGeometry relative="1" as="geometry">
            <mxPoint x="575.75" y="153.89925187032418" as="sourcePoint" />
            <mxPoint x="575.75" y="149.59750623441397" as="targetPoint" />
          </mxGeometry>
        </mxCell>
        <mxCell id="0KyeHba4yDVpDjUTVp0E-116" value="" style="rounded=0;whiteSpace=wrap;html=1;shadow=1;fillColor=#e1d5e7;strokeColor=#9673a6;" vertex="1" parent="WMsOLuUslBmP-Vln_nGQ-1">
          <mxGeometry x="255" y="263.9120947630923" width="190" height="47.31920199501246" as="geometry" />
        </mxCell>
        <mxCell id="0KyeHba4yDVpDjUTVp0E-118" style="edgeStyle=orthogonalEdgeStyle;rounded=0;orthogonalLoop=1;jettySize=auto;html=1;entryX=0.5;entryY=1;entryDx=0;entryDy=0;" edge="1" parent="WMsOLuUslBmP-Vln_nGQ-1" target="0KyeHba4yDVpDjUTVp0E-117">
          <mxGeometry relative="1" as="geometry">
            <mxPoint x="350" y="319.83478802992516" as="sourcePoint" />
          </mxGeometry>
        </mxCell>
        <mxCell id="0KyeHba4yDVpDjUTVp0E-119" style="edgeStyle=orthogonalEdgeStyle;rounded=0;orthogonalLoop=1;jettySize=auto;html=1;exitX=0.5;exitY=0;exitDx=0;exitDy=0;" edge="1" parent="WMsOLuUslBmP-Vln_nGQ-1" source="0KyeHba4yDVpDjUTVp0E-117">
          <mxGeometry relative="1" as="geometry">
            <mxPoint x="350" y="251.00685785536155" as="targetPoint" />
          </mxGeometry>
        </mxCell>
        <mxCell id="0KyeHba4yDVpDjUTVp0E-117" value="LSTM Cell" style="rounded=1;whiteSpace=wrap;html=1;" vertex="1" parent="WMsOLuUslBmP-Vln_nGQ-1">
          <mxGeometry x="280" y="272.08541147132166" width="140" height="25.810473815461346" as="geometry" />
        </mxCell>
        <mxCell id="0KyeHba4yDVpDjUTVp0E-121" value="" style="shape=curlyBracket;whiteSpace=wrap;html=1;rounded=1;labelPosition=left;verticalLabelPosition=middle;align=right;verticalAlign=middle;size=0.5;" vertex="1" parent="WMsOLuUslBmP-Vln_nGQ-1">
          <mxGeometry x="210" y="64.54339152119698" width="26.89" height="264.54875311720696" as="geometry" />
        </mxCell>
        <mxCell id="Xk8yTALQggG_DItqTwMV-143" value="&lt;font style=&quot;font-size: 14px;&quot;&gt;(B)&lt;/font&gt;" style="text;html=1;align=center;verticalAlign=middle;resizable=0;points=[];autosize=1;strokeColor=none;fillColor=none;fontSize=14;" vertex="1" parent="WMsOLuUslBmP-Vln_nGQ-1">
          <mxGeometry x="660" y="23.44451371571072" width="40" height="30" as="geometry" />
        </mxCell>
        <mxCell id="Xk8yTALQggG_DItqTwMV-146" style="edgeStyle=orthogonalEdgeStyle;rounded=0;orthogonalLoop=1;jettySize=auto;html=1;exitX=0.5;exitY=0;exitDx=0;exitDy=0;entryX=0.25;entryY=1;entryDx=0;entryDy=0;" edge="1" parent="WMsOLuUslBmP-Vln_nGQ-1" source="Xk8yTALQggG_DItqTwMV-144" target="0KyeHba4yDVpDjUTVp0E-4">
          <mxGeometry relative="1" as="geometry" />
        </mxCell>
        <mxCell id="Xk8yTALQggG_DItqTwMV-144" value="Inputs" style="rounded=1;whiteSpace=wrap;html=1;fillColor=none;strokeColor=none;fontSize=13;" vertex="1" parent="WMsOLuUslBmP-Vln_nGQ-1">
          <mxGeometry x="40" y="396.83603491271816" width="80" height="25.810473815461346" as="geometry" />
        </mxCell>
        <mxCell id="Xk8yTALQggG_DItqTwMV-147" style="edgeStyle=orthogonalEdgeStyle;rounded=0;orthogonalLoop=1;jettySize=auto;html=1;exitX=0.5;exitY=0;exitDx=0;exitDy=0;entryX=0.75;entryY=1;entryDx=0;entryDy=0;" edge="1" parent="WMsOLuUslBmP-Vln_nGQ-1" source="Xk8yTALQggG_DItqTwMV-145" target="0KyeHba4yDVpDjUTVp0E-4">
          <mxGeometry relative="1" as="geometry" />
        </mxCell>
        <mxCell id="Xk8yTALQggG_DItqTwMV-145" value="Masks" style="rounded=1;whiteSpace=wrap;html=1;fillColor=none;strokeColor=none;fontSize=13;" vertex="1" parent="WMsOLuUslBmP-Vln_nGQ-1">
          <mxGeometry x="120" y="396.83603491271816" width="80" height="25.810473815461346" as="geometry" />
        </mxCell>
        <mxCell id="Xk8yTALQggG_DItqTwMV-148" value="Outputs" style="rounded=1;whiteSpace=wrap;html=1;fillColor=none;strokeColor=none;fontSize=13;" vertex="1" parent="WMsOLuUslBmP-Vln_nGQ-1">
          <mxGeometry x="80" y="18.282418952618453" width="80" height="25.810473815461346" as="geometry" />
        </mxCell>
        <mxCell id="Xk8yTALQggG_DItqTwMV-150" style="edgeStyle=orthogonalEdgeStyle;rounded=0;orthogonalLoop=1;jettySize=auto;html=1;exitX=0.5;exitY=0;exitDx=0;exitDy=0;entryX=0.5;entryY=1;entryDx=0;entryDy=0;" edge="1" parent="WMsOLuUslBmP-Vln_nGQ-1" source="0KyeHba4yDVpDjUTVp0E-29" target="Xk8yTALQggG_DItqTwMV-148">
          <mxGeometry relative="1" as="geometry" />
        </mxCell>
      </root>
    </mxGraphModel>
  </diagram>
  <diagram id="OrdIQNeoD_D3XgHUDVoO" name="Page-2">
    <mxGraphModel grid="1" page="1" gridSize="10" guides="1" tooltips="1" connect="1" arrows="1" fold="1" pageScale="1" pageWidth="850" pageHeight="1100" math="0" shadow="0">
      <root>
        <mxCell id="0" />
        <mxCell id="1" parent="0" />
        <mxCell id="Z3_2BHZnYLwMcyUPd-yU-3" value="" style="group" connectable="0" vertex="1" parent="1">
          <mxGeometry x="980" y="690" width="520" height="150" as="geometry" />
        </mxCell>
        <mxCell id="Z3_2BHZnYLwMcyUPd-yU-1" value="" style="shape=image;imageAspect=0;aspect=fixed;verticalLabelPosition=bottom;verticalAlign=top;image=data:image/png,iVBORw0KGgoAAAANSUhEUgAABl8AAAHLCAYAAABGeY5XAAAAOXRFWHRTb2Z0d2FyZQBNYXRwbG90bGliIHZlcnNpb24zLjcuMiwgaHR0cHM6Ly9tYXRwbG90bGliLm9yZy8pXeV/AAAACXBIWXMAAA9hAAAPYQGoP6dpAAEAAElEQVR4nOzdeXxM1//H8dfMZE8siSTWEEpjjS1qqV2pfd+VoqVapVX8lK4oKsq3ilpLqa3UUrvSDaVUKnaq1pDYE2RPZub3RyqVJggSk/B+Ph7zMHPPued+zs1MZO7nnnMMVqvVioiIiIiIiIiIiIiIiGQIo60DEBEREREREREREREReZIo+SIiIiIiIiIiIiIiIpKBlHwRERERERERERERERHJQEq+iIiIiIiIiIiIiIiIZCAlX0RERERERERERERERDKQki8iIiIiIiIiIiIiIiIZSMkXERERERERERERERGRDGRn6wCyMovFQmJiIkajEYPBYOtwREREREQyldVqxWKxYGdnh9Go+7Tk/vSdSURERESeNun93qTkyz0kJiZy8OBBW4chIiIiIvJYlStXDgcHB1uHIdmAvjOJiIiIyNPqft+blHy5h9tZq3LlymEymWwcjciTzWw2c/DgQX3eRLIBfV5FspcH+czerqtRL5Je+s4kIlmJ/k4VkaeRfvc9fun93qTkyz3cHjZvMpn0xhV5TPR5E8k+9HkVyV4e5DOr6aMkvfSdSUSyIv1OEpGnkX73PX73+96kW9pEREREREREREREREQykEa+iIiIiIiISKayWCzEx8fbOgwReQT29va6o1pEROQBKPkiIiIiIiIimSY+Pp7Tp09jsVhsHYqIPKLcuXOTL18+TU8pIiKSDkq+iIiIiIiISKawWq2EhYVhMpnw8fG576KkIpI1Wa1WoqOjuXz5MgD58+e3cUQiIiJZn5IvIiIiIiIikikSExOJjo6mQIECuLi42DocEXkEzs7OAFy+fBlvb29NQSYiInIfuu1IREREREREMoXZbAbAwcHBxpGISEa4nURNSEiwcSQiIiJZn5IvIiIiIiIikqm0PoTIk0GfZRERkfRT8kVERERERERERERERCQDKfkiIiIiIiIiIiIiIiKSgZR8ERERERERERERERERyUBKvoiIiIiIiIgIYWFhdO/enaZNm9KiRQs2btxo65Aei/79+1OlShUGDhxo61BERETkCWJn6wBERERERERExPZMJhMjRoygVKlSXLlyhbZt21KnTh1cXFxsHVqm6tGjB+3atWP16tW2DkVERESeIBr5IiIiIiIiIiJ4e3tTqlQpALy8vHB3d+fGjRs2jirzVa1aFVdXV1uHISIi8kQ4fTWK8ZuOMWDJPsZvOsbpq1EZ2v7C7QspP7k8C7cvzNB2M8MTnXyxWCwMHz6czp0788orr3Dt2jVbh5R+VivcDEv6V0RERERERJ4YixYton79+pQrV44OHTpw4MCBe9afMmUKfn5+KR6NGzdOUWfmzJm0a9eOihUrUr16dd544w1OnTr10DEeOnQIi8VC/vz5H7qNO5nNZj7//HPq16+Pv78/L7zwAtOmTcN6j++89+tTZGQkY8aMoV69evj7+9O5c+f7nsvHLTP6kN59HvR9JiIi8qiW7Q2hwcRfmPnrSdYGn2fmrydpMPEXlu8NSapgsSRd835IVquV+afmY8ltYf6p+ff8OyIreKKTL1u2bMHJyYmlS5fSrl07Zs6caeuQ0u/wSphUEjYMtXUkIiIiIiIikkE2bNjAuHHj6N+/P6tWraJkyZLpulmwRIkS7NixI/mxePHiFOV79uyhW7duLFu2jHnz5pGYmMgrr7xCdHT0A8cYERHBsGHDGDVq1H3rTpkyhXffffe+9WbPns2SJUv48MMP2bBhA0OGDGHOnDl88803d93nfn16//332blzJ4GBgaxdu5bnn3+eXr16cenSpfR39iGlt9+Z0Yf07POw7zMREZGHdfpqFO+uOIDFChYrYDAmP5+84idCj+yC5T2SrnkHLYDQYIgISXf7YWFhLNi2gItcBOAiF1mwbQFhYQ+fzMlsT3Ty5c8//+T5558HoFatWuzZs8fGET2AXIUBA/wxG4K+tnU0IiIiIiIiT43333+ffv36pdg2evRohg5NeXPc7t27U41Iuf3YvXt3mm3PmzePjh070q5dO4oXL87IkSNxcnJixYoV94zJZDLh5eWV/PDw8EhR/tVXX9G2bVtKlChByZIl+fTTTwkNDeXw4cPJddatW4e/vz+XL19O3jZ8+HBatGjBrVu3AIiPj6d///706dOHSpUq3f9kpdO+ffto0KABdevWpVChQjRu3JiaNWveczTGvfoUGxvLDz/8wNChQ6lSpQpFihRhwIABFClSJEViKj19zkwZ0Yc7pXefh32fiYiIPKxle0MwpLG9AFfZ6jCYAssaw9G1SRvXDoBZdWBq5XQnYCZ8NoFRP43Cak4a7WI1Wxn10ygmfDYhg3qQ8Z7o5EtkZCRubm4AuLq6EhWVsfPLZSqfKlD//aTnG4bC+b22jUdEREREROQp0axZM3777TciIyOBpCmtN2/eTLNmzVLUq1ixYorRKHc+KlasmKrd+Ph4Dh8+TI0aNZK3GY1GatSowb59++4Z09mzZ6lZsyYNGjRg8ODBhIaG3rP+7cRCrly5UvTL19c3eVaIL774gp07dzJnzhxy5MiB1Wrl3XffpVq1arRu3fqe7T+oihUr8vvvv3P69GkAjh07RlBQELVr1053G3f2KTExEbPZjKOjY4o6jo6O/Pnnn8mv79fnx+1h+nCn9OzzKO8zERGRh3U+PAazJfU0YO6GWzgZEtLeKTEOotM3KvOa2zVcirlgMCWleAwmAy7FXLjmlnVHddrZOoDM5ObmlpxwiYqKsskfVo+k1mAIC07KCH7bHfr+Ajny2joqERERERGRJ1rVqlXJlSsXP/30Ey1btmTv3r0kJCQkz6xwm4ODA15eXuluNzw8HLPZTJ48eVJsz5Mnzz3XZ/H392fcuHEULVqUK1euMG3aNLp168batWuTbzi8k8ViYezYsVSqVIlnn302ebvBYGDQoEEMHDgQT09PFi5cyKJFi8ibN+l7ZlBQEBs2bMDPz4+tW7cCEBgYiJ+fX4r29+7dS58+fQBISEjAarWyefNmIGl6sYCAgFQx9e3bl8jISJo0aYLJZMJsNjNo0CBatmyZnlOXZp8qVqzIl19+SbFixfD09GTdunUEBwdTuHDhdPcZoGfPnhw7doyYmBhq167N5MmT00yePUy/M6IPd3Jzc7vvPg/7PhMREXkUhdydMWDFmub4l0djtVqJrBCJ4WbSEW4zYCCyQiRWqxWDIeOP+6ie6ORLhQoV+O2332jQoAHbtm1L84+nLM1ggNbT4cpfcPU4LO8JL68Bk72tIxMREREREXliGY1GmjRpwqZNm2jZsiUbN26kYcOG2Nun/C5258X4/0rPxfj0qlOnTvLzkiVLUr58eerVq8fGjRvp0KFDqvojR47kxIkTaU5dVa9ePYoXL860adOYO3cuJUqUSC4LCAjg2LFj942nbNmyrF69GoBvvvmGS5cuMWTIEIAUSY07bdy4kbVr1zJx4kSKFy/O0aNHGTduHN7e3rRp0+a+x0yrT4GBgYwYMYLatWtjMpkoXbo0zZo1SzHV2v36DPD111/f9/gP2++M6sOdHmYfERGRzNYxwIeZv57EmnrwyyNLsCRwLf5aisQLgBUr1+KvkWBJwMHkkPEHfkTZKvkSHx9P27Zt+eCDD6hatSoAcXFxjBw5kh9++AEnJyd69+5N7969AWjUqBHbtm2jc+fO2NvbM2nSJFuG/3Acc0DnRTC7PpzbCZvfg6aBto5KRERERETkida8eXO6d+9OZGQkW7ZsYcKE1POJ33kx/r/Suhjv7u6OyWRKtej5tWvX8PT0THdsOXPmxNfXl3PnzqUqGzVqFL/88gsLFy4kX758qcq3bdvGqVOnsFgsqUZGpJeTkxNFihQBkqbPioyMTH59N4GBgfTt2zd56jY/Pz9CQ0OZOXPmfZMvd+tT4cKFWbhwIdHR0URGRuLt7c3bb7+Nj49Piv0zos/wcP3OqD7c6X77ZNT7TERE5EEU9XRlfDt/hq1IWs/NYrFgNBoxZsCAFAeTA0ubL+V67PVUZR5OHlky8QLZKPkSFxfH4MGDOXHiRIrtgYGBHDp0iPnz5xMaGsqwYcMoUKAAjRs3xmQyMW7cuEc+ttlsfuQ2Hol7MWg1HdOybrBnJpZ85bGW72zbmEQy2O3Pmc0/byJyX/q8imQvD/KZ1eda5F/ly5cnb968zJ49G6vVynPPPZeqzp0X49PDwcGBMmXKsGvXLl544QUg6cLErl27eOmll9LdTlRUFCEhISmmPLNarYwePZotW7bwzTffpHnx/vDhw7z99tuMGTOGVatWMXnyZL744ot0H/dRxMbGppoOxGQyYb3H7bHp6ROAi4sLLi4u3Lhxgx07djB06NDkMlv2GTKmD3dzt30y6n0mIiLyoDoE+FDF14Nv94ZwPjyGQrmd6P7X/yD80dvO55qPfK6pbyzJyrJF8uXvv/9m8ODBqf4oi46OZvny5cyePZsyZcpQpkwZTpw4waJFi2jcuHGGHf/gwYMZ1lZ6xSVa2RsWS6V8jjjbG4H85H+2BwX+WgDr3uavcCPRuZ+9bzsi2Y0tPm8i8nD0eRXJXvSZFXlwTZs2Zd68eXTo0AGTyZQhbfbq1Ythw4ZRtmxZ/P39mT9/PjExMbRt2za5zsKFC9myZQvz588HYPz48dSrV48CBQpw+fJlpkyZgtFopHnz5sn7jBw5knXr1vHll1/i6urKlStXAMiRIwdOTk6cP3+e1157jX79+tG8eXN8fHzo1KkThw8fpkyZMg/dnwEDBqSrXr169ZgxYwYFChRInnZs3rx5tGvX7q79vl+ftm/fjtVqpWjRopw7d47AwECKFSuWfC4zq88P0u9H7UNa5yU9+6TnfSYiIpIZfD1dGda4ZNKLI2tg9x93r2znCC4PPyo1q8sWyZc9e/ZQtWpVBg0aRIUKFZK3Hzt2jMTExBRruVSuXJkZM2YkD2vKCOXKlcuwP7TTa+kfIUz6/TBVi7qzoFcV7ExGKD8J67cXMZ74gZIHPsHyyk/gqiHD8mQwm80cPHjQJp83EXkw+ryKZC8P8pm9XVdEkjRt2pQZM2bQtGnTDG3z+vXrfPHFF1y5coVSpUoxZ86cFNNBhYeHExISkvz64sWLvPPOO0RERODh4UHlypVZtmwZHh4eyXWWLFkCQPfu3VMcb9y4cdSvX59XX32V+vXr07dvXyBpZE/t2rWZNGkSX331VYb1727ef/99Jk+ezMiRI7l27Rre3t506tSJ/v37J9f5b7/v1ae2bdty69YtJk2axMWLF8mdOzeNGjVi0KBB2NvbExERYfM+P2ofbvvveUnPPul5n4mIiGQqcyL8OCrp+XP9oEKX1HVc8kDuu0+1md0ZrPca45sF+fn5sWDBAqpWrcrmzZsZNWoUv/32W3L5yZMnadq0Kbt27Urxh+jDMJvNBAcHU6FChcd+censtSiaTt5OVLyZN+sVZ8iLfkkFMREwux5cPwVFa8NLq8CULXJoIvdky8+biDwYfV5FspcH+czq8y0P6n7vmdjYWE6fPk3RokVxcnKyQYSP5rfffuODDz7gxx9/TDVllsjTKKt/pvX/mIg8jbLs776g+bB2YFKCZWAwOOW0dUQZJr3nPGOGhthITEwMDg4pF9O5/To+Pt4WIWWYInlcGdfOH4Bpv/zNr38lDU3GOTd0Xgz2rnB6G2z9yHZBioiIiIiIPIEuX77Mxo0bmTBhAu3bt1fiRURERORBJMTAL58mPa815IlKvDyIbJ18cXR0TJVkuf06K96B8aBali9At6qFsVph0LfBhN2ISSrwLgWtpyU93zUVDn5nuyBFRERERESeMLdu3WLEiBG4u7vTq1cvW4cjIiIikr3sngm3QiFXYajyiq2jsZlsnXzJmzcv4eHhJCYmJm+7cuUKTk5O5Mz5ZGTTPmhemjIFcnI9Kp6BS/aRaLYkFZRpA8+/nfT8+zfh4iGbxSgiIiIiIvIkeeaZZ9i3bx/z5s3D2dnZ1uGIiIiIZB8x4bBjUtLzeiPAztG28dhQtk6+lCpVCjs7O4KDg5O3BQUFUa5cOYzGbN21ZE72JqZ1rYSbox1/nAnnsx/++rewwYdQrB4kxsDSLhB1zXaBioiIiIiIiIiIiMjTbcfnEHsDvEuDf0dbR2NT2TpD4ezsTOvWrfn44485cOAAW7duZe7cufTo0cPWoWUoX09XAtsnrf8y49eT/HTsUlKB0QTt54K7L0Scg+UvgznBdoGKiIiIiIjch9VqJToh+rE+rFarrbstIiIi8uS7GQq7ZyQ9b/BR0vXrp5idrQN4VMOHD+fjjz/m5Zdfxs3NjQEDBtCoUSNbh5XhmpbLz8vVizB/11neWbaf9QNrUTC3M7h4QJelMOcFOLMdNg2HZp/ZOlwREREREZFUrFYrPTb2IPhK8GM9bkXvisxvPB+DwfBYjysiIiLyVPnlU0iMhcLV4dkXbR2NzWW7kS/Hjx+natWqya+dnZ0ZP348+/btY/v27fTs2dN2wWWyEc1K4V8oFxHRCQxY/CcJt9d/8S4FbWclPf9jNgR9bbMYRURERERE7kUJEBEREZEn0NUTsG8hAIn1P+KPs+GYLU/36ONsP/LlaeJol7T+S9MvtvPnuQgCNx3jvWalkwpLNoN678HPY2D9EPD0gyLVbRuwiIiIiIjIHQwGA/MbzycmMeaxHtfZzllJHxEREZHM9OMosJrBrylv/ebI+oO7mNKlIi3KF7B1ZDaj5Es24+PhwoT25em3MIjZ20/zXNE8NCydN6mw9lC4dAiOfA/LukOfnyG3j20DFhERERERuYPBYMDF3sXWYYiIiIhIRjkfBEfXgMHIjsJvsH5tGHZGA375ctg6MpvKdtOOCTQum4/ezxcFYPCyYEKuRycVGAzQejrkLQdRV2BpV4iPtmGkIiIiIiIiIiIiIvLEslph60cAxJfpxDu/xAHQt3Yxns2r5ItkQ+82KUl5n9zcjE3kzSX7iE/8Z/0XB1foshhc8sDFA/B9/6QPgIiIiIiIiGSosLAwunfvTtOmTWnRogUbN260dUgiIiIij9fJH+HMdjA58j9zOy7fiqOopysDG5SwdWQ2p+RLNuVgZ2Ra14rkcrZnf0gEYzcc/bcwd2Ho+A0Y7eDwStgxyXaBioiIiIiIPKFMJhMjRoxgw4YNzJ07l7FjxxIdrdkHRERE5ClhscDWjwEI83uJ6fviARjXthxO9qYMP9zC7QspP7k8C7cvzPC2M4OSL9lYIXcXJnUsD8DXO8+wZn/ov4W+z0OTwKTnP46G45tsEKGIiIiIiMiTy9vbm1KlSgHg5eWFu7s7N27cyNBjxMXFMWLECAICAqhZsyZz5869a91Lly4xcOBAnnvuOWrVqsW4ceOIi4tLLo+Pj2fkyJFUqVKFGjVqMGnSJKyaKUFEROSpdvpqFOM3HWPAkn2M33SM01ej0q4YEQKhwSkf2yfBxYNYHXPw+tm6AHR5zodqxfJkaIxhYWEEBQUx6+gsLLktzDo6i6CgIMLCwjL0OBnNztYByKNpUCov/es9w7SfT/LuigOUypeDErfn0qvyClw6BHvnwopXoc+P4OVn24BFRERERESyiZdeeok//vgDAHt7e3x8fHjjjTdo0aJFqrqHDh3CYrGQP3/+DI0hMDCQQ4cOMX/+fEJDQxk2bBgFChSgcePGKepZrVYGDhxIzpw5WbRoETdu3GDEiBEYjUaGDRsGwCeffMLu3bv56quviIqKYtCgQRQoUIDOnTtnaMwiIiKSPSzbG8K7Kw4AYLFYMBqNzPz1JOPb+dMhwOffihEhMLUyJMal2c4fHq0IPm3CK4cj7zYpleFxfvbZZ8z6YRa+Q3wBCHcMp27PuvRt1JeJEydm+PEyika+PAHeaejH88XzEB1vpt/CICLjEv8tbDweijwP8bdgSWeICbddoCIiIiIiItmE1WrlyJEjDBs2jB07drBx40Zq1arFsGHDCAkJSVE3IiKCYcOGMWrUqAyNITo6muXLl/Pee+9RpkwZGjZsyKuvvsqiRYtS1T116hTBwcGMGzeOEiVKEBAQwMCBA1m3bl1yjCtWrGD06NH4+/tTvXp1evfuzf79+zM0ZhEREckeTl+N4t0VB7BYwWIFDMbk58NWHODMnSNgoq/dNfEC8Nm5ZwAY3aoMuZztMzxWK1a823pjNSeN2LWa/3lN1h7Bq+TLE8BkNDC5c0Xy5XTi5JUohq048O/QcTsH6DAfcvnA9VPwXW8wJ967QRERERERkafcmTNniIqKolatWnh5eeHj40P79u0xm82cPn06uV58fDz9+/enT58+VKpUKUNjOHbsGImJiVSsWDF5W+XKldm/fz8WiyVFXS8vL+bMmYOnp2eK7ZGRkQAEBQXh5ubGc889l1zWt29fxo0bl6Exi4iISPawbG/IPcu/vU/5naIsDrxYJi+Ny2bsCODb6vWsh0sxFwwmAwAGkwGXYi7U61kvU46XUZR8eUJ4ujkyrVsl7IwG1h8IY95vZ/4tdPOCzovB3gVO/gRbP7JZnCIiIiIiItnB4cOHyZUrF8WLFwfg4sWL/O9//8PBwQE/v6TpnK1WK++++y7VqlWjdevWd21rxowZVKxY8Z6P0NDQVPtduXIFd3d3HBwckrd5enoSFxdHREREiro5c+akVq1aya8tFgsLFy6kWrVqAISEhFCwYEFWr15N48aNadCgAdOmTUuVxBEREZGnw/nwmLv+HWCxWDgfHpPutlwdTIxqVTajQkvBarWy6OwiDBhSbDdgYNHZRVl6/Tqt+fIEqVzEnfebleLjtUcYu+Eo/oVyEeDrkVSY3x9afwnLe8KuqZC3LFToYtN4RUREREREsqrDhw9z69YtKlWqhNlsJi4uDicnJ0aOHEnevHmBpNEkGzZswM/Pj61btwJJa7TcTs7c1rlzZ5o0aXLP43l7e6faFhMTkyLxAiS/jo+Pv2d7EyZM4MiRI3z33XdA0hRmZ8+eZenSpYwbN44rV67w4Ycf4uzsTO/eve/ZloiIiDx5Crk7YzQmTTX2X0ajkULuzuluq+fzvuTN6ZSB0f0rwZLAxaiLqaYYs2LlYtRFEiwJOJgc7rK3bSn58oR5uYYvQeciWLs/lP6L/2TdgFp45XBMKizTBi4dhm0TYO1b4FkCCgXYNmAREREREZEs6MiRI3Tr1o3u3btz8+ZNAgMDqVSpEm3btk2uExAQwLFjx+7bVu7cucmdO/cDx+Do6JgqyXL7tZPT3S9wTJgwgfnz5/O///2PZ599FgA7OzsiIyOZOHEiBQsWBCA0NJQlS5Yo+SIiIvIU6hjgw8xfT961vFOAT7rbalwmX0aElCYHkwNLmy/leuz1VGUeTh5ZNvECSr48cQwGA5+2LcfRsJv8fTmSgUv28c0rz2Fn+meGuboj4NIROL4elnaDPj9BroK2DVpERERERCSLOXLkCB07dqRIkSIAfPTRR7Rs2ZIOHTpQqFChB2prxowZzJw585511q9fT4ECBVJsy5s3L+Hh4SQmJmJnl/T1/cqVKzg5OZEzZ8402xk9ejRLlixhwoQJvPjii8nbvby8cHR0TE68ABQtWpSwsLAH6ouIiIg8GYp6ujK+nT/DVhwAkqYaMxqTriGPb+ePr6frv5Vd8oCdIyTGpWrHYnLE6OqZantGyueaj3yumZfgySxKvjyBXB3tmPFSZVpN3cGuU9eYuOUvhjUumVRoNELbmfBVI7h8BJZ0ht6bwMH13o2KiIiIiIg8JUJCQrh58yYlSpRI3la8eHF8fHxYt24d/fr1e6D2HnbasVKlSmFnZ0dwcDABAUmzFgQFBVGuXLnkiyN3mjp1KkuXLmXSpEk0btw4RVn58uWJi4vj9OnTFC1aFIBTp06lSMaIiIjI06VDgA9VfD34dm8I58NjKOTuTKcAn5SJF4DcPvBmUNKSFhf2ssPqz7j4TvStVYxWNcollUsqSr48oYp7uzG+vT9vLt7H9F9OUtEnN41uD/9yzAFdlsLs+nDxAKx6DTosSErMiIiIiIiIPOUOHTqEvb09vr6+KbZXr16dLVu2PHDy5WGnHXN2dqZ169Z8/PHHjB07lsuXLzN37lzGjRsHQEREBCaTiRw5cnDy5Em+/PJL+vbtS+XKlbly5UpyO15eXhQrVoy6desyfPhwPv74Y65cucKsWbN4/fXXHzguEREReXL4err+e+P+vVw9Dhf2koA978b3xtvnWZo3rgFGQ+YHmU3pavsTrLl/AXo/n3RH0+Dl+zlzNerfQvci0HkRmBzg6Fr4abSNohQREREREclajhw5QpEiRVItdl+jRg0OHz7MxYsXH1ssw4cPp0yZMrz88suMHDmSAQMG0KhRIwAGDBjAmDFjAPjxxx8xm81Mnz6dmjVrpnjc9tlnn1G4cGG6dOnCsGHDkte0EREREbknixl++BCArxMbctmUj8D25TEp8XJPGvnyhBvetCQHzkew92w4/RYGsfKNGrg4/PNjL1wNWk5JGvmyYxJ4PgsVutg2YBERERERERsbPHgwgwcPTrW9UaNGHDt27LHG4uzszPjx4xk/fnyqsm+++Sb5ed++fenbt+8928qRIweBgYEZHqOIiIg84fYvgcuHuYkrUxNb83bjEhT3drN1VFmeRr484exNRqZ2rYSnmyPHLt7i/747gNVq/bdC+c5Q852k52sHwtldtglURERERERERERERLKW+GisP30CwJSEVhQuWJC+tYrZOKjsQcmXp0C+XE5Mf6kSdkYD6w6EMXv7qZQV6n8ApVqAOR6+7QbhZ2wSp4iIiIiIiIiIiIhkIb9Pw3ArjPNWTxZZXySwvT92JqUV0kNn6SlRxdeDj1qUBuDTjcfYceLqv4VGI7SZCfnLQ/Q1WNwZYm/aKFIRERERERERERERsbnIK1h3fA5AYEIn+tQrTan8OW0bUzai5MtT5KVqRehQuRAWK7y55E9Crkf/W+jgCl2Wgls+uHIUvusN5kTbBSsiIiIiIiIiIiIitvPrpxjiIzlgKcpfno3oX6+4rSPKVpR8eYoYDAZGty6Lf6FcREQn8No3QcTEm/+tkLMAdFkCds7w9xb44X3bBSsiIiIiIiIiIiIitnH1BJa98wAYl9iN8R0q4GCndMKD0Nl6yjjZm5jxUmXyuDpwJOwmw1cewGq1/luhYCVoMyPp+e7psHeubQIVEREREREREREREZtI+OEjjFYzW80V8a/VnPI+uW0dUraj5MtTqEBuZ6Z2rYTJaGB1cChzfzuTskKZ1lDvn1Ev64fAqV8ec4QiIiIiIiIiIiIiYhNnd2H/13rMVgOLcvRm0AvP2jqibEnJl6dU9Wfy8F7TUgCM3XCUnSevpqxQewiU6wBWMyzrAVdP2CBKEREREREREREREckQESEQGpz6ERHybx2LhZvfDwFgmaUub3RsjpO96fHH+gRQ8uUp1ut5X9pULIjZYuXNxfu4EBHzb6HBAC2nQqEqEHsDFneC6Ou2C1ZEREREREREREREHk5ECEytDLPqpH5MrZycgIkKWkLO64eItDpxsdJgqvh62DTshdsXUn5yeRZuX2jTOB6Gki9PMYPBwNg25ShTICfXo+Lp900QsQnmfyvYO0HnxZDLB66fTBoBkxhvu4BFREREREREREREhNNXoxi/6RhvfRvMwoO3OH016t47RF+DxLi0yxLjksrjo4nf/BEASxw78HrzGhkc9YOxWq3MPzUfS24L80/NT7l2eTag5MtTztnBxIyXKuPuYs/BCzcYsepgyjexmzd0WQoObnBmO6wdCNnsTS4iIiIiIiIiIiLypFi2N4QGE39h5q8nWbc/lO+PRdLo8+0s3xty/53v4cTqsbgnXuG81ZMqnd+z6XRjwcHBfLLwEy5yEYCLXOSThZ8QHBxss5gelJIvgo+HC1O7VsJogJV/XmDBrrMpK+QrCx2+BoMJ9i+BbRNsEqeIiIiIiIiIiIjI0+z01SjeXXEAixUsVsBgxIIBixWGrTjAmfuNgLmLm9fCKHRkFgBBJd6mQrH8GRj1g3vr7bf4+u+vsZqTBgJYzVa+/vtr3nr7LZvG9SCUfBEAni/uyfAmpQAYve4Ie07/Z32XEg2h6T9Jl5/HwIFljzlCERERERERyUxhYWF0796dpk2b0qJFCzZu3GjrkLKU/v37U6VKFQYOHGjrUERE5Cm2bG8IhnuUf/uQo1/ObJyMM3EcNpWicafXHy64DPTKqFdwKeaCwZTUW4PJgEsxF14Z9YqNI0s/JV+yqH2X9/Hidy8yae8k4sx3mYsvg71aqygtyhcg0WLljUVBhN2ISVmhyitQY0DS8+/7w5nfHktcIiIiIiIikvlMJhMjRoxgw4YNzJ07l7FjxxIdHW3rsLKMHj16MH78eFuHISIiT7nz4TGYLWkvC2GxWDgfHpNm2f34R+8CwKn5eBzt7R46voxgtVrZcHMDhv+kmQwY2HBzQ7ZZ+0XJlyzqRtwNQqNCmXd4Hh3XduTQ1UOZfkyDwcD4duUomS8HVyPj6bfwT2ITzCkrvTAKSrUEczx82w2u/p3pcYmIiIiIiEjm8/b2plSppBkRvLy8cHd358aNGzaOKuuoWrUqrq6utg5DRESecoXcnTGQdvLB8E95mlzygJ1jmkWWf5IcR70a80zFOhkR5iNJsCRwMeoi1v/004qVi1EXSbAk2CiyB6PkSxZV16cuX9T7gjxOeTh14xQvbXiJL/78gnhzfKYe18XBjlndA8jlbM/+kAiGrzyYMpNoNEKbmVCwMsSEw6L2EHU1U2MSERERERF5kixatIj69etTrlw5OnTowIEDB+67z6VLlxgyZAhVq1bF39+fFi1acPDgwQeuk16HDh3CYrGQP3/GzPf+xx9/0K9fP2rWrImfnx9bt259qDr/ZTab+fzzz6lfvz7+/v688MILTJs2LcX32MjISMaMGUO9evXw9/enc+fO6TrntjBr1iz8/PwYM2ZMiu3p6eed6tevj5+fX6rHyJEjk+ssXryYFi1aUKlSJSpVqkSnTp349ddfM7V/IiLy6DoG+GAwpn1Z32A00inAJ+0dc/vAm0HQ99fkh7XvLyx374sRK7E48kznrLHWt4PJgaXNl/Jt829TPZY2X4qDycHWIaaLbccPyT3VK1yPit4VGbtnLBtPb2T2wdn8cv4Xxjw/hlJ5SmXacQvnceHLbpXoMXcPq/ZdwC9fDvrVeebfCg4u0GUpzGkA4adhaVfosQbsnTItJhERERERkSfBhg0bGDduHCNHjqR8+fLMnz+fV155hU2bNpEnT54097lx4wZdunShatWqzJ49G3d3d86ePUuuXLkeqE56RUREMGzYMEaPHn3fulOmTOHChQt8+umn96wXHR2Nn58f7dq1480333zoOv81e/ZslixZwvjx4ylevDiHDh1i+PDh5MiRgx49egDw/vvvc+LECQIDA/H29mbNmjX06tWLDRs2kDdv3nQd52Gk99zcduDAAZYuXYqfn1+qsvT0807fffcdZvO/M1mcOHGCXr160bhx4+Rt+fLlY8iQIRQpUgSr1crq1avp378/q1atokSJEg/RYxEReRyKeroyvp0/w1Yk3UhgsVgwGAz/zGrkj6/nPUZp5vZJevzj+z9O8dy11WCEyMr98MxTOJOjT798rvnI55rP1mE8Eo18yeJyO+UmsHYgk+pOwt3RnRPhJ+i6vivTg6dn6vCq54t78mHz0gCM33SMn45dSlnBzRu6fQdOuSBkN6x+HSyWTItHRERERETkcXn//ffp169fim2jR49m6NChKbbt3r07zdEFfn5+7N69O822582bR8eOHWnXrh3Fixdn5MiRODk5sWLFirvGM3v2bPLly8e4cePw9/fHx8eHmjVrUrhw4Qeqs27dOvz9/bl8+XLytuHDh9OiRQtu3boFQHx8PP3796dPnz5UqlQp/SftPurUqcOgQYNo2LDhI9X5r3379tGgQQPq1q1LoUKFaNy4MTVr1kwe2RIbG8sPP/zA0KFDqVKlCkWKFGHAgAEUKVKExYsXJ7eTnnOTmaKiohg6dCiffPJJmgmz+/Xzvzw8PPDy8kp+/PzzzxQuXJjnnnsuuU79+vWpU6cOvr6+FC1alEGDBuHi4kJwcHBmdVNERDJIhwAffhpcl9fqPEPz8gVoXdKNLYNq0eFuo17ScPFGLH+vn0gR42WiHDzxbPR/mRjx00nJl2yiYZGGrGq1ioZFGpJoTeTL/V/SbX03/gr/K9OO2aN6Ebo8VxirFQYuCebEpf/8wenlB50WgtEeDq+En+5/V5SIiIiIiEhW16xZM3777TciIyOBpDtKN2/eTLNmzVLUq1ixIjt27EjzUbFixVTtxsfHc/jwYWrUqJG8zWg0UqNGDfbt23fXeH766SfKli3LwIEDqV69Oq1bt2bZsmUPXKdZs2b4+voyc+ZMAL744gt27tzJnDlzyJEjB1arlXfffZdq1arRunXrBzpntlKxYkV+//13Tp8+DcCxY8cICgqidu3aACQmJmI2m3F0TDnHvaOjI3/++Wfy6/udm8w2atQo6tSpk+K9caf79fNe4uPjWbNmDe3atcNgMKRZx2w2s379eqKjo9N874qISNbj6+nKsMYlmdypAi+Vy4FvnvSvS2a1WhmzfBt9rUk3fzg1HgmObpkV6lNL045lI3mc8zCxzkQ2ndnEmN1jOHr9KJ3WdaJ/hf70LNMTO2PG/jgNBgMjW5bh5JVI9py+zqsL9rL6jedxd71jTr2itaHlF0kjX3ZMAo+iUCn1kGcREREREZHsomrVquTKlYuffvqJli1bsnfvXhISEnj++edT1HNwcMDLyyvd7YaHh2M2m1NNL5YnTx5OnTp11/1CQkJYsmQJvXr1ol+/fhw8eJBPPvkEe3t72rRpk+46BoOBQYMGMXDgQDw9PVm4cCGLFi1KnnorKCiIDRs2pFhvJTAwMNU0WHv37qVPnz4AJCQkYLVa2bx5M5A0AicgICDd5+RR9e3bl8jISJo0aYLJZMJsNjNo0CBatmwJgJubGxUrVuTLL7+kWLFieHp6sm7dOoKDg1OMCrrfuQHo2bMnx44dIyYmhtq1azN58uRUiYqHOTfr16/nyJEjfPfddw/dz3vZunUrt27dSn4f3On48eN07tyZuLg4XFxcmDZtGsWLF79vmyIikr0t2xvCc2dmktMuhlivcjhV6GrrkJ5ISr5kMwaDgSZFmxCQN4BRu0bxy/lfmPznZH469xOfPP8JxXIXy9DjOdgZmd6tEq2m/cbZa9H0X/wn83s/h73pjkFTFbrC9dOwLRDWDYJcPvBMvQyNQ0RERERE5HExGo00adKETZs20bJlSzZu3EjDhg2xt7dPUe/OC+3/lZFJCKvVStmyZXnnnXcAKF26NCdOnGDp0qXJF9TTUwegXr16FC9enGnTpjF37twUa3sEBARw7Nix+8ZTtmxZVq9eDcA333zDpUuXGDJkCECmrqGSlo0bN7J27VomTpxI8eLFOXr0KOPGjcPb2zu534GBgYwYMYLatWtjMpkoXbo0zZo14/Dhwynaute5Afj666/vG8+DnpuwsDDGjBnD3LlzU43OedB+3s2KFSuoXbt2mscvWrQoq1ev5tatW2zevJlhw4axcOFCJWBERJ5gIdejWbR2M6tMPwLg1Gw8GDVBVmZQ8iWLOn01io9WbWTXhb+oXvBZRrZpQtE7FkvycvHii/pfsPbUWj7d/SkHrx6kw9oODKg4gO6lu2MymjIsljxujszuEUC76TvZefIan6w7wshWZVNWqjcCws/AwWWwrAf03gx5S2dYDCIiIiIiIo9T8+bN6d69O5GRkWzZsoUJEyakqnPnhfb/SutCt7u7OyaTiWvXrqXYfu3aNTw9Pe8ai5eXF88880yKbcWKFUseUZHeOgDbtm3j1KlTWCyWVCNw0svJyYkiRYoAkCtXLiIjI5NfP26BgYH07ds3eUo4Pz8/QkNDmTlzZnJSonDhwixcuJDo6GgiIyPx9vbm7bffxscn5bz4tjg3hw8f5tq1a7Rt2zZ5m9ls5o8//mDRokUcPHgQk8mUrn6m5cKFC+zcuZMpU6akWe7g4JAcX9myZTl48CALFixg1KhRD9x3ERHJ+swWK+8sC2awdQEmoxVryRYYfJ+//47yUJTSyoKW7Q2hwcRf2HbSkYTYcmw76UiDib+wfG9IinoGg4GWz7RkZauVPF/geeIt8UwMmkivzb04e/NshsZUKn9O/tepAgDzd51l8e5zKSsYDNBqKhR5HuJuwqL2cONChsYgIiIiIiLyuJQvX568efMye/ZsrFZrioXKb7t9oT2th5OTU6r6Dg4OlClThl27diVvs1gs7Nq1657rbFSqVCl5rY/bzpw5Q8GCBR+ozuHDh3n77bcZM2YM1atXZ/Lkyfc/EVlcbGxsqnVMTCYTVqs1VV0XFxe8vb25ceMGO3bsoEGDBslltjo31apVY+3ataxevTr5UbZsWVq0aMHq1asxmZJurHyQft5p5cqV5MmTh7p166YrHovFQnx8/EP1RUREsr5Z207heu5n6pgOYDU6YGikZHtm0siXLOb01Si+WPETpbgFKf6usjJ5xVWq+LbH1zPl4kn5XPMx/YXprDyxkgl7J7Dv8j7ar2nPmxXf5KVSL2XYKJgXy+RjSKNn+eyHv/jw+0MU83KlWrE77gayc4ROC2FuY7h6PCkB02sjOOfOkOOLiIiIiIg8Tk2bNmXevHl06NAh+SL4o+rVqxfDhg2jbNmy+Pv7M3/+fGJiYlKMfFi4cCFbtmxh/vz5ALz88st06dKFGTNm0KRJEw4cOMCyZctSjE64X53z58/z2muv0a9fP5o3b46Pjw+dOnXi8OHDlClT5qH7M2DAgHTVi4qK4ty5f2/iO3/+PEePHiVXrlwUKFAg3XX+e27q1avHjBkzKFCgQPJ0XPPmzaNdu3bJ7Wzfvh2r1UrRokU5d+4cgYGBFCtWLPmc2/LcuLm58eyzz6bY5uLiQu7cuVNsT08//3tuLBYLK1eupHXr1tjZpb78M3HiRGrXrk3+/PmJiopi3bp17Nmzh6+++uphuywiIlnY4dAbTNlymLV23wBgqPYaeGTsEhaSkpIvWczG3/5gq8NgnAwJqcpirfbM/a0Ib7Sqm6rMYDDQ7tl2VC9QnQ93fsjusN18tvczNp/ZzMgaIynhXiLVPg+jf73iHLt4i3UHwnh9YRBr3qyJj4fLvxVcPOCl72BOQ7h8BL59CV5akZSYERERERERyUaaNm3KjBkzaNq0aYa2ef36db744guuXLlCqVKlmDNnToppx8LDwwkJ+XfmA39/f6ZOncqkSZOYNm0ahQoVYsSIESkWW79XnYiICF599VXq169P3759gaSRPbVr12bSpEmP5WL7oUOH6NGjR/LrcePGAdCmTRs+/fTTdNf577l5//33mTx5MiNHjuTatWt4e3vTqVMn+vfvn1zn1q1bTJo0iYsXL5I7d24aNWrEoEGDsLe3zxLnJj3S08//npudO3cSGhqaIkFzp2vXrjFs2DAuX75Mjhw58PPz46uvvuL55zX9jIjIkyY2wcygb4PpyiaeMYZhdfXGUPv/bB3WE89gvd8Y1aeY2WwmODiYChUqZNhdTvczft63DDvb9+7lRWYxrFene7ZhtVpZeWIln+39jMiESOyMdvQt15dXy72Kvcn+nvumR0y8mY4zd3Hwwg1K5svBd6/XwM3xP3m8sAMwrynE34Ky7aDtHC3cJPdki8+biDwcfV5FspcH+czq8y0P6n7vmdjYWE6fPk3RokXTnIYrq/vtt9/44IMP+PHHH1NN+STyNMrqn2n9PyYiT6P0/O77ZN0RVu8I5henwbgRDa2mQcWXHnOkT470/n+jq+FZTN4cDo9UDv+OglndajV1C9Ul0ZLIl/u/pNP6Thy6euiRY3R2MDGrR2W8cjhy7OItBn0bjMXynxxefn/otACMdnBoBWz98JGPKyIiIiIi8jhcvnyZjRs3MmHCBNq3b6/Ei4iIiGQtESEQGpz0CNuPc8RfELY/aft/7Dx5lTk7TjPU7tukxEuBSlC+62MP+Wmk5EsWU6+k5z3L65e6d/md8rrm5Yv6XxBYOxB3R3dOhJ+g24ZuTNw7kZjEmEeKM38uZ2Z2r4yDnZEtRy4xactfqSs9Uz8piwqwcwr8PuORjikiIiIiIvI43Lp1ixEjRuDu7k6vXr1sHY6IiIjIvyJCYGplmFUHZtXBNKcepbf3wzSnXtL2OxIwN2MTGLJsP+UMp+hg92vSxiaBmqHoMdFZzmKKeOS4Z3lh93uX/5fBYKBJ0Sasbr2apkWbYrFa+Prw17Rf054/Lv7xKKFSqbA7n7YtB8DUn/9m1b7zqSuV7wwN/hn1suldOPL9Ix1TREREREQksz3zzDPs27ePefPm4ezsbOtwRERERP4VfQ0S49IuS4xLKv/Hx98fJvRGDOOcv8GIFfw7g0+VxxSoKPnylPBw8mB87fFMqT8Fbxdvzt06R+/NvRm9azSR8ZEP3W7bSoXoV+cZAIZ9d5A/zlxPXanmOxDwCmCFFX3g7M6HPp6IiIiIiIiIiIiI3Nv6A2Gs3HeBNqbfKGs5Dvau8MLHtg4rXRZuX0j5yeVZuH2hrUN5JEq+ZDUuecDOMe0yO8ek8kdQ16cuq1utpv2z7QFY9tcy2qxpw7bz2x66zf970Y/GZfIRb7bQd8Fezl6LSlnBYICmE8CvGZjjYEkXuHL8UbohIiIiIiLZlNVqJTo+8bE+rFbr/QMTEREReUJcuhnLe6sP4kIso1yXJ22sPQRy5rdtYPcRFhZGUFAQs47OwpLbwqyjswgKCiIsLMzWoT0UO1sHIP+R2wfeDEoxPCyZS56k8keUwyEHH1X/iCa+Tfho50ecjzxP/x/706xYM/6vyv/h4eTxQO0ZjQb+16kCobN2ceD8DXp//QcrX3+eXC72d1QyQbs5sKAlnP8DFraDV7Zk+Q+8iIiIiIhkHKvVSvsZuwg6G/5YjxtQxJ3l/apjMBge63FFRERE7ub01SiW7Q3hfHgMhdyd6RjgQ1FP10du14qVod8dICI6gUD3TeSIuQLuRaF6/wyIOnN99tlnzPphFr5DfAEIdwynbs+69G3Ul4kTJ9o2uIegkS9ZUW4fKFAh9SMDEi93ei7/c6xstZIepXtgNBhZf2o9LVe3ZPXfqx/4zjBnBxNzegSQP5cTJ69E8fqiIBLMlpSVHFygy7fg8QzcCIFFHSD2Zgb2SEREREREsjqlP0RERORpt2xvCA0m/sLMX0+yNvg8M389SYOJv7B8b8gjt73h4EW2/XWF4naX6RC3Omnji2PvPttSFmLFindbb6zmpGvTVvM/r8meo5g18uUp52znzNAqQ2ns25iRu0ZyPPw4H/z2AWtPruWDah/gm8s33W1553Tiq5er0GHGTnaevMYHqw8xrm25lHeXueaBl1bAVw3h0kFY1h26Lgc7h4zvnIiIiIiIZCkGg4Hl/aoTk2B+rMd1tjdp1IuIiIhkCaevRvHuigNYbucTDMbk58NWHKCKrwe+9xoB45IHq8kBgzk+VZHF6MCE7VcBD77KvxrDlXh4pj74NcnwfmSGej3rseXPLcmvDSYDLsVcqFepng2jenga+SIAlPMqx5LmSxhUeRBOJif2XNxDuzXtmLl/JgnmhHS3U7pATr7oUhGjAZb+EcLs7adSV/IoCt2WJy3ydOoXWDMANAeziIiIiMhTwWAw4OJg91gfSryIiIhIVrHsPqNbvr3f6JfcPhgG/Al9f4W+v2J+9WeO1JpBTM+tvOw2nTOJHrzuc44iV34Box00/jRpTe4szmq1sujsIgz/GSdtwMCis4uy5Rp+Sr5IMnujPb3L9mZlq5XUKFCDeEs8U4On0mFtB/Zd3pfudhqUyst7zUoDMG7jMTYfvpi6UoGK0HE+GExwYCn8ODKjuiEiIiIiIiIiIiKSJZ0Pj8FisaRZZrFYOB8ec/9G7ly2In95YnI/S+ABZ7Zfdiavi5HB5rlJ9Z7rC15+GRZ7ZkqwJHAx6mKqKcasWLkYdZEES/oHCGQVmnZMUvHJ4cOMF2aw4fQGAv8I5OSNk/TY2IMOz3bg7cpvk9Mh533b6P28L6evRrLw93O8vTSY5f2qU7ZgrpSVSjSEll/A9/1hx//ALS9Uez2TeiUiIiIiIiIiIiJiW4XcnTEa/51q7E5Go5FC7s4P3Oa+i3HM25l0A/w35Q9it+8vcPGEOsMeNdzHxsHkwNLmS7keez1VmYeTBw6m7LdshUa+SJoMBgPNijVjTes1tCneBoDlfy2n1epWbD6z+b7DvAwGAx+3KEOtEp7EJJh5Zf4fXLwRm7pixZeg/vtJzze9CweWZXRXREREREREMkVYWBjdu3enadOmtGjRgo0bN9o6JBEREcniOgb43LO8033K/+tqZBxT99wA4I0quXj2yNSkggYfgHPuhwnRZvK55qN0ntKpHvlc86WoF50QbaMIH4ySL3JPuRxzMer5Ucx9cS6+OX25GnOVIb8O4c2f3uRC5IV77mtnMjKtWyVKeLtx6WYcr8z/g6i4xNQVaw2Bqv2Snq9+HU5szYSeiIiIiIiIZCyTycSIESPYsGEDc+fOZezYsURHZ4+LASIiImIbRT1dGd/OH6MBjAbAakl+Pr6dP76eruluy2q1MmzFISLiLDyb1413jIsh7gbk84eK3TOvEzYSnRDNsG3DqLa4GpvPbLZ1OPel5IukS5V8Vfiu5Xf0K98PO6Md285vo/Xq1sw5OIcE893n28vpZM/cnlXI4+rA4dCbvLV0H+b/jqkzGODFcVC2PVgSYVl3OL83k3skIiIiIiLyaLy9vSlVqhQAXl5euLu7c+PGjQw9RlxcHCNGjCAgIICaNWsyd+7cu9aNj49n5MiRVKlShRo1ajBp0qQUsxbcr1xEREQejw4BPvw0uC6v1XmGFhUK8VqdZ/hpcF06POCol/k7z/DLX1ewN8LMumbs9i9KKmg2EYymTIjcdv4O/5vO6zuz4fQGjAYj7o7utg7pvpR8kXRzNDnSv0J/vmvxHQF5A4g1xzL5z8m0W9uO3WG777qfj4cLs3oE4GBnZOvRy4xcezj1H/hGI7SeDs80gIRoWNQerhy/a5sLty+k/OTyLNy+MKO6JyIiIiIi2cyVW3FcvhmbaQmEl156CT8/P/z8/ChbtixNmjRh7dq1adY9dOgQFouF/PnzZ2gMgYGBHDp0iPnz5/PRRx8xdepUNm3alGbdTz75hJ07d/LVV18xceJEli1bxrfffpvuchEREXl8fD1dGda4JFO6VGRY45IPNOIF4NjFm4zdeAyAl/1d8N39cVJBhZfA57kMjta21p5cS9cNXTl94zTezt7MfXEuz+XP+n1U8kUe2DO5n2Hui3MZW3MsHk4enL5xmld/eJVh24ZxJfpKmvtULuLO/zpWAGDBrrPM2X46dSU7B+i4AApWhphw+KYN3Difsk5ECOeP7GL9b7/he6s263/7jfNHdkFESAb3UkREREREsjKr1crlm7FcvBnL9aj4TGn/yJEjDBs2jB07drBx40Zq1arFsGHDCAlJ+f0jIiKCYcOGMWrUqAyNITo6muXLl/Pee+9RpkwZGjZsyKuvvsqiRYtS1Y2IiGDFihWMHj0af39/qlevTu/evdm/f3+6ykVERCT7iE0w89aSYOITLdTz86K73c8YLu4Hp1zwwse2Di/DxJnjGLVrFCN2jCAmMYZq+auxrMUyKuWtZOvQ0sXO1gFI9mQwGGjxTAvq+NRhyp9T+Pb4t2w4vYFt57fxZsU36ezXGdN/hrY1889PaEQpxmw4ypgNRymQ25lm/v+5K8zRDbouh3mN4epfSQmY3pvBxQMiQkicXIlC1niW3K6fCCxbTKLBAbu3/oTcDzY0T0REREREsieDwYB3TifCbsQQeiMWFwc7nB0ybnqNM2fOEBUVRa1atfDy8gKgffv2zJ8/n9OnT+Pjk/TdIz4+nv79+9OnTx8qVcrYCwHHjh0jMTGRihUrJm+rXLkyM2bMwGKxYDT+ez9lUFAQbm5uPPfcv3eB9u3bN93lIiIikn2M23CU45du4enmyPjG+fCY+1VSQb33wc3LtsFlkLM3zzL016EcvX4UAwZeK/8a/fz7pbrmnJVp5Is8kpwOOXmv2nssabaEMnnKEJkQyad7PqXL+i4cuHIgVf1XaxXl5epFABi0LJi9Z66nbtQ1D7y0EnIWTErALOoAcZFcCD2PnTXtO9rsrPGEhp5Ps0xERERERJ5Mnm4O5HCyx2q1cu56dOr1JR/B4cOHyZUrF8WLFwfg4sWL/O9//8PBwQE/Pz8gaXTMu+++S7Vq1WjduvVd25oxYwYVK1a85yM0NDTVfleuXMHd3R0HB4d/++zpSVxcHBERESnqhoSEULBgQVavXk3jxo1p0KAB06ZNw2KxpKtcREREsoefjl1i/q6zAEzsWB7P3eOxS4jEmrccBPS2cXQZY/2p9XRc25Gj14+S2zE301+YTv8K/bNV4gU08kUySBnPMixquogVJ1bw+Z+fc/T6UV7a8BLtn23PW5XeIpdjLiDp7rQPW5ThQkQsW49eos+Cvax4vQbFvNxSNpjbJykBM68xXNgLy3qwxeklet4jhh+OXqJn6UzrooiIiIiIZDEGgwEfd2dOXDYTl2gm7EYMhdxdMqTtw4cPc+vWLSpVqoTZbCYuLg4nJydGjhxJ3rx5gaTRJBs2bMDPz4+tW7cCSWu03E7O3Na5c2eaNGlyz+N5e3un2hYTE5Mi8QIkv46PT3ljWnR0NGfPnmXp0qWMGzeOK1eu8OGHH+Ls7Ezv3r3vWy4iIiJZ3+VbsQxdnnTDe+/ni1LH+QwEJ62JbWkSiMmUvS/3RydE8+meT1n19yoAKuetzKe1PiWfaz4bR/ZwsvdPQ7IUk9FER7+ONCjcgElBk1hzcg3L/1rO1rNbeSfgHVo+0xKjwYjJaOCLLhXoMut39p+/Qc95f7DyjRp4ujmmbNC7ZNIUZAtawskfueRY5p7Hv3QjNhN7JyIiIiIiWZGdyYiPuzOnrkZxPSoeN0c7crs43H/H+zhy5AjdunWje/fu3Lx5k8DAQCpVqkTbtm2T6wQEBHDs2LH7tpU7d25y5879wDE4OjqmSrLcfu3k5JRiu52dHZGRkUycOJGCBQsCEBoaypIlS+jdu/d9y0VERCRrs1isDF62n2tR8ZTKn5NhLxaHeS8AcNXnRdx9qto4wkdzIvwEQ34dwqkbp5KnGXvN/zXsjNk3haFpxyTD5XHOw5iaY5j34jyK5y5OeFw4H/z2Ab029eL49eMAuDjYMeflKvh4OHPuejSvzt9LTLw5dWM+VaDjAjDa4Rl59J7H9czx6F+wREREREQk+3Fzssc7R9LNXBfCY4hPTOO7xQM6cuQIFStWpEiRIpQrV46PPvqI2bNnc/78g093/LDTjuXNm5fw8HASExOTt125cgUnJydy5syZoq6XlxeOjo7JiRWAokWLEhYWlq5yERERydpmbDvJ9hNXcbI38kXnCjju/wbC9mN1zMmFUtl3HTer1cryv5bTZX0XTt04hZezF3MazaF/hf7ZOvECGvkimSggXwDLWixj4ZGFTN8/nT8v/0nHdR3p5NeJ/hX645UjF1/3eo62X+4kOCSCt7/dx5fdKmMyGlI2VKIhtJ5O4+/evefxmpTJn4m9ERERERGRrMw7pxORcWai4xM5dz2GYl6uGA2G+++YhpCQEG7evEmJEiWStxUvXhwfHx/WrVtHv379Hqi9h512rFSpUtjZ2REcHExAQACQNNVZuXLlMBpT3ktZvnx54uLiOH36NEWLFgXg1KlTycmW+5WLiIhI1hV09joTf/gLgFEty1LCLR5+HAWAte4IEh3cbRneQ7sVf4uRu0ay+cxmAJ4v+Dxjnh9DHuc8No4sY2jki2Qqe6M9vcr2Yk3rNTQs0hCL1cKSY0tosaoF3/31Hb55nJndIwAHk5HNhy/xyfojaTfk35GC9fpgtqb95clsdKBAgUKZ2BMREREREcnKjAYDhT2cMRkNRMcncunmw09LfOjQIezt7fH19U2xvXr16mzZsuWB28udOzdFihS558POLvW9kc7OzrRu3ZqPP/6YAwcOsHXrVubOnUuPHj0AiIiI4NatWwAUK1aMunXrMnz4cI4dO8b27duZNWsWXbp0SVe5iIiIZE0R0fEMWLwPs8VKqwoF6BBQCH78GGIjIG85rAHZc/rQA1cO0HFtRzaf2YydwY53Kr/Dlw2+fGISL6Dkizwm+VzzManuJGY3ms0zuZ4hPC6ckbtG0nVDVxxczzGxY3kA5v12hq92nE67kXrDMT33KqEWD75OaMR4j1F8XW4+oR03YRr4J+T2eYw9EhERERGRrMbBzkSh3M4AXLkVx63YhIdq58iRIxQpUiTVYvc1atTg8OHDXLx48ZFjTa/hw4dTpkwZXn75ZUaOHMmAAQNo1KgRAAMGDGDMmDHJdT/77DMKFy5Mly5dGDZsWPKaNektFxERkazFarXyf98dIPRGLL55XBjTphyGC0Hw54KkCs0+g2w2NVeiJZHp+6fTY2MPzkeep6BbQb5u8jW9yvbCaHiy0hUGq9VqtXUQWZXZbCY4OJgKFSpgMplsHc4TI8GSwNJjS/ky+EsiEyIBaFGsBXliOzPlxxAMBviic0ValC+QemerFTYMhT9mg8EEnReB372H70v2oM+bSPahz6tI9vIgn1l9vuVB3e89ExsbmzzN1X8XiM9M58OjuR4Vj53RSIm8btibnqwv8iK2YqvPdHrp/zERedJ8/dtpPl57BAeTkZVv1KBsfjeYXR/CgqF8V2gzPVv97gu5FcLw7cPZf2U/AE18m/B+9ffJ6ZDzPntmLek95/oLVB47e6M93Ut3Z12bdbQt0RYDBtaeWsu3l/pQxS8aqxUGL9vPzr+vpt7ZYIAmgeDfCaxmWPYynN72+DshIiIiIiJZVoFczjjZm0i0WDgfHoPuORQREZHs5tCFG4zdcAyA4U1LUrZgLgj6Oinx4pgLGo60aXwPwmq1svrv1bRf0579V/bjZu/GuFrjCKwTmO0SLw9CyRexmTzOeRhZYySLmy2mnGc5YszRHDWMJqfHSeLNFvp+E8ShCzdS72g0Qqsvwa8ZmONgSRc4v/fxd0BERERERLIko9FAYQ8XjAYDt2ITuBoZZ+uQRERERNItMi6RNxf/SbzZQsPSeelZwxeirsKPo5Iq1H8P3LxtGmN63Yi7weBfB/PBbx8QnRhNJe9KfNfyO5oXa27r0DKdki9ic2U9y7Kw6UJGPz+aPM7uWLzmYXI5SWRcIj3m/k7I9ejUO5nsoP1cKFoH4iNhYTu4dOTxBy8iIiIiIlmSk72J/LmSpkW6eCOO6LhEG0ckIiIicn9Wq5X3Vh3kzLVoCuRyYkJ7fwwGA2z5EGIjIG85CHjF1mGmy+9hv9N2TVu2nN2CncGOgRUHMvfFuRR0K2jr0B4LJV8kSzAajLQu3pp1bdbxctmu5PBZjNExjOtRibT4cjNnw6+l3sneCTovhoIBSb94vmkN10897tBFRERERCSL8nB1IJezPVasnLseTaLZYuuQRERERO5p+d7zfB8cisloYErXiuR2cYAzOyB4EWCA5v9LujE9C4tNjGXCHxPo80MfLkdfxjenLwubLqSPfx9Mxqy9Lk1GUvJFspQcDjkYWmUoK9ssplaVAxjsw4mIdKDhlJUsOPgtiZb/3K3m6AbdloN3GYi8BAtawY0LtgleRERERESyFIPBQCF3ZxzsjMSbtf6LiIiIZG0nLt3iwzWHAHin4bNULuIBifGw7p2kCpV7gk8V2wWYDgeuHKDD2g4sOLIAgA7PduDb5t9SxrOMjSN7/JR8kSypWO5ifN1sMp92LITJLob46AKMXH2B9t935LcLv6Ws7OIB3VeBRzGIOJc0Aibqqk3iFhERERGRrMVkNFLEwwWDwcBNrf8iIiIiWVRMvJn+i/8kNsFCrRKevF7nmaSCXVPg6nFw8YQXPrJtkPcQb47n86DP6b6xO2dunsHL2Yup9afyYfUPcbF3sXV4NqHki2RZBoOBTuXqsrRPHeztrJij/Dh0rCKvbXmdN7a+wamIO6YYy5EXenwPOQvC1b9gYVuIvWGbwCNCIDQ49SMixDbxiIiIiIg85Zwd7Chwx/ovUVr/RURERLKYj9Yc4q9LkXi6OTKpYwWMRgNcPw2/BiZVeHEsOLvbNsi7OHztMJ3WdeKrQ19hsVpoVqwZq1qtoo5PHVuHZlNZe3I4EaBKES9mdX+OV+f/QeKNSiTYRbHdsJ6doTvp6NeRN8q/QW6n3JC7MHRfDfOaQNh+WNwZXloBDo8xsxoRAlMrQ2Iad9PZOcKbQZDb5/HFIyIiIiIiQNL6L1FxZiJi4jl3PZoS3m7YmXQ/ooiIiNje8r0hLNt7HoMBJneugFcOR7BaYcNQSIwF31rg39HWYaaSYE5g1sFZzD4wG7PVjIeTBx9W+5AGRRrYOrQsQX9pSrZQz8+b8e3KAxB3rRY+lpcxW80sObaEpquasuDwAhLMCeD1LHRfCY654NxO+LYbJMQ+vkCjr6WdeIGk7dHXHl8sIiIiIiIPaOvWrQwfPtzWYWQKg8FAQXdnHO1MJJgthGj9FxEREckCjobd5IPvk9Z5GfTCszxf3POfgjXw9xYwOUDz/4HBYMMoUzt+/ThdN3Rlxv4ZmK1mGhVpxKpWq5R4uYOSL5JttK9ciGGNSwJw5HgpehWZxrPuz3Ir/hYT9k6gzZo2/HTuJ6z5/KHbMrB3hZM/wfKeSQtTiYiIiIjIXY0fP57PPvvsiU5ImIwGCnu4YDQYuBWbwJVbWv9FREREbOdWbAJvLEpa56X2s168Wa94UkHcLdg4LOn582+DZwmbxfhf8eZ4pgVPo/P6zhy7foxcjrmYUHsCE+tOxMPJw9bhZSlKvki20q9OMXo97wvA9C2RDPT7ko+rf0wepzycvXmWt35+i1d/eJXDLjmg61Kwc4K/NsLKV8Gc+fM6X4iIuWd56H3KRURERERsxd/fn48//tjWYWQ6ZwcTBXI7A3DpZiyRaaz/4ufnl+JRrVo13n//faKiojI9vilTptC9e3cAVq5cSf369TP9mCIiIvL4Wa1W3l1xkNNXo8ify4nPO/2zzgvAz2PhVhi4F4Va79g20DsEXw6mw9oOzNg/g0RLIvV86rG61WoaF21s69CyJCVfJFsxGAx80Kw0zf3zk2C28vqifRRzqs/6tut5tdyrOBgd2HNxD53Xd+b/zq3jSsvPk4bmHfkeVr8OFnOmxrfl6KV7lv9wn3IRERERkcz07bff0rx58xSPS5eS/kZt0qQJhiw2nUVmcXexx93FASsQcj2aBLMlVZ0pU6awY8cOtm3bxowZMzhw4ACBgYGPNc6mTZvy3XffPdZjioiIyOMxf+cZ1h8Mw85oYGrXSni4OiQVhO2H3TOSnjf7DOydbRfkP6ISohjz+xh6bOzBqRun8HDy4LM6nzG53mQ8nT1tHV6WpeSLZDtGo4GJHctTs7gn0fFmen39B+evWXir0lusbbOWFsVaYMDAxjMbabQ/kBUVWmI12sHBZbD2LbCk/mKVUS7duPf6MvcrFxERERHJTJ06dWLdunUpHnnz5rV1WI+dwWCgQG5nnG6v/3I9OtV0a7ly5cLLy4u8efNSoUIFXnvtNTZu3PhY43RycsLDQ9N3iIiIPGn2nQtnzIajAAxvWorKRdyTCixmWPs2WC1Qpi0Uf8F2Qf5j2/lttFrdiqXHl2LFSuvirVnTeg0v+r741Ny487CUfJFsydHOxMzulalYODcR0Ql0/2o3565FU8CtAGNrjWVZi2XUKFCDREsiH1/fw/t582HBAPu+gY3/B5k0j7WruxexVvs0y2Kt9ri6e2XKcUVEREREspP4+Pi7PhITE9NdNyEhIV1102IyGiicJ2n9l8i4RC7fZ/0XZ+eUd51eunSJgQMHUqVKFcqWLUubNm0ICgpKLl+wYAH16tWjXLlytG3blr179yaX/fXXX3Tv3h1/f39efPFFFi1alOYx75x2bPfu3dSvX5/FixdTq1YtKlSowNChQ1P0b8uWLTRt2pTy5cvTvn179uzZc88+iYiIyOMXHhXPm4v3kWC20qRsPnr/s8QCAEHzIPRPcMwJL461WYwA12Ov83/b/o/+P/bnUvQlCrkVYlbDWYx+fjS5HHPZNLbsws7WAYg8LFdHO+b1rEKnmb9z/NItXvpqN9/1q453TidKepRkZsOZ7Lywk0lBk1gTfhyLpwdjrl7D+MdsLHaOGBt9AhmcnW1Wqxov7JlILm6lKrtBDhbWqpahxxMRERGRp1t8fDxt27blgw8+oGrVqgDExcUxcuRIfvjhB5ycnOjduze9e/e2caQpjR1794sJJUqUoFu3bsmvJ0yYkCrJcpuvry89e/ZMfv35558THR2dqt7d1rJxsjdRMLczIeHRXLoZi4uDiRxOqW+mun79Ot988w0tW7ZM3jZkyBBy5szJ0qVLsVqtfPbZZ3z88cesXbuWI0eOEBgYyNSpUylevDgLFizg7bffZtu2bcTHx9OnTx/atGnD6NGjOXXqFB988AGurq60bt36rucF4PLly2zevJk5c+Zw+fJl3nzzTapUqULHjh05duwYw4YNY+TIkfj7+/Prr7/Sp08f1qxZQ5EiRe7ZroiIiDweFouVQcuCuRARg28eF8a39/939MitS7B1VNLz+h9Azvy2idFqYc3JNUzcO5GIuAiMBiM9SvfgjQpv4Gxn+ynQshMlXyRby+3iwDevPEf7Gbs4dz2a7l/t4dvXqpHbJWmOxBoFa1CtQDXWn1rPlH1TGGW18vG16xh3TeVc7FV8Ws7I0OFxRT1deatdfYatOACAxWLBaEwaYDa+nT++nq4ZdiwRERERebrFxcUxePBgTpw4kWJ7YGAghw4dYv78+YSGhjJs2DAKFChA48b3Xwi1atWqyUmcB2E2p722otlsxmq1Jj9u++8UX3dKq+7d6qe37r2Ol9vFnqh4B65HxXPuejTFvdwA6NOnDyaTCavVSkxMDLlz5+ajjz5KPsYLL7xAo0aNyJcvHwBdu3bltddew2q1cv78eQwGA/nz56dgwYK89dZb1K1bF7PZzNq1a/Hw8OCtt94CoEiRIrz22mvMnz+fVq1apThf/30kJCTw3nvvUaJECZ599llq1arFgQMH6NChA1999RUdOnSgefPmAHTv3p09e/awePFi3n333bv2X+RB3H4vms3mu37ubel2TFkxNpFHtWjHIibum8jgioPpVrPb/XeQLOnLX07yy/ErONoZmdK5Aq72xuTfWYZNwzHG3cCavwKWSj0hnb/LMvJ334nwE4zdM5Z9V/YB8Kz7s3xU7SPK5CmTYcd4EqT3PCj5Itmed04nFr1alXbTd3L80i16zvuDRa9WxdUx6e1tNBhp8UwLGvk2YsnRJUzaNo53Ll+k8L6lrLh6EL9WsyjrWTbD4ukQ4EMVXw++3RvC+fAYCrk70ynAR4kXEREREckwf//9N4MHD06VVIiOjmb58uXMnj2bMmXKUKZMGU6cOMGiRYvSlXx5WAcPHrxrmZ2dHTExMVjuWHvx7bffvmt9o9GYYvRK//7971rXYDCkqNu3b98066U1GuZOuR0gKtZAnNnKmauRAHzwwQeULZv0PSE8PJxly5bRpUsXli1bhoeHB61atWLz5s3s37+fM2fOcPToUSwWC9HR0VSqVInixYvTsmVLSpYsSZ06dWjbti3x8fEcP36c48ePU7FixeTjWywWTCYT0dHRJCQkJLcTHx+P1WolOjqauLikadG8vb2T++Pk5ERsbCzR0dGcOHGCv//+m2+//Ta53YSEBKpXr37f/oukV1xcHAkJCRw7dszWodzTvX4niWQ3V69e5cqVK0y/MR2Lu4Xph6ZjDDHi5eWFp6cWOs9ODl6O43+/hgPQu4Ib8ZdPEXw5qSznpd2UOLwCK0aOFX+N6AMP/nvsUX73xZpjWX1lNT9c/QELFhyNjrT2bk3DPA1JCEkgOCT4odt+min5Ik8EHw8XFr5alY4zdxEcEkHfb/Yyt2cVHO1MyXUcTY70LNuTGyXa8Ovq3tQ5upV2IYcJXNyMOeXaMKDiAJ7J/UyGxOPr6cqwxiUzpC0RERERkf/as2cPVatWZdCgQVSoUCF5+7Fjx0hMTExxYb9y5crMmDEjxajsjFauXDlMJlOq7bGxsZw9exZnZ2ecnJySt7u4uKS77cyq+19FHS38fTmSOHNSQsvHx4eSJf/9m75y5cpUq1aNX375ha5du9K3b19u3bpFkyZNaNiwIQkJCQwYMAAXFxdcXFz47rvv2LNnDz///DNr165lxYoVrFixAoPBQLVq1fjwww/TjN/e3h6j0YiLiwsODg4YDAZcXFxwdHQEIFeuf+dYv33OXVxcsFqt9OnTh1atWqVo08nJ6ZHOi8idjEYj9vb2FC9ePMVnOqswm80cPHjwrr+TRLKjoUOHMnvLbHyH+AIQ6RbJ6+Nfp0/DPkyYMMG2wUm6XboZy2sbd2IB2lYswODW5f6djSc+EuO2lwGwVn2NZ+t2eqC2H+V3n9Vq5ceQH5mwdwKXoi8B0MCnAUMDhpLPNd8DtfU0uX3O70fJF3liPJs3B/N6VqHbnN389vc1Bi7Zx7SulbAzpfyCmcsxF3U6reDmD++Rc+dU/u96BKMPraZtyM80L9acNyq8QUG3gjbqhYiIiIjI/XXt2jXN7VeuXMHd3R0HB4fkbZ6ensTFxREREYGHh0emxGMymdL8sm8ymTAYDMmPrMzBzoSPhwunr0YBEBmXmCLm21OQWSwWTp48yd69e9m1a1fyOV20aFFy3eDgYH7//Xdef/11qlevzpAhQ6hRowZ//vknRYsW5ccff8THxyf5nH3//fccPHiQ999/P8X5+u8DSBHTnduKFi3K+fPn8fX1TS4PDAykaNGidOjQIXNOmjx1br8X7/aZzyoeNb7QyFAACrgVyKiQRB6eAbzbemM1WzGYDFjNVrzbekMkWfpzKP+KT7QwYOl+rkbG45c3B2Pa+GN3xw3j/DoeboRArsIY678PD/lzfdDffSG3Qhi7eyw7LuwAoKBbQUZUHUHtQrUf6viSWubc9iRiIxULuzO7RwAOJiObD1/i3ZUHsVjSnt85Z8NPoOYgAD64Fk7LmzdZc3INzVc1Z+zusVyNufo4QxcREREReWQxMTEpEi9A8uv4+HhbhJSt5HCyJ1/OpLv5T4de5VxoGFeuXOHMmTOMGjUKs9lM/fr1yZkzJ0ajkfXr13PhwgU2bdrElClTgKTz7OTkxLRp01i+fDnnz59n/fr1REdH4+fnR8uWLYmNjeXDDz/k5MmT/Prrr4wZM4Y8efI8Uuw9e/Zkw4YNLFiwgHPnzvH111/z9ddfp0jGiMj9Wa1W2q9tT5OVTRjz+xhuxN2wdUjylKvXsx4uxVwwmP5JuJsMuBRzoV7PejaOTNLrk/VHCDobTg4nO2Z2r4yzwx0JkgtBsHt60vPm/wNHt0yPJyYxhunB02nzfRt2XNiBvdGe1/xfY3Wr1Uq8ZDAlX+SJ83xxT77oUhGjAb4LOs+YDUfTXmDTYIAGH0HV1wEYdTWcd0z5SLQksuTYEpqubMrkPyfrDy0RERERyTYcHR1TJVluv86KUwRlRV45kqb3+uzjYTSsV5eaNWvSunVrTp06xezZs/Hx8SFfvnx8/PHHzJ49m+bNmzNr1izef/997OzsOHLkCKVKlWLMmDHMmTOHJk2aMGPGDCZMmMAzzzyDm5sbs2fP5syZM7Ru3Zr333+fbt268dprrz1S3BUqVCAwMJDFixfTtGlTli1bxsSJE6lSpUoGnBWRp0tj38ZYrBaWHl9Ks1XNWHpsKYmWRFuHJU8hq9XKorOLMJBy9KgBA4vOLkr7epdkKSuCzrNg11kAPu9UIeWa0OYEWPMWWC1QrgOUeCFTY7FarWw6s4lWq1vx5f4viTPHUTV/VVa0XMGbFd/EyU5/K2Y0TTsmT6TGZfMR2L48Q5bv56sdp8npZM9bL5RIXdFggMbjwJKA4Y859Pr7D2rXG8qHkUc4cPUAcw7O4dvj39K7bG+6luyKi73mShYRERGRrCtv3ryEh4eTmJiInV3S170rV67g5OREzpw5bRxd9mAwGDh89Ch/X44kPtFCDid7fPO4pJo2rVOnTnTqlHJO9ubNmyc/b9WqVar1V24rU6ZMimnK7jRgwIDk523btqVt27YAVK1alePHj6eo++mnn6Z43axZM5o1a3afHorIvRgMBj6s/iGNfRvz6R+fciL8BGN2j2H5X8t597l3qZJPCU15fBIsCVyMuoiVlEkWK1YuRl0kwZKAg8nhLnuLrR26cIMRq5LWBRnYoAQNSuVNWWHXVLh0EJzd4cVxmRrLsevH+HTPpwRdCgIgv2t+3gl4hxeLvJjlp4bNzpR8kSdW+8qFuBmTwKh1R/jf1r9wdjDSt/YzqSsaDND0M7BaYe9XPPPzBBa2ns4v5V7li31f8HfE30z+czILjyykj38fOjzbIWv+xxYRAtHXUm93yQO5fR5/PCIiIiLy2JUqVQo7OzuCg4MJCAgAICgoiHLlymE0auKD9LIzGini4crJK5Hcik3g0q245OnIROTp8Fz+51jWfBnL/1rO1H1T+Sv8L3pv7k2jIo0YHDBY68HIY+FgcmBp86Vcj72eqszDySNrXp8SACLCTjFpwY8UN8dRxdedt0tHQWjwv9fprp2EX/65ieLFseDmlSlxXI+9ztR9U1lxYgUWqwUnkxO9y/WmZ5meONs5Z8ox5V9KvsgTrXfNokTFJTJxy1+M3XAMZ3sT3av7pq54OwGDFfbOxbD6deq1mUntFt+x8cxGpu2bxvnI83y651MWHF5AH/8+tCreCnuj/ePuUtoiQmBqZUiMS11m5whvBikBIyIiIvIUcHZ2pnXr1nz88ceMHTuWy5cvM3fuXMaNy9y7KZ9Ezg4mCro7E3I9mss3Y3GxN5HTOYv8/S8ij4Wd0Y4uJbvQxLcJU4Onsvyv5fxw9gd+Pf8rvcsmXbzUDBmS2fK55iOfaz5bhyEPwBx+DpeZzzGXBHAELgKz/ym0c4Q398K6QZAYC0XrQPkuGR5DgiWBpceWMj14OrcSbgHQxLcJgyoPIr9b/gw/3sNauH0hE/6cwNBKQ3mp1ku2DifD6dYneeK9Wb84b9RNGvHywfeHWbY3JO2KRiM0nQiVewFWWN0P06EVNC/WnDVt1vBBtQ/wcvYiNCqUkbtG0mJVC1aeWEmCJeHxdeZuoq+lnXiBpO1pjYgRERERkSfS8OHDKVOmDC+//DIjR45kwIABNGrUyNZhZUvuLg7kcUtaAyYkPJq4RLONIxIRW8jtlJv3q73PsubLCMgbQJw5jun7pydfFzBb9LtBRP616Kd9OHCX64WJcbBvEZz+FeycoPn/km4KzyBWq5Wfzv1E2+/bEvhHILcSblHKoxRfN/6awDqBWSrxYrVamX9qPpbcFuafmv9ErmGk5Is88QwGA0Nf9KPX874ADFtxgO+DL6Rd2WiEZpOg0stJi12teg0OLMfeaE9Hv45saLuB/6vyf+RxysOFyAt8tPMjWq5qyaoTq7T4noiIiIjYxPHjx6latWrya2dnZ8aPH8++ffvYvn07PXv2tF1wT4D8uZxwcbDDbLFy9lo0FsuTd2FARNLHz8OPuS/OZUKdCRR0K8jlmMt8tPMjOqzrwI4LO57IC4ci8mB+OHyRb+924/dtv09L+rfuu5AnjSUSHtLBqwfpuaknb/38FmdunsHDyYOPqn/EkmZLqJy3coYdJyOEhYWxYNsCLnIRgItcZMG2BYSFhdk4soyl5Is8FQwGAx82L03XqoWxWuGdZfvZdOhi2pWNRmj+OVTq8U8Cpi8c/A4AJzsnupfuzsZ2GxkSMAQPJw/OR57nw50f0nJ1S77/+3slYUREREREniBGg4HCHi7YGY3EJpg5Hx6tC6wiTzGDwUBj38asab2GIQFDyOmQkxPhJ3h96+v03dKXY9eP2TpEEbGRk1cieWfZ/vtXjLsFectB9Tcz5Lght0L48tyXdN/UnT8v/4mjyZE+5fqwvs162j/bHpPRlCHHyUgTPpvAqJ9GYTUn/U1lNVsZ9dMoJnw2wcaRZSwlX+SpYTAY+KRVWdpWLIjZYmXAkj/5+fjltCsbjdB8MlTsnpSAWdkHDq1ILna2c+blMi+zse1GBlcejIeTByG3Qnj/t/dp/X1r1p5cq2HHIiIiIiJPCAc7I0XyuGDAQERMAlci7zLlr4g8NRxMDrxc5mU2tN1Aj9I9sDfa83vY73Rc25H3drzHxai73PApIk+kqLhE+n0TRGRcImUK5LxPbQO0/AJMj7aWXHhsOOP3jKfN2jbsubkHAwZaF2/NujbrGFhpIG4Obo/Ufma65nYNl2IuGExJU64ZTAZcirlwze3JWjpByRd5qhiNBgLb+9OsXH4SzFb6fRPEzr+v3q0ytPgCKr6UlIBZ0QcOrUxRxcXehZ5le7Kx7UYGVR6Eu6M7Z2+eZcSOEbT+vjXrTq17LEmYCxEx9ywPvU+5iIiIiIjcm6ujHQVyOwFw8UYst2KzwNqPImJzuRxzMbTKUNa0XkMT3yZYsbLm5Bqar2rOpL2TiIiNsHWIIpLJrFYrQ7/bz4nLkXjncOTdxiXvvUO5DlCw0kMfLzohmjkH59BsZTMWHl1IoiWRcm7l+LbZt4x+fjT5XPM9dNuPg9VqJbJCJAZSrnVjwEBkhcgnaoSxki/y1LEzGfm8cwVeKJWXuEQLry7Yy94z19OubDRCiylQoRtYzbDiVTi8KlU1F3sXepftzaZ2m3ir0lvkcszFmZtnGL59OG3WtGH9qfWZOh3Z93/FEmtNO1sea7Vn9V+xmXZsEREREZGnhYerAx6uDgCcux5NXIJGu4tIkkI5ChFYJ5DFTRdTybsSceY45h2eR+OVjZkePJ3I+EhbhygimWTqT3+z4eBF7E0GvuxWCQ+v/GDnePcdag15qOPEm+NZdHQRTVc2ZfKfk7mVcIuSHiWZ0WAGg30H86z7sw/Zg8crwZLAtfhrWEmZZLFi5Vr8NRIsT84NLna2DkDEFuxNRqZ2rUifBXvZfuIqveb9waI+VfEvlDt1ZaMRWk4BqxX2L4bvXgGLGcq1T1XVxd6FV8u9SpeSXVh8dDFfH/6a0zdO8+72d/ky+EteKfcKLYq1wP4RhxX+1+HoHNSPm4C7ISpVWbjVlYrROTL0eCIiIiIiTyODwUCB3M7EJliIjk/k7LVonvF2w2Q03H9nEXkqlPMqx9eNv2b7he1M2TeFY9eP8eX+L1l8bDG9y/amc8nOONs52zpMEckgPxy+yMQtfwEwqlVZAnw9AA94Mwii/5lC6+JBWPPP+i5tZoC33wMdI8GSwJq/1zDjwIzkKQ0LuhWkf4X+NCvWDKvFSvCl4AzqUeZzMDmwtPlSrsemvhnew8kDB5ODDaLKHEq+yFPLyd7ErO4B9Jy3h92nr9P9qz0serUqZQvmSl3ZaIJWU8FggOBFSWvAmBOgQpc023a1d6WPf5+kJMyxxXxz5BvO3TrHRzs/Yvr+6fQq04u2JdriZOeUIX0p7OHGRoM3oWmMyjMakspFREREROTRGQ0GiuRx4e/LkcQmmgm5Hp20HoxBCRgRSWIwGKhdqDY1C9Zky9ktTAuexukbp5kUNIlvjnxDX/++tCvRLsNvzBSRx+uvS7cY9G0wAD2qF6HLc4X/Lcztk/RIiIEVryRtq/ASlE/7WmJazBYzG89sZHrwdM7dOgeAt4s3r/m/RpsSbbA3Jv0OMZP9RuLmc82X5adHywiadkyeas4OJr7qWYXKRdy5EZNAtzm7OXThRtqVjSZoORUqvZy0Bszq1+HPBfds383Bjb7+fdncbjNDAobg5ezFxaiLjNszjsYrGjPv0DyiElKPVnlQHQN87lne6T7lIiIiIiKSfvYmI0U8khIuN2MTuHwrztYhPbKwsDC6d+9O06ZNadGiBRs3brR1SFlG//79qVKlCgMHDrR1KJLNGA1GXvR9kZUtVzL6+dEUcC3AlZgrjNk9hharW7DyxEoSzE/O9DoiT5OI6Hj6LNhLVLyZqkU9+KB56bQr/vIpXPsb3PLBi5+kq22L1cLWs1tpv7Y9w7cP59ytc3g4efB/Vf6PDW030NGvY3LiRbI2JV/kqefmaMfXvapQqXBubsQk8NJXuzkcercEjBGafw5V+gBWWDMA/phz32O42LvwcpmX2dhuI+9XfZ/8rvm5FnuNSUGTaPRdI6bvn86NuLscMx2Keroyvp0/RkPSSBesluTn49v54+vp+tBti4iIiIhIai6OdhTMnTR10KWbsdyIyd4XUE0mEyNGjGDDhg3MnTuXsWPHEh0dbeuwsoQePXowfvx4W4ch2Zid0Y7WxVuzts1aRlQdgaezJxciL/DRzo9ovqo5y44vI94cb+swRSSdEs0WBizZx9lr0RTM7cyX3Sphb0rjMvuFINj5RdLz5v8DZ/d7tmu2mNl4eiPt1rRj0C+D+Dvib3I45OCtSm+xse1GupfujqPpHmvJSJajacdEgBxO9szv/Rw95u5h37kIus3ZzeJXq1G6QM7UlY1GaDoBTPbw+5ewfnDSFGTVXr/vcRxNjnQq2Ym2z7Zl/an1zDk4h7M3z/Jl8JfMPzyfTn6d6FG6B3mc8zxwHzoE+FDF14Nv94ZwPjyGQu7OdArwUeJFRERERCSTeLg6EJtg5mpkHCHXo3H0dsPJ3mTrsB6Kt7c33t7eAHh5eeHu7s6NGzdwcXGxcWS2V7VqVXbv3m3rMOQJ4GByoEvJLrQu3pplx5fx9eGvCY0KZfTvo5l5YCa9y/amXYl2GTZFuYg8mNNXo1h2x3W1jgE+FE3jutqnG4+x/cRVnO1NzO4RQB63NBIiifHw/ZtJs+eUbQclm971uImWRDac3sDsA7M5c/MMAG72bnQt1ZWXy7xMToc0rk9KtqCRLyL/uJ2AqeCTm4joBLrN+Z0joTfTrmwwwItj4fm3k15vehd++yLdx7I32tO6eGu+b/U9E2pPoIR7CaISoph7aC6NVzTm0z2fJi+g9SB8PV0Z1rgkU7pUZFjjkkq8iIiIiIhksny5nHB1tMNitXL2WhSJZst991m0aBH169enXLlydOjQgQMHDty1bv369fHz80v1GDlyZIp6ly5dYsiQIVStWhV/f39atGjBwYMHH6pPhw4dwmKxkD9//ofa/7/++OMP+vXrR82aNfHz82Pr1q2p6ixevJgWLVpQqVIlKlWqRKdOnfj111/v2a7ZbObzzz+nfv36+Pv788ILLzBt2jSs1n8Xw3yYdh+nKVOmpPrZNm7cOLk8vT//22bOnEm7du2oWLEi1atX54033uDUqVOp6mXk+0UenLOdc9LsGG038u5z7+Lt4s3l6Mt8uudTGq9ozPzD84lOeDJHni3cvpDyk8uzcPtCW4ciksKyvSE0mPgLM389ydrg88z89SQNJv7C8r0hKeqtCDrPnB2nAZjYsXzaN24DbJ8Il4+ASx5oEphmlQRzAiv+WkGLVS14b8d7nLl5hpwOOXmjwhtsbr+ZARUHKPGSzWnki8gdcjrZs+CV5+j+1R72h0TQbc7vLO5TjVL50/hFZzDACx+DyQG2BcKWD8AcB7WHpvt4JqOJxkUb08i3Eb+G/MqsA7M4dO0Qi44u4ttj39K0WFN6lulJCfcSGddJERERERHJMEaDgSIeLvx9OZK4RAvnrkdT1NMVg8GQZv0NGzYwbtw4Ro4cSfny5Zk/fz6vvPIKmzZtIk+e1CPgv/vuO8zmfxfSPXHiBL169Upxgf7GjRt06dKFqlWrMnv2bNzd3Tl79iy5cuV64P5EREQwbNgwRo8efd+6U6ZM4cKFC3z66af3rBcdHY2fnx/t2rXjzTffTLNOvnz5GDJkCEWKFMFqtbJ69Wr69+/PqlWrKFEi7e9Ds2fPZsmSJYwfP57ixYtz6NAhhg8fTo4cOejRo8dDt5sR0ntuAEqUKMG8efOSX5tM/46eSs/P/0579uyhW7dulCtXDrPZzKRJk3jllVdYv3598iimjHy/yKNxsnOiW6ludHi2A6v/Xs1XB78iNCqUz/Z+xlcHv+Kl0i/Rya8TuRyz/88mLCyM0NBQZh2dhSW3hVlHZ1HKpRQFChTIsESvyMM6fTWKd1ccwHI7d28wJj8ftuIAVXw98PV0Zd+5cIavSkpUD6xfnKbl7vLevXgItn+W9LzpBHD1TFEckxjD6r9XM/fQ3OSbrz2cPOhRuged/Drh5uCW0V0UG9HIF5H/yOlkz4Lez1G+UC7CoxPoNmc3xy7eYwRM/feg3ntJr3/6BH4eC3fcaZUeRoOReoXrsbjZYmY2nElA3gASrYmsObmGtmva0v/H/uy9uDfFHVwiIiIiIpI53n//ffr165di2+jRoxk6NOWNVrt378bPz48ypUvRqm4VOjSoSpOalSlZsuRdp6maN28eHTt2pF27dhQvXpyRI0fi5OTEihUr0qzv4eGBl5dX8uPnn3+mcOHCPPfcc8l1Zs+eTb58+Rg3bhz+/v74+PhQs2ZNChcunFxn3bp1+Pv7c/ny5eRtw4cPp0WLFty6dQuA+Ph4+vfvT58+fahUqdKDnbR7qFOnDoMGDaJhw4Z3rVO/fn3q1KmDr68vRYsWZdCgQbi4uBAcHHzXffbt20eDBg2oW7cuhQoVonHjxtSsWTPFSKL0tJuec5OZTCZTip+xh4dHcll6fv53+uqrr2jbti0lSpSgZMmSfPrpp4SGhnL48OHkOul5v8jj5WByoKNfR9a1XceoGqMo5FaI8LhwpuybQsPvGjJ+z3jCIsNsHeYjmTlzJnV71iXcMRyAcMdw6vasy8yZM20cmWRHGT2CatneEKyWtEeuWi0Wvt0bwqWbsbz2TRDxiRZeKJWXt194Nu3GzInwfX+wJELJ5lCmbXLR9djrfBn8JS9+9yJjd4/lYtRFvJy9GBowlI1tN/JKuVeUeHnCKPkikoZczvYseKUq/oVycT0qnq6zd3P84j3+6K7zf/DCP8O+fx0PP4564AQMgMFgoEaBGsxrPI9FTRfRsEhDDBjYdn4bvTb34qUNL7H17FbMFvP9GxMRERERkYfSrFkzfvvtNyIjIwGwWCxs3ryZZs2apahXsWJFduzYkfzYsPUXZi3fwKzlGyjybJlU7cbHx3P48GFq1KiRvM1oNFKjRg327dt337ji4+NZs2YN7dq1SzGy5qeffqJs2bIMHDiQ6tWr07p1a5YtW5aqT76+vskXOr/44gt27tzJnDlzyJEjB1arlXfffZdq1arRunXrdJ+rzGA2m1m/fj3R0dFUrFjxrvUqVqzI77//zunTSdO/HDt2jKCgIGrXrv1A7d7v3GS2s2fPUrNmTRo0aMDgwYMJDQ1Ns97dfv73cjt5dOeolvS8X8Q27I32tCnRhrVt1jKu1jj83P2ISYxh4dGFNFnZhHe3v8vx68dtHeZD6du3L3Xeq4PVnHStxGA1UO+DevTt29fGkUl2EhYWRlBQUIoRVEFBQYSFPVpy8nx4DFbS/r1qBc5ei6LfwiAu34qjhLcb/+tUHqPxLr+Hd02BsGBwygXNJoLBwLmb5/jk90948bsXmb5/OuFx4RR0K8iIqiPY2G4jPcr0wMVea6w9iTTtmMhd5HK255veVXnpq90cvHCDrrN/Z0nfajyb9y5/fNd8O2kKss3DYcckMMdDo0+SRsc8BH8vfybVncTZm2eZf3g+3//9PQeuHmDQL4PwzenLy2VepsUzLXA0pbGol4iIiIiIPLSqVauSK1cufvrpJ1q2bMnevXtJSEjg+eefT1HPwcEBLy+v5NdeQI5csVy8GcuVKDOuzgnkcLJPLg8PD8dsNqeaXixPnjxprsvxX1u3buXWrVu0adMmxfaQkBCWLFlCr1696NevHwcPHuSTTz7B3t4+ua7BYGDQoEEMHDgQT09PFi5cyKJFi8ibNy8AQUFBbNiwIcWaLIGBgfj5+aU41t69e+nTpw8ACQkJWK1WNm/eDCSNqAgICLhvP+7m+PHjdO7cmbi4OFxcXJg2bRrFixe/a/2+ffsSGRlJkyZNMJlMmM1mBg0aRMuWLR+o3fudm549e3Ls2DFiYmKoXbs2kydPTjMp9DDnxt/fn3HjxlG0aFGuXLnCtGnT6NatG2vXrsXNLeXdz3f7+d+NxWJh7NixVKpUiWef/fcO7fS8X8S27Ix2NC/WnGZFm7ErdBdzD89ld9hu1p9az/pT66lRoAa9yvaiar6q6U7E2VrQtSDOxp3FYEqK12qwcjrmNEHXgihQoICNo5Ps4rPPPmPWD7PwHeIL/DuCqm+jvkycOPGh2y3k7ozJaMCcxn3URqORE5ciOXE5klzO9sx5OSDF/+0pXPkLfh6X9LzxpxyIvczXQYFsPbsVK0mNl85Tml5levFCkRewM+rS/JNOP2GRe8jlYs/CV6rS7avfOXThZlICpk81StwtAVP9DTDZw4YhsGtqUgKm8XgwPvwgsyI5i/Bh9Q95o8IbLD66mKXHl3Lm5hlG7hrJ1H1Tean0S3T066gFuEREREREMojRaKRJkyZs2rSJli1bsnHjRho2bIi9fcqLLXdebL+TxWplxNj/YaxQieJebjjam1LVeRgrVqygdu3ayUmB26xWK2XLluWdd94BoHTp0pw4cYKlS5emuJher149ihcvzrRp05g7d26KNU8CAgI4duzYfWMoW7Ysq1evBuCbb75JXrgdSBXXgypatCirV6/m1q1bbN68mWHDhrFw4cK7JmA2btzI2rVrmThxIsWLF+fo0aOMGzcOb2/vFP1OT7v3Ojdff/11uuJ/mHNTp06d5OclS5akfPny1KtXj40bN9KhQ4cUde/287+bkSNHcuLECRYvXpxie3rfL2J7BoOBGgVrUKNgDY5cO8LXh75m89nN7Azdyc7Qnfi5+9GtVDeaFG2Ck52TrcO9K6vVyoRdE7DaWzHcMVrAakna3rxs82yTRBLbsmLFu603VrMVg8mA1fzP68hHm6a/Y4APM389mfYxrXDiciQmo4Evu1WiSB7XtBuxmJOmGzPHcbVgBQaHbuLP/eOSi2sVrEWvsr0IyBug9/tTRNOOidzH7QRMmQI5uRoZT5fZv997CrLn+kCLLwAD7JkFawck/QJ+RJ7OngysNJAt7bcwNGAoeV3yci32GpP/nEzD5Q35dM+nhNwKeeTjiIiIiIgING/enB07dhAZGcmWLVtSTTkG/15sT/VYtZqy5cphtlg5cy2aRHPSPPLu7u6YTCauXbuWop1r167h6emZqv07XbhwgZ07d9K+fftUZV5eXjzzzDMpthUrVizV9FXbtm3j1KlTWCyWVKNv0svJyYkiRYpQpEgRcuXKhaura/JrJ6dHu/jr4OBAkSJFKFu2LIMHD6ZkyZIsWLDgrvUDAwPp27cvzZo1w8/Pj9atW/Pyyy+nWkMiPe1mlXOTM2dOfH19OXfuXIrt9/r5p2XUqFH88ssvzJ8/n3z58qUoS+/75WmW0etJZITSeUoTWCeQ9W3W07VkV5ztnDkefpwPd35Iw+8a8nnQ51l2XZgESwLkIEXiBf55neOfcpF0qNezHi7FXJJHUBlMBlyKuVCvZ71Hareopyvj2/ljNIDRAFgtGA1gAG6ndUa3Ksvzxe/+f3XUb5/D+T1EG410MV7mzyv7sDPa0eqZVqxsuZIvX/iSKvmqKPHylNHIF5F0yO3iwKJXq9J19m6OhN2k86xdfPNKVcoWzJX2DpVfTpqC7Ps3YN9CiIuEtrPBzuGRY3G1d6VHmR50KdWFTac3MffQXP6O+JtFRxex+Ohi6heuT/fS3ankXUm/0EVEREREHlL58uXJmzcvs2fPxmq1prnA+e2L7WlJMFv4+3IkcYlmzl2PxtfTFQcHB8qUKcOuXbt44YUXgKSpoXbt2sVLL710z3hWrlxJnjx5qFu3bqqySpUqJa97ctuZM2coWLBg8uvDhw/z9ttvM2bMGFatWsXkyZP54osv7ncabMpisRAfH3/X8tjY2FTfeUwmE9b7rL/533az0rmJiooiJCQkxXR2cO+f/52sViujR49my5YtfPPNN/j4+KSqk573y9MqLCyM0NDQFOtJlHIpRYECBcifP7+twwOgUI5CDK86nDcqvMGqE6tYcmwJoVGhfHXoK+YdnkeDwg3oWrIrlfNWzjLXBBxMDixruYzrsddTlXk4eeBgevRrJfLks1qtLDq7CAOG5Cm8AAwYWHR20SOPoOoQ4EMVXw++3RvC+fAYHEwG1u4PJd5spffzRelatXCa+x25doTNQV/y+q6kZO1n7rmId/OmT4l2dPLrRF7XRxsVKtmbki8i6ZTbxYHFfary8tw97D+ftAbMN69UpbxP7rR3qNAFHFzgu1fgyGpIiIaOC8DeOUPisTfa0+KZFjQv1pxdobtYcHQBv134jR/P/ciP536kdJ7SdC/dnRd9X8TeeJe5KEVERERE5K6aNm3KvHnz6NChAybTg00dZm8y4pvHlZNXIomMSyQsIpaC7s706tWLYcOGUbZsWfz9/Zk/fz4xMTG0bds2ed+FCxf+P3v3HR5F1TZw+Dfbkt303iEJJYQSAoSONBVpIh0VUBDs5dXXgmJFX0XEhu0DEZEmgqCoSEdAaoBA6D0B0ntv2+b7Y2UhJoEQUsm5rysXuztlnwmZ2T3znPMcNm/ezKJFiwBLsuCXX35h+PDhqFRlm/EPP/wwDzzwAHPnzmXQoEEcPXqUlStX8u677wIQHx/P448/zhNPPMHQoUMJCAhg3LhxnDhxgjZt2lT59/Pss89War2CgoJSIzni4+M5deoUTk5O1rkePvnkE3r37o2Pjw8FBQWsXbuW/fv3s2DBggp/L/369WPu3Ln4+vpay44tXLiQUaNGWbe50X7r+ncza9Ys+vXrh6+vL6mpqXz55ZcoFAqGDh1qXedG///X/l5mzJjB2rVr+eabb7CzsyMtLQ0ABwcH6+ibG/29NGbz5s3jk9WflJlP4sVRL/LOO+/UaWz/5mTjxKS2k5jYeiI74nfw46kfiUyOZPOlzWy+tJmWLi25v9X9DA4ajJ26gjJJtcjbzhtvO+8brygIFTCYDSQXJJdKvIClFFlyQTIGs+GWE3mB7nZMG9iKxOwi7vt6N3qTTP9Wnrw+JLTUenqTnq2Xt/LjqR85mnqYH5JSsJVljjm4Ej7oM6YFDRJzNAuASL4Iwk1x1mlYMrUrkxceIOpSFuO/i2TRI53p1NS1/A1a3wcP2sFPE+DcJlg2Bh5YDjYVzBlTBdfWgL2QfYElJ5ewNmYtJzNO8trO1/gs6jMeaPUAY1qOwcmmgpE6giAIgiAIgiCUMXjwYObOncvgwYOrtL1WoyTAVceljAIyCkqwUSsYPHgwmZmZfPHFF6SlpREaGsp3331XquxYVlYWcXFXSwrv2bOHxMTEUkmFa4WFhfHVV1/x6aef8vXXX+Pv78/06dMZNmwY2dnZTJ06lf79+/PYY48BllE9vXv35tNPPy2V3Kgpx48f56GHHrI+nznTUgN/xIgRfPjhh4Cl9Nq0adNITU3FwcGBkJAQFixYQM+ePa3b/fv38sYbbzBnzhxmzJhBRkYGnp6ejBs3jqefftq6zvX2Wx9+N8nJyfz3v/8lOzsbV1dXOnXqxMqVK3F1vdrGvNH//7W/l+XLlwMwceLEUuvMnDnTmuC73t9LY3ffffexK3AXyaZkS1kjGbq91I37wu6r69AqpFQo6d+kP/2b9Odc1jl+PP0jay+s5WzWWd7d+y6zD8xmcNBgxrQcQxv3qicUBaGuaZQafhr6U42PoCooMTJ10UHS8koI8XJgzv3hKP8pmRebE8vqs6v5/cLvZJVkATA5t4AOJXpMah1tH9lOO5fyR8QKjZMk32g8biNmMpmIjo4mPDz8pns5Cbe3/BIjU344QGRsJjqNku8ndaZb8HXqAl/aA8vGgj4P/DrB+FWgqyBhUw0yizP5+czP/HTmJ9KL0gHQqrQMazaMCaETCHQKrLH3ripxvglCwyHOV0FoWG7mnBXnt3CzbvQ3U1xcTGxsLEFBQbc8H0hd2L17N2+++SZbt269pVImqXnFJOcUIyER6K7DwVaMTBcapvp+Tt/q59gTs55gt/fuMq/3TO7J3GlzqyPEWpFTksOa82tYdXYVF3MvWl8PdQ1ldMvRDA4ajL3Gvu4CFIR6ymyWeXxpFJtPpuBur+HXp3ri6aRk86XNrDq7iqiUKOu6nlpPpnr34v4d3yCZ9DDsS+j40HX2XnPEd/jaV9nfuaI63zQtLY3MzLLZR0G43djbqPhhchfuaOFOod7EpIX72XUuveINmvaAh38HrQskRMEPQyE/tcbic7V15fH2j7Nx1Ebe7/U+rVxbUWQsYsWZFdy75l6e2vIUuxJ2YZbNNRaDIAiCIAiCUJZoMzUMqamprF+/ntmzZzN69OhbnjfBw94GF50GGZnLmYUUG0zVFKkgCNVFlmXSWqYh8a9J4ZFIa5l2w7mE6hMnGycebvMwvw//ne/v+Z7BQYNRK9ScyjzFe/veo//P/Xl7z9tEp0Y3qOMShJo2a+NpNp9MQaNS8OZwL348/yX9V/bntZ2vEZUShUJS0Me/D1/2/5KNI//kgdM7LImXFgOgw8Qbv4HQ6FQ5+RIdHW0dKizLMi+88AK9e/emV69e/O9//6u2AAWhvtJqlMx/KIJ+IR4UG8w8sugA205fJ6Hi1xEmrQN7L0g9Ad8PhOy4itevBhqlhmHNhrFy6Eq+v+d7+vr3RUJiZ8JOntzyJPf+ei+LTywmV59bo3EIgiAIgiA0RqLN1HDl5eUxffp0XFxcmDx58i3vT5Ik/Fy06DQqTGaZixkFGEyiI5Qg1CcGs4EMfUa580lk6DMwmA11FFnVSZJEZ+/OzOo9i7/G/MXLES8T5BREkbGIX879wsT1E7l3zb3MOzKPhPyEug5XEOrUyoNxzNsRA4B/8HbeiBrP0lNLydXn4mPnw9PhT7Nx1Ea+uvMr+gb0RbX7S0g8DLZOcO8XcIsdNYTbU5XKjh06dIhJkyahVCo5fPgwa9eu5aWXXrq6U0ni3XffZcyYMdUa7K3asmULW7dutTaAbkQM2RIqo8Ro4tkfD7PpZApqpcRXD3bknjbXmUQu4wIsHg45l8EpAB76Ddya1Vq8l3Mv89OZn1hzbg15hjzAUpJsSPAQ7g+5nxDXkFqL5VrifBOEhkOcr4LQsIiyY3WjobaZbtbtXnasuhlNZs6n5aM3mtFpVAS726FQiJs1QsNR38/pW/0cSy5IrnA+idtlsnhZljmcepjV51az+dJmioxF1mURXhEMazaMu5veLcqSCY1GiamEeZF/8dkfRmRZgcZ9KzYem1EpVPTx78PolqPp7tMdpeKaa0ryMfi2H5gNMOJbaD+u7g4A8R2+LtRo2bFvvvkGvV6PUqkkJyeHP//8E0mS6NmzJ23atEGWZVavXl3l4GvCrFmz+Pjjj8VwSqHa2aiUfD2+I0PCfDCYZJ5edoi1RxMr3sCtGTyyHtyaQ06cZQRMyolai7eJYxNe6fwKW8Zs4a3ub9HCpQVFxiJWnV3F6D9GM2nDJDZe3Ngge/UIgiAIgiDUFw2xzSTUPJVSQaCbHUqFRKHeSFxWoWijCkI94m3nTWu31mV+bpfEC1iS/x29OvJ+r/fZPnY77/d6n64+XZGQOJhykLf2vEW/lf2Y9vc0/o7/G4NJ3BsQbj8ms4kDyQd4Z8879Fo0mk/X5iPLClQOR+jUKpnpXafz15i/+Lzf5/Ty61U68WLUw69PWBIvrYZC2Ni6OxCh3lNVZaPjx48jSRIzZ87E0dGRgwcPAjBjxgySk5OZMGEC58+fr9ZAb1VYWBh9+vRhzZo1dR2KcBtSKxXMGReORqng18MJPLf8MMUGM6M7+Ze/gZM/TN4AS0ZAyjFYOBjGr4KAzrUWs06tY0zLMYxuMZqolCh+OvMTWy5tISoliqiUKDy1nowJGcPolqNx17rXWlyCIAiCIAi3g4bYZqo1sgyGwtp9T7Wu3pQDsVUraepmR2x6ATlFBpJzi/Fx0tZ1WIIgNEI6tY5hzYYxrNkwkvKT+DP2T347/xsXcy+yLnYd62LX4aBx4M4mdzIwcCBdfLqgVqjrOmxBqBKzbCY6NZqNFzey+dJm0orSMBvtKbz4FJh1+LgVs3DyOFq5T7/+jnbMgpTjoHWFoZ/Vm+8XQv1UpeRLXp6lVFHr1q05d+4ceXl5uLu74+/vb+21o9frqy/KSlqxYgVLliwp9dqCBQvw8vJi0KBBREZG1npMQuOhUir4eEx7NEoFKw7G8dLPR8grNjC5Z1D5G9h7wKQ/YNkYiD8Ai4fB2CXQ4q5ajVuSJCK8I4jwjiClIIVV51bx85mfSS1K5evor5l3dB53N72bsS3H0smr0y1PNioIgiAIgtAY1Nc2U52TZfj+Hoir5bZZQDd4ZEO9uUFib6PC30VLXGYhaXklaJQK3Oxt6josQRAaMR97H6a2m8qUtlM4kXGCPy78waZLm0gvSmfN+TWsOb8GZxtnSyImaCARXhGoFFW6rSgItcYsmzmadpSNFzey6dImUguvztVsp3TFkPQUBQZ7mrrq+OXJu278WZwQBbs+szwe+hnYe9Zg9MLtoEpXSa1WS0FBAZmZmURFRQEQEREBwJkzZwBwd6/9nvLjxo1j3Li6rbEnNG5KhcTMke2ws1Hx/e5YZvxxkrxiI8/2b15+0kLrYpnzZcVEuLAVlo+DEfOg3ejaDx7wsvPi6fCneazdY2y+tJnlp5cTnRbN+tj1rI9dT5BTEKNbjOa+5vfhZONUJzEKgiAIgiA0BPW1zVQ/1I8ESF1z0WnQG82k5BaTmF2EWqnAUSt6lAuCULckSaKte1vaurfllc6vcCj1kHWkQGZxJqvPrWb1udW42rrSN6Av/QL60c2nG7aq+jcHkNA4GcwGDqUcYnvcdrZc3kJyQbJ1mb3anv5N+nN3kwEs+UvL1uw0nHVqFk7ufOPEi6EYfn0SZBO0HQVthtfocQi3hyolX1q0aEF0dDRvv/02qampSJJE7969OXDgAG+99ZblQt22bXXHKggNgkIh8ebQUJy0aj7bcpZPN58lp8jAG0NCy0/AaOzggZ9gzZNwfBWsngqFmdD1sdoP/h9qpZrBwYMZHDyYkxknWXlmJeti1xGbE8vsg7OZc2gOAwIHMLrlaDp6dhSjYQRBEARBEP5FtJkqIEmWESiNuOzYtTwdbNAbzWQV6rmcWUgzDzu0GtGTXBCE+kGpUNLZuzOdvTvzapdXOZhykA2xG9hyeQuZxZn8cu4Xfjn3C1qVlu4+3enXpB99/PvgYutS16ELjUy+Pp9dibvYdnkbOxN2kqfPsy6zU9vRL6Af9wTeQw/fHqgVamb8cZKtpy+iUSn47qEIgj3sb/wm2/4H6WfA3gsGf1yDRyPcTqr0rW7cuHEcPnyYU6dOIcsyrq6u3HPPPezYsYPMzEyUSiWPPPLILQen1+sZOXIkb775Jl27dgWgpKSEGTNmsGnTJmxtbXnkkUeq5b0EoTpJksR/7mqBo1bFjD9OsmBXLHnFBmaODEOpKKfRp9LAyPmgc4X938L6l6EwA/q+WueNxNZurXmnxzu8FPES62LX8fPZnzmdeZq1MWtZG7OWYKdgRrcczbBmw8RoGEEQBEG4RUn5SSgVSjx1ooRBQ1dbbaYGSZIsHZAEJEnCz0WLwWQmv8TIxYxCmnnYo1Ep6jo0QRCEUlQKFd18utHNpxuvd3udA8kH2HZ5G9vjt5NckMxfcX/xV9xfKCQF4R7h9G/Sn15+vQh2ChYdNoUaEZ8Xz66EXWyL28b+5P0YzUbrMhcbF/oE9KFvQF96+fXCRnl1VMt3O2P4Yc9FAD4bG05EoOuN3+zSXtjzleXxvXMs9+8EoRKqlHwZPnw4OTk5rFq1CmdnZ1555RXs7OwIDg7G0dGRt956i/Dw8FsKrKSkhBdffJFz586Vev2jjz7i+PHjLFq0iMTERKZNm4avry8DBw684T67du1qTeIIQm2Y3DMIB1s1r6w6wsqD8eSXGPlsXDg2KmXZlRUKGPQR6Nxh+wew40MoTLe8pihn/Vpmr7FnbMhYxrQcw4mME/x89mfWx64nJieGjw58xOdRnzMgcABjWo6hg2cH8eVKEIRGb+nOpcw+NJuXO77MhDsm1HU4Qj1WbCxm86XN/Hr+Vw4kH8BR48iu+3eJz9IGrjbaTI1dicFEZqEeg1FGrZJw1WmwUdf99+abpZAkmrjpiEktoNho4mJGAc087FAqRAJGEIT6Sa1Q08O3Bz18ezBdns6pzFNsi9vGtsvbOJN1hkOphziUeoiPD36Ml86Lnn496enbk64+XUWnTaHKCg2FHEg+wO7E3exJ3MOl3Eullgc6BtIvoB/9mvQjzD0MZTn30tYfS+L9dacAmD64FUPCfG78xsW58OtjgAzh4yFkUHUcjtBIVHk888MPP8zDDz9c6rXmzZuzfft2dDrdLQV1/vx5XnzxRetElFcUFhby888/M3/+fNq0aUObNm04d+4cy5Ytq1TypapMJlON7Vu4/Y0I90Gnlnh+xRHWHUsmr/gg3zwYjq6icgJ3vISkdUVa/zLSge8wF2QgD/8/UGpqN/DrCHUJ5a2ub/FChxdYf3E9q86t4mzW2VKjYUY0G8GQ4CG42lauN8CV80ycb4JQ/4nz9cZkWWZRzCLMzmYWxSzi/u73ixvpQimyLHMy8yRrLqxhfex68g35AEhI9A/oj9lsrrb3uplzVpzX1asm20yNXWaBnoQsS+kyGcssMul5Jfi56HC1qz/fmytLpVAQ6K7jfGoBxQYTlzIKCXS3QyE+OwRBqOckSaK1W2tau7Xm6fCnScxPZFvcNv6O/5uDyQdJKUyxlidTSAraubejp29Puvt2p417G9QKMdeVUD6zbOZs1ll2J1iSLYdSD5Ua3aKUlLT3aE/fgL70DehLkFPQdfcXdSmL51dEI8swsVtTHr0juHKBbHgVsi+DcxMY+OGtHJLQCEnyvzMcVWQymTh27BgqleqWaxf/+OOPXLx4kRdeeIHw8HAWL15M165dOXToEBMmTCA6OhqNxvKFOjIykkcffZTo6GgU1dwzyGQyER0dXa37FBqvIyklzNqdTYlJppWbmum9XLDTVPw365K4ncBDH6CQjeS6d+JC53cxq7S1GHHlybJMbFEs2zK3EZkTiV7WA6BESXuH9tzhcgftHNqhkkT9akEQbn9nzpxhd+Ju/vb42/pa77Te9PTtSUhISB1GJtQH+cZ89ubs5e+sv4krjrO+7q525w6XO+jl3As3jVsdRmgRHh6OUtnwRhDUd9XZZqovrrSZKvqbKS4uJjY2lqCgIGxtq2cy5hKDibMpeZTXkJWAll4OtTYCJikpiVdeeYWMjAyUSiVPPfUUgwZVvUdsod5ITFoBZlnGRafB30UrkvdCvVIT53R1utE1SahdxcZiolKi2JWwiz2Je4jJiSm1XKvS0tGzIxHeEUR4RYhkTCNnMps4m3WWgykHOZB8gKiUKHL1uaXW8bP3o4dvD3r69qSLTxccNA6V2vfF9AJG/t8eMgv03NnKk3kTO6FSVuI+8snfYeVEQILJ66BpjyocWc0T177aV9nfeZXvhG7atIk///yTOXPmoNfrmTRpEocPHwagb9++fPnll6hUVdv9gw8+WO7raWlpuLi4WBMvAO7u7pSUlJCdnY2ra83U22vXrp34wxVuWTjQtlUWUxdHcTrDwIf7i1g4KQJ3e5sKNghHDglD/vlhHNOjCD/yJuYHVoCu7m/IlKcDHRjJSPL0eay/uJ7fLvzGiYwTHMo7xKG8Q7jZujEkaAj3NbuPZs7Nymx/5WaEON8Eof4T5+v1vfDfF0jom4DWVYuklJBNMhvyNnBs3jG2/bWtrsMT6oDJbCIyOZI1F9awLW4bBrMBAI1CQ/8m/RnRbASdvTujkGqmxNDNnLNX1hWqR022mRqzzEL9DZf7ONVOpyWlUsn06dMJDQ0lLS2NkSNH0qdPnyqPbNJpVDRx03EpvZCsQj0qpVRrxyIIglDdbFW2lpJjfj0By9x2V0pG7U/eT05JDrsTd7M7cTdgScZ08OxAZ+/OdPTsSGu31tiq6l+ST6geBrOBs5mWZMvB5INEpUaRp88rtY5WpaWLdxdLwsWvJ00cmtx0p4SM/BIm/3CAzAI97fyc+PLBDpVLvOQlwx//sTzu9Xy9TbwI9VuVvun/9ddf/Oc//0GtViPLMr/++iuHDh2yLt++fTuLFy+u9gkki4qKSiVeAOtzvf76X8BvhVKpFDeXhGrRJdidnx7rzkPfR3IyKY8H5u9nydSu+DlX0KBqeTc8/DssG42UeAjloiEw8Vdw8q/dwG+Cs9aZB0If4IHQBziXdY4159ewNmYtGcUZLD61mMWnFhPmHsbwFsMZGDiwTC8Fcb4JQsMhztfyTX1vKrNjZ1ufS0oJXbCOqXdOFb+vRiY+L57fLvzGmvNrSC5Itr4e6hrKiBYjGBw0uFbrnotztnbVVZupMTAY5XJHvYClBJnBWC3FHSrF09MTT09PADw8PHBxcSEnJ+eWyso52qrxc9ESn1VIWl4JZqOBrz/5kE2bNmFra8sjjzxS4d9NRkYGM2bMYM+ePbi4uPDkk08ycuRIAH755Rdee+21MttIksTp06erHK8gCEJl+dj7MLrlaEa3HI1ZNnMu65z1xvvBlINkl2SzJ3EPexL3AKCSVLR0bUl7j/aEeYTR3r09/g7+YkRgA5VckMzRtKOWn/SjnMw4SYmppNQ6dmo7awIuwiuCULfQWxoNVVBi5JEfDhCbXoCfs5YFkyIqngbgWrIMvz0DRZng3Q76Tq9yDELjVqXky8KFC5FlGRcXF/Lz89m4cSOSJHHfffeRnp7Orl27WLt2bbU3JGxsbMokWa48r4/DXQWhPK19Hfn5iR5M+C6SmPQCRn2zh0WPdCHEu4Khkv4R8MhGWDIC0s/Cd3fDhFXg1aZ2A6+CFi4teLnzyzzf6Xl2xu/k1/O/sjN+J0fTLR+0H+3/iLua3sXw5sPp6NGxrsMVBEG4ZbIssy53HRIS194alJBYl7uOifJE0Vi8zeXqc9l0cRN/XPiDQ6lXb7Q7ahwZEjyEEc1HEOoWWocRCrWlrtpMjYFaJSFBhWXH1Krqu85OmDCBAwcOWN5XrSYgIICnnnqKe++9t8y6x48fx2w24+NTicl7b8DVToPRZCY5t5iPPvqI8yeOsWjRIhITE5k2bRq+vr5l5j2VZZmnn34as9nM4sWLSUlJYdq0adjb2zNgwAAGDx7MHXfcYV3faDTy8MMP07dv31uOVxAE4WYpJAUhriGEuIYwPnQ8ZtnM+ezz1nJTh1MPk16UzsmMk5zMOMny08sBcLFxIcwjjNZurWnl2opQ11C87bzFd+x6Jr0onTOZZziVeYqTGSc5knaE1MLUMus5ahwJ9wyns1dnIrwjaOXaCpWiekYF641mnlx2iCPxObjo1Cye0gVPh0rePz7wHZzfDEobGDkfVA1vPjmhfqjSX/OZM2eQJIkPP/wQnU5nHTr/4osvkpSUxK5du4iNja3WQAG8vLzIysrCaDRah+enpaVha2uLo6Njtb+fINSUIHc7fn6iOw99v5/zqfmMmbuHBZM60zmwgtJ5HiGWBMzSUZB+Br4fBPcvg6A7yl+/nlEr1PRv0p/+TfqTmXKUXWd/Y3vcduLz47lw6hc+OfULKjtPApx7YJ9tT4ibmBNBEISGyWA2kFyQzL/7ZMvIJBckYzAb0CjFF/fbjcFsYHfCbv648Afb47ajN1s6B0lIdPPpxogWI+jfpD82ygpKjQq3pbpqMzUGrjoN6Xkl111eHWRZ5uTJk0ybNo17772X4uJilixZwrRp0wgPDycgIMC6bnZ2NtOmTeO9996rlvcG8HCwITe/kK3rfuf1Dz+nabMQ2rRpw7lz51i2bFmZ5Mvx48c5fPgwW7ZsISAggNatWzN16lQWLFjAgAEDsLW1LdVpcd68eciyzEsvvVRtMQuCIFSVQlLQ0qUlLV1aMj50PLIsk1SQxNG0oxxJO8LR9KOcyjhFVkkWO+J3sCN+h3VbJxsnWrm0opVrK0JcQ2jl2opAx0DUSjF/TE0zmU3E58dzKvMUZzLPcDrzNKczT5NelF5mXaWkpKVLS8I8wiw/7mE0dWxaI4kzs1lm2uqj/H02Da1ayfeTOtPMw75yG6efg01vWh7fPQM8RccpoeqqlHwpKCgAoEmTJpw6dYqioiJ8fX3x8PCguLgYALPZXH1R/iM0NBSVSkV0dDQREREAREVF0a5dOxSKmqmRLQg1xddZy6onujNl0UGiLmUx4btIvnygAwPaeJe/gXMAPLIBfhoPl/fA0pEw/P+g3ejaDfxWZMfhOv8uhhlLGPavRSVSMkP901m3dh0hLiHc2+xeBgUNwlPnWSehCoIgVIVGqeGnoT+RWZxZZpmrratIvNxGZFnmZMZJfr/wOxsubij1f97cuTn3NruXwUGD8bar4HNduO3VVZupMbBRK/Fz0ZGQVQhYRsBcuW3j56LDRl095fUuXrxIQUEBd9xxBx4eHgCMHj2aRYsWERsba02+6PV6nn76aR599FE6dqy+0dySJJGTFIvJZKRl63Zcyigg2MOeTp06MXfuXMxmc6l2cFxcHK6urqWSQiEhIcyZMweDwYBaffUmZHZ2NvPnz+d///tfmdLegiAI9YEkSfja++Jr78vAIEuyWW/SczrzNEfTjnIq8xSnM08Tkx1DTkkOkcmRRCZHWrdXSkoCHAIIdgom2DnY+m+QYxA6ddVLQzZWJaYSLuZcJDYnlpicGOvPpZxL1o5H15KQCHQKpJVLK0LdQq2jlbSq2pnH7MMNp/n1cAJKhcQ3EzrSoYlL5TY0GeCXR8FYBMF9ocvjNRqncPurUvLF3t6e3NxckpOTiYy0XNg6d+4MWJIhYBmlUt20Wi3Dhw/nnXfe4YMPPiA1NZXvv/+emTNnVvt7CUJtcNZpWDqlK88uP8SWU6k8sTSK90e044EuTcrfQOdqmfPl18fg5G+weoplArAez9Ru4FVVmAHG8nsp2sjQ3aYlf8iXOZN1hjMHz/DJwU/o6tOVe5vdy51N7sRObVfLAQuCINw8bztvccP9NpaUn8SfsX/y+4Xfic25OmrB1daVIcFDuDf4Xlq5tqpSD77UvGJeWBENwNIpXUX5jAaurtpMjYWrnQY7jZLMQj0Go4xaJeGq01Rb4gXgxIkTODk50bx5cwCSk5P57LPP0Gg0hIRYRmrLssyrr75Kt27dGD58eIX7mjt3LvPmzbvu+/3555/4+vqWei09PR1XFxec7bQU6I1czCjAydmFkpISsrOzcXW9OnLe3d2dvLw8ioqK0Gq11piNRiN5eXml1l2+fDmenp5lRs9UVonBVKO/e0EQhPJolBrrqIkrSkwlXMi+wOnM05zKOGW5n5B5hkJjIRdzL3Ix9yJ/xf1Vaj9eOi/8Hfzxt/fH38EfP3s/AhwC8Hfwx83WrVF+B5NlmaySLBLyEojPjychP4H4vHji8+OJz4snMT+xzOj+K2yUNrR0aUmIawihrqGEuIbQwrlFnSW5vtsZw7d/xwDw0agw+oXcRKfeHR9B4mGwdbZ0eBad/YVbVKXkS2hoKJGRkbz88stkZ2cjSRJ9+vRh+/btvPPOO0iSRKdOnao7VgBee+013nnnHR5++GHs7e159tlnGTBgQI28lyDUBq1GydwJnXj91+OsOBjHa78cIy2vhGf7Ny//A19tC6MXwsbpEDkXNr0OuQkw4P0G/6Fwv8/9PN/9HrbEbeHPmD85lHqIfUn72Je0j/eU79GvST/uDb6X7r7dq60GqCAIgiDcSGZxJlsubWFd7DoOpRyyNjxtlDb0D+jPvc1u/bMpJi2fhxfuJy6zCH8XLSazjErZ+Br+t5O6bDM1FjZqJT5ONdeD9sSJE+Tl5dGxY0dMJhMlJSXY2toyY8YMa+IsKiqKdevWERISwpYtWwD46KOPrMmZK+6//34GDRp03ffz9Cx7c6ioqAiNRkNTNx0x6QUUG0xkFZgAysyH2r59ezw9PXnvvfd44403SEtLY+HChQAYDAbrerIs8/PPPzN16tSb/I1YZBboy4w6Ss8rwc9Fh6udGEUjCELtslHa0NqtNa3dWkMLy2uyLJNSmEJMdkypURqxObFkFmeSUphCSmEKUSlRZfZnq7TF284bD50HHloPPHWeeOo88dB54Kn1xEPrgbOtM/Zq+waRpJFlmSJjEVklWaQVppFWlEZqYWqZx0kFSRQaC6+7LweNg2UEkdM1I4mcgvC180WpqB8J+DWHE/jfn6cAeHVQK0Z18q/8xnH7YefHlsdDPwVH3+uvLwiVUKUW4qRJk4iMjCQxMRGAgIAA7r77brZv305xcTFarZYpU6ZUS4Bnzpwp9Vyr1TJr1ixmzZpVLfsXhPpApVTw4ah2eDra8OVf5/l081lS84qZMawtSkU5H+YKJQz8EBz9YPObsO8byEuC4XMtyZkGzMnGibEhYxkbMpa4vDjWxaxjbcxaLuZeZH3setbHrsfV1pW7m97NPYH30MmrEwqpYSedBEEQhPonT5/HX5f/Yv3F9exL3IdJNlmXdfbuzL3B93JX07tw0Djc8ntFx2XzyA8HyCzQ09RNx6LJXVApxWdbQ1ebbSahZpw8eZLx48czceJEcnNz+eijj+jYsSMjR460rhMREcHp06dvuC9nZ2ecnZ1vOgYbGxv0ej0qpYJANzsupOVTUGQpW6fR2JRZ9/PPP+f555+nU6dOuLm5MXXqVGbOnIm9/dU698eOHSMlJYUhQ4bcdDwlBhMJWYWl+j5feZyQVYidRilGwAiCUOckSbKORu/h16PUsqziLC7nXSY+r/TojoS8BJILkyk2FVtHzFyPSlLhaOOIk40TzjbOOGmccLJxwkHjgE6tQ6vSolVp0al0aNX//KvSolaoUSlUKCUlSoUSlaRCqVBanktKTLLJ8mM2lXpslI3oTXqKjEXl/xiKyNXnklOSQ3ZJNrn6XLJLsskpycFgNlz3WK7lqfPE394yGujKqCA/ez8CnQLr/aigv8+m8dLPRwB4pGcQj/cOrvzGJfnwy2Mgm6HdWGg7qoaiFBqbKiVf+vbtyxdffMHq1atxcXHhqaeeQq1WExQURNOmTXn33XetQ7MFQagcSZJ4cUAIHg42vP37CZbuu0xGvp7PxoVjW14DRpKg53Pg4ANrnoQTv0J+Kty/DLSVrGVZzwU4BPB4+8d5LOwxTmScYG3MWtbHriezOJMVZ1aw4swKPLQeDAgcwMDAgYR5hIlEjCAIglBlRcYidsTvYEPsBnbG7yxVvzrUNZRBQYMYGDgQH3ufanvPbadTeWrZIYoMJsL8nfh+Umfc7W1uvKFQ74k2U8N38uRJxo4dS9OmTQF4++23GTZsGGPGjMHf/yZ60lL1smNeXl5kZWVhNBrRqFQEudtx5FAmGhsbsowqnGUZxTU3wsLCwvjrr79IS0vDxcWF3bt34+Ligp3d1fK9O3fuJCIiAicnp5s6BoDMQn0FRWcsSZjMQn2NjkYSBEG4VS62LrjYutDeo32ZZQaTgaSCJFIKU6wjQ648Ti1MJa0ojbTCNIpNxRhlI5nFmeXO9VgfaRQa62geD51lRM+VkT0eOg+8dF742vtio2yY30OPxmfzxNIojGaZYe19eWNI6M0lija8Clmx4OgPg2fXXKBCo1Pl2gh33303d999d6nXmjdvzoYNG+p1FlQQ6ruHugfiZmfDCyuiWX88mcyC/Xz7UAROWnX5G4SNAXtPWDEBLu2G7wfBhFXgdHMNwtogI3P9q0P5TTlJkmjr3pa27m15MeJF9iftZ8PFDWy9vJW0ojSWnVrGslPL8Lbz5p6m9zAwaCBt3NqIa5EgCIJwQwaTgT2Je1gXu45tcdsoMhZZlwU5BTEoaBCDAgcR6BRY7e+98p9yoyazTO+WHvzf+I7Y2YiymrcT0WZquOLi4sjNzaVFixbW15o3b05AQABr167liSeeuKn9VbXsWGhoKCqViujoaCIiIrBVK0m+cJLmIa0p0JuIzywiwFWLJElkZ2fz5JNP8s033+Dh4QHA9u3b6dKlS6l9Hj16lI4dO95U/FcYjBWlXiq3XBAEoT5TK9U0cWxCE8cK5uH9R7Gx2DrCJKckhxz91ce5+lyKDFdHpBQaC68+NhRiNBtLjWYxy+ZSjxWSApWkQqFQoJSUpR6rFWrriJprR9NcGWHjoHHAycbp6micf/511DiiVWlv2+8eMWn5TF54gEK9iV7N3fl4THsU5VWRqciJX+HwEkCCEXNB61xToQqN0C217goKCli3bp21NFhoaCiDBg1Cp6ubCZUE4XYxJMwHFzs1jy+OIjI2k7Fz97Jwcmd8nSvoRRbcByavh2WjIe0UfHcXjF8F3m1rN/AbMNg6IUsSNnLZRlmJJFGsti9nq9LUCjU9/XrS068nb3V7iz2Je9hwcQPb4raRXJDMopOLWHRyEf72/twTaEnEhLiE3LZfMgRBEISbpzfp2Zu4l82XNrMtbhu5+lzrMj97PwYGDmRQ0CBaurSskc8PWZatZUYBRnb0Y9aoMNSi1NhtSbSZGqbjx4+jVqsJDAws9Xr37t3ZvHnzTSdfqlp2TKvVMnz4cN555x0++OADUlNTWbLoB96c8R4SEnEpaRQVamnp74GzszOFhYXMnj2bJ598kn379rF69WqWLl1aap/nzp1j2LBhNx0LgFolIVF+lynpn+WCIAi3O1uVLbYqW7zsvOo6lEYvIbuICd9FklGgp62fI3MndkKjuonv1NmX4ff/WB7f8V8IuqNmAhUarSonX6KionjuuefIzCw9vO7zzz9nzpw5Ve5JIwiCRY9m7qx4vDuTFu7nTEoew7/ezfeTOtPWr4LyAN5tYcrmfxIwp2HhIBi31JKYqSc0rsGkPvYX+dmXyiyzcwhATrm5xppaqaZPQB/6BPSh2FjM7oTdbLi4gR3xO4jPj2fB8QUsOL6AQMdA7m56N3c2vZPWrq1FIkYQBKERKjIWsTthN5svbWZH/A4KDAXWZR5aD2vCPsw9rEY/JwwmM6//eoyVB+MBeLJvM165R3QSuF2JNlPDdfLkSZo2bYpGU3oC+R49evDTTz+RnJyMt7d3rcTy2muv8c477/Dwww9jb2/Ps88+y/Chg8ku1DP5v0/g4eXDu//7AG8nWz777DPefvtt7r33Xvz9/ZkzZw5hYWGl9peeno6jo2OVYnHVaUjPK7nuckEQBEGoDen5JUz8LpLEnGKCPez4YXIX7G9mFLnJaJnnpSQH/CKg72s1F6zQaEmyXE4X9BuIi4tjxIgRFBQUUN7mDg4O/PrrrzddB7e+MZlMREdHEx4ejlIpJg0U6kZCdhGTF+7nbEo+dholX43vSL+QsiUJrIqyYPmDcHkPKFRw7xzoMKH2Aq6i6jzfCg2F/J3wNxtjN7IzYSclpqsNRB87H+5scid3NrmTDp4dUCrEuS0IN0t8PgoNRYGhgL/j/2bzpc3sSthVqqSYp9aTu5rexV1N76KjZ8da+TzILTbw1NJD7DqfjkKCd+9ry4RuTWv8fW/mnBXnd/URbSaL4uJiYmNjCQoKwtbWtg4ivL1l5JeQkG25tvk4afFwqPla/ZkFehKyCgHLCJgrqWM/Fx2udiL5crur7+e0+BwThMYhp8jAA9/u42RSLn7OWn5+onvF1WIqsv1D2D4TNA7wxE5wDaqZYGuBuPbVvsr+zqs08mXevHnk5+ej0+l49tln6dGjB7Iss2fPHr766ivy8/OZN28e7733XpUPQBAECz9nLaue7MGTS6PYfT6DqYsO8u59bRjftYKbNVoXmPgr/PYUHF8Nvz0NmbHQ73VQ1I9yJrHpBaw8GEd8VhH+LlrGRgTQxKX6vrjr1DoGBg5kYOBACgwF7IjbwdbLW9mZsJOkgiSWnlrK0lNLcbV1pV9AP+5sciddfbqiUYrGoiAIQkOXU5LDjvgdbL64mT2Je9Cb9dZlvna+3N30bu5qehdhHmEopNr7XEzMLuKRHw5wOjkPnUbJ1w92pF+r63SmEBo80WYSaoObvQ0ms0xybjFJOUUoFVKNJ0Bc7TTYaZRkFuoxGGXUKglXnQYbtbjZU5NKDCbxOxcEQQCK9Cam/HCAk0m5uNtrWDKly80nXi7thR2zLI+HftqgEy/1XVJSEklJSWw4tYHlKct5wOsBBoYOxMfHBx8fn7oOr8ZVKfmya9cuJEnilVde4f7777e+3qpVK3Q6He+88w47d+6stiAFobFztFWzcFIXpv96jFVR8bz+63HiMot45Z6Q8icRU9vCyO/AJQh2fmz5yYqF+76xLKtDKw/G8erqowCYzWYUCgXzdlxg5si2NK+Be2B2ajsGBw9mcPBgio3F7E3cy5bLW9get53M4kxWn1vN6nOrsVfb09u/N3c1vYuevj3RqUUddkEQhJqydOdSZh+azcsdX2bCHbc+OjM+L54d8TvYFreNqOQojLLRuqypY1NrwqWuSk8eT8jhkR8OkJpXgoeDDQuvV0ZUuG2INpNQWzwcLAmYtPwSErIKUSoknLTqGn1PG7USH6ebvNElVFl5o43S80rEaCNBEBodvdHM40ujOHgpCwdbFYsf6Uqwx43nDy6lKBt+eRRkM4TdD2FjayRWwWLevHnMmDGD4LeC0QXrWHB2Aa9PeJ23336bd955p67Dq3FVSr5kZGQA0KVLlzLLrrx2ZR1BEKqHRqVg9ugwmrjq+HTzWebuuEB8ViEfj2mPbXk9nhQKuPNNS/b+j/9YRsHkxMP9P4Kde+0fAJYRL6+uPor5SuUNSWF9/Novx/lioDvhNfj+tipb+jXpR78m/TCYDRxMPsjWy1vZenkr6UXprItdx7rYddgobejq05U+/n3o499HTKInCNdR3TfRhdtbUlISiYmJfHvqW8zOZr499S2hulB8fX1vqteTWTZzMuMkf13+i+3x2zmXda7U8ubOza0JlxbOLep0PpVtZ1J5ZtkhCvQmWnrZs3ByF/xutmee0CCJNpNQWyRJwtvJFpNZJrNQz+XMQoLcdNjb1mwCRqgdJQYTCVmFXFu88MrjhKxC7DRKMQJGEIRGwWSWeWFFNH+fTUOrVvLD5M609r3JOcxkGdY+Dzlx4BIIQz6uiVCFazz++OP49vDly6QvAdAF6/hh+w8MaDmgjiOrHVVKvri4uJCWlsapU6cIDg4utezUqVMAuLq63np0giCUIkkSz93ZAn8XLdNWH2Xt0SSSc4qZ/1AELhX1eOowAZwCYMVEiIuE7+6C8T+De4vaDR7LqJfr2RpbxKBetROLWqGmu293uvt2Z3rX6RxNO8rWy1vZfGkzCfkJ/B3/N3/H/817vEeoayh9AvrQ178voW6htVqmRhDqM1mWWRSzCLOzmUUxixjfa7yYNFy4rnnz5vHJ6k8IfCkQgCybLPpO6suLo168Ya+nElMJkUmRbIvbxo64HaQVpVmXKSQFHT070jegL/0C+tHEsUkNHkXl/Rh5mTd/O47JLNOjmRv/N6FTjfdGF+oP0WYSapMkSfi5aDHJMjlFBi5mFBLsbofuZiYeFuqlzEL9DZeLUUiCINzuZFlm+i/H+PNYEmqlxLcPdaJT0yp8jzq8FE78apkjedT3YONQ/cEKpciyzO+ZvyObZCSlhCRLrE5Zzd0t7q7r0GpFlb6Jde7cmT///JP3338flUpF9+7dAdi7dy/vv/8+kiSV28NLEITqMbKjP96OttahliP/bw8/TO5MUze78jcI7gNTNsGPYyzlx767yzICJrBnrcYdn1WE2WyGcpIXZrOZ1AJTrcZzhUJSEO4ZTrhnOP/t9F/OZp3l7/i/2R6/nWNpxziVeYpTmaeYe2QuHloPevv3po9/H7r5dkOrEg0doXFKT09nyc4lJJMMQDLJLP57MQNaDmgUdVuFqrnvvvvYFbiLZFMyklICGbq91I37wu4rd/20wjR2JexiR/wO9iTuochYZF2mU+no5deLvgF9ucPvDpxtnWvpKG7MbJb5aOMZ5u64AMCojv7MHNkOjUok7xsT0WYSapskSQS46jClF5BfYiQ2o4Bgdzu0GpGAacgMRrnUqJdryf8sFwRBuJ3JsswH606x4mAcCgm+uL8Dd7TwuPkdpZ+D9a9YHvd7Hfw7lVqccjaKzPhzZTZz9W+BV8tOZV4XKufdJe9yyfuSpf0HyJJMbFEs7y55l7nT5tZxdDWvSt/CJk+ezMaNG8nKyuL5558vtUyWZVQqFZMmTaqG8ARBqEiP5u6sfrIHkxceIDa9gBHf7GH+9TL/nq1g6lZY/gAkHITF98F9X0H7+8tfvwb4u2hRKK6WGruWQqHA067uh8tLkkSIawghriE8GvYoGUUZ7EzYyY44y42/tKI06zwxNkobunh3oW9AX3r69cTP3q+uwxeEWrN4yWL2NduHtqkWSSkhm2Te/etdjvx+hE8/+bSuwxPqqXmb5pHinWL94o1kSdzN2zSPuR3mYjQbOZJ2hF0Ju9iVsIvTmadLbe+l87KObuns3RmNsv7VuS82mHjx5yP8eTQJgOfvasF/7qzb0mdC3RBtptJkWdwgrg0KSaKpmx0X0wso0BuJTS8g2MO+/DLFQoOgVklIUG4CRvpneW0S57IgCLXti63nmb8zFoAPR4UxqF0VOvsZS2D1FDAUQlBv6Pl86eXZcbj+eDdelO0UbEAJzx8B54AqRN+4ybJMWss0pFyJa7sSSEiktUxDluXbvp1UpeRL27Zt+d///sfbb79NSUlJ6R2qVLzxxhu0adOmWgIUBKFiLb0c+PXpHkz54SDHEnJ44NtIZo1ux4gO/uVvYO8Jk9bCL4/Bqd/h18chMxb6vgq1cLEbGxHAvH96AZfnzqD6N4rETevG8ObDGd58OHqTnoPJB9kev50dcTtILEhkZ8JOdiZYJssNdAykp19Pevr2JMI7QoyKEW5reW556IJ11ueSUkIXrCMjRsxfIJTvel+8zwee54VtLxCZFEmeIa/UsjZubbjD/w76BvQl1DW0Xn85T80t5tHFBzkSn4NKIfHhqDBGd6rgM7kCYh6l24doM1kolZab/nq9Hq1WfDeqDUqFRKC7jtj0Agr1JmLSCmjmYSfmBWmgXHUa0vNKrru8NhUWFgKgVosymoIg1Lz/236Bz7acBeDNoa0ZG1HFBMjWdyHpCGhdYcQ8yzzJ1yrMQF1O4gWwvF6YIZIvVWAwG8jQZ/DvMZwyMhn6DAxmQ73sUFedqjz+ePjw4URERLBq1SpOnz6NSqWiWbNm3HfffWVqGguCUHM8HWz56bFuvLAimk0nU3hhxRHOp+bz4t0hKBTl3KBSa2HMItj6DuyeAzs+hIzzllEw6pptEAe52zFrVBjTVh8FLKXGFP984M0c2RYfRXqNvv+t0ig19PDrQQ+/HrzW5TXOZ59nR/wOdsbv5EjaES7mXuRi7kWWnVqGRqGhk1cnazKmmXOzen3DUBBuhizLGLsYkYxlb6Lnh+c3it4rws273hfvlOIUUi6nAOBk40RP35708utFT7+euNo2jDkxjifkMHXRQZJzi3HWqZk7oRPdgt0qvX1SUhKJiYl8e+pbzM5mvj31LaG6UHx9fUUpvwZMtJksiSadTkdaWhpqtdr63U+oed52SuL0evR6PeeT9AS4atGoRAKmIfLQKUjNLQYsI2CufMvycLRFNhkoNhlqPAZZliksLCQ1NRVnZ2drYlUQBKGmfLczhlkbLCPhXxkYwpReQVXb0dmNsPcry+P7vgJH32qKsPrcrh2wNEoNPw39iczizDLLXG1db/vEC9xC8gXA39+/zBB6QRBqn52NirkTOvHxpjN8s/0CX2+7wIXUAj4d1x5deTWeFQq4+11wCYJ1L8HxVZAZAw8sBwfvGo11TEQAnQNdWXEwjvisIvxdtIyLCCDAxZbo6PqdfLmWJEm0cGlBC5cWTG03lTx9HpFJkexO3M3uhN0kFSSxN2kve5P28jEf46XzoqdfT3r49qCbTzecbJzq+hAEocoMZgM5ck6j7r0iVJ4sy8TkxLAvaR8tnFtQkF5AsbG41DohziH0a9qPXn69aOvWFqWiYd3Q2XA8iRdWHKHIYKKZhx3fT7rOPGwVmDdvHp+s/oTAlwIByLLJou+kvrw46kXeeeed6g9aqDWNvc0kSRI+Pj7ExsZy6dKlug6n0TGZZbLySzCYZFITJTwcbFCW10FLqPckk5kCvQmTWUapkLDTKMkqUpBVy3E4Ozvj7V2zbUZBEIQley/yvz9PAfCfO1vwVN/mVdtRTryl6gtA1yeg1ZBqirD6yLLMophFmJ3NLIpZxPhe42+rzozedt542zXez41qn3lv7969/Oc//0GSJCIjI6t794IgVEChkHhlYCuae9rz6upjbDiRTNzcQr57OAIfpwpGtERMBrdmsGIiJB6Cb/tZEjC+4TUaa6C7HdMGtir1mslU/vDOhsJB48BdTe/irqZ3Icsysbmx7E7Yze7E3RxMPkhKYQq/nPuFX879goREK9dWdPPpRlefrnTw7IBOrbvxmwhCPaFRani72dv4NvNFoSzdg7mx9F4Rri+lIIXI5Ej2Je5jX9I+0orSSi13tnGmh2+PBje65d9kWeab7ReYvfEMAHe0cOerBzvipL35Uiz33XcfuwJ3kWxKtsyJI0O3l7pxX9h91R22UA80tjaTRqOhRYsW6PX6ug6lUXLJL+GFFdEkZBfh56zls3HhuNnb1HVYQgOkVqvFiBdBEGrcigOXefO3EwA82bcZz9/Vomo7Mhlg1RQoygKfcEsn5HomKSmJTWc3kUwyYJkPc/HfixnQcoAY/X6bqPbki9FoJDc397bK0AlCQzKyoz9NXHU8viSKE4m5DPtqN/MfiiA8wLn8DYJ6w6N/wfL7If0sfD8QRsyFNsNrM+zbiiRJBDsFE+wUzMTWEyk2FnMo5RC7EnexJ2EPF3IucCrzFKcyT7HwxEJUChVh7mF09elKV5+uhLmHoVaKGspC/eamcSPULVQ0wAUA8vX5HEg+wL4kS7IlJiem1HIbpQ2dvDrRzacb3Xy6EeIagkJq2KWHSowmXlt9jF8OJwAwqUcgbwwJRaWs2nHN2zSPFO8US+IFQLI0vuZtmsfcDnOrK2yhnmiMbSaFQoGtrW1dh9Eo+dna8vn4Loydt5f9cflMWhzNT491EwkYQRAEod755VA8r/5yDIApvYJ45Z6Qqn9f2vY+xO0DG0cY8wOo6t/n3uyPZ/Ob/W9om2qRlBKySebdv97lyO9H+PSTT+s6PKEaVHvyRRCEuhcR6Mqap3syddFBzqTkMW7eXmaPac+w9hXUtXRrBlM2w6pH4MJW+PlhSJsOfV6BRnRToKbYqmytc8XQGVILU9mfvJ/IpEgikyJJKkjiUOohDqUe4v+O/B9alZaOnh3p4tOFrj5daeXSqsGV4BEE4faWq8/lUMohDiYf5GDKQU5lnsIsm63LJSTauLWhm68l2RLuGY6Nsv41dqoqPb+Ex5dEEXUpC6VC4p1hbZjYrWmV9yfLMmkt05Byy86jlNYyTcyjJAjCLfN11rL80W6MmbuXc6n5TFiwn+WPdsW5lidrFwRBEISK/HEkkZd+PoIsw8RuTXljSGjVvwOf2wK7PrM8HvYluN5gvhidG7JSg2QqO0pXVmqQdJWfy/FmZNhnoAu+WglFUkrognVkxGTUyPsJtU8kXwThNhXgqmP1Uz34z/LDbD2dynPLD3M+NZ/n72yBorw6z1pneHAlbHoDIv8Ptn8Aaadh+DegrqBsmVAlnjpPhgYPZWjwUGRZJj4vnshkSyJmf/J+MoszLXPHJO4GwF5tT7hnOJ28OtHRsyNt3duKsk6CINSq7OJsolKiOJhiSbacyTxTZs6fJg5N6O7bnW4+3ejs3fm2ndvqTHIeUxYdID6rCEdbFd+M70SvFu63tE+D2UCGPkPMoyQIt4vsOCgs56aJzg2cA2o/nn8EuOr48dGujJ23j1NJuTz0/X6WPNIVJ50YcS0IgiDUrQ3Hk3l+RTRmGe7vHMCMYW2qnnjJTYRfH7M87jy1cpVdnAOQnj1U7ue3VEOf37Iskx+eX24HrPzwfNEB6zYhki+CcBuzt1Hx7UMRzNpwmm//juGLrec4l5LHx2PaY2dTzumvVMGgD8GzFfz5Ipz4BbJi4f7l4ChqTdYESZIIcAwgwDGA0S1HI8sy57LPsT/JMjLmYMpB8g357ErYxa6EXQBoFBraebSjk1cnOnl2or1ne+zUNzexsyAIwvWkF6VbRrb8k2w5l3WuzDpNHZsS4RVBhHcEEV4RjWISxQ3Hk/jvyiMU6k0Eudvx3cMRNPOwv+X9apQafhr6E5nFmWWWiXmUBKGByY6DrzqBsaTsMpUNPBNVpwmYYA97fny0K/d/u4+j8TlMWBDJ0ikiASMIgiDUna2nUnh2+SFMZpmRHfz4YES78jsNV4bJCKunWpIo3u1gwPuV39Y5oFY/o0UHrMZBJF8E4TanVEhMHxxKcw97Xl9zjPXHk4lJK+DbhzrR1K2CG/adJoFrM1g5ERIPw/x+cP+P4NexVmNvjCRJoqVLS1q6tGRC6wmYzCbOZp3lUOoholKiiEqJIrM40/oYQCkpaeXaio5eHa3JGHftrfXCFgSh8TCZTZzPPk90ajTRadFEp0YTnx9fZr1gp+BSyRYPnUcdRFs3zGaZz7ac5cu/zgPQs7kbXz/YsVrL9XjbeTeKBJYg3PYKM8pPvIDl9cKMOk2+ALT0cuDHR7vy4PxIjiWIBIwgCIJQd7acTOHJZVEYTDJDw3z4aHRY1RMvADs+hEu7QWMPYxaBuv7ONyc6YDUOIvkiCI3E2M4BNPO044mlhziTksewr3bz5QMd6N2ygptnQXfAo3/Bj/dD+hlYOBju+wraja7dwBs5pUJJqFsooW6hjA8djyzLXMy9yKEUSzLmUOohEvITOJFxghMZJ1hycgkAfvZ+hLmH0d6zPWHuYbRybYVaKRrUgiBAnj6PY2nHrImWo+lHKTAUlFpHQqK5S3NLssUrgk5enXDT1kyd4/out9jACz9Fs/V0KgBTewXx6qBWqJSKOo5MEASh6lp5O7L80W48MH8fxxJyGL9gH0uniDlgBEEQhNqz6UQyT/94CINJZkiYD5+NC7+179gXtsHfH1se3zvHMr9xPSc6YN3+KpV8ufPOOyu9w5KSCnr5CIJQ5zo1dWXts714fEkU0XHZTFq4n2kDW/FY7+Dy60i6BsPUzbBqCpzfDKunQPJRuPNtEBPA1wlJkghyCiLIKYhRLUcBkFyQbB0Jczj1MBeyL5CQn0BCfgLrL64HLKXKWru1pr1He8I8wmjv0R4vO6+6PBRBEGqB0WwkJieGE+knOJZuSbiczzpfZmi7ndqOMPcwwj3DCfcIp51HOxw0DnUUdf1xIS2fRxcfJCatAI1KwYcj2zGyo39dhyXUU6LNJDQ0Id4OLH+0Gw/O38fxhFzGfxfJsqkiASMIgiDUvA3Hk3nmx0MYzTL3tvfls7Htby3xkpcMvzwKyNDxYdFxWKg3KpV8SUhIQJIkZFm+4bpiIiBBqN+8HG1Z8Xg33lxznJUH45m5/jTHE3P5aFQYWk05CRVbJ3hwBWx9F3Z/DrvnQPIxGLUAdK61Hr9QlredN0OChzAkeAgA+fp8jqUf42jaUY6kHeFo+lFySnIsvdzToq3beem8aOveljZubWjj1obWbq1xtnWum4MQBOGWybLM5bzLHE8/zvH045zIOMHpzNMUGYvKrOtv70+4ZzgdPDvQ3qM9zZ2boxRJ9VK2nkrh+Z+iySsx4uNky7yJnQjzd67rsIR6TLSZhIYoxNuBH/9JwJxIFAkYQRAEoeatP5bEs8sPYzTL3BfuyydjbjHxYjZZ5nkpSAPPNjBoVvUFKwi3qFLJF19f35qOQxCEWmSjUjJrVBjt/JyY8cdJ/jiSyIXUfOZN7ESAq67sBgol3D0DfMJgzdNw4S+Y398yD4xX69o/AOG67DX2dPftTnff7sDVG7JH0o5YEzJns86SUphCyuUUtl7eat3Wz96P1m6trT9t3NrgZONUV4ciCEIFZFkmpTCFE+knOJ5xNdmSp88rs66d2o7Wbq1p69aW9h7txbxQNyDLMl9vO88nm88iy9A50IVvxnfCw8Gmxt87Nr2AlQfjiM8qwt9Fy9iIAILcK5ifTah3RJtJaKhCvB1Y/tjVBMyD8y0JGBc7kYARBEEQqtefR5N47qfDmMwyIzr48fGY9ihvZY4XgG3vw8WdoLaDMT+AWlstsQpCdahU8uWvv/6q6TgEQahlkiQxsXsgLb0cePrHQ5xMymXYV7v4+sGO9GhewU25tqPAvSX89CBkxcJ3d8GI/4PW99Vu8MJNkSSJpo5NaerYlGHNhgFQaCjkRMYJTmac5ET6CU5mnuRS7iVrubLNlzZbt/ez97OOjAlxDaGlS0s8tB6i164g1BKD2UBsTixnMs9wOvM0Z7LOcCbzDNkl2WXW1Sg0tHJtRRv3NrR1b0tbt7YEOgWikMT8JJVRUGLkpZ+PsP54MgATuzXlzaGt0ahq/ve38mAcr64+CoDZbEahUDBvxwVmjQpjTETdTs4tVI5oMwkA6NxAZQPGckrLSQrL8nqopdfVETAnk66OgBEJGEEQBKG6/HEkkedXRGMyy4zs6Mfs0dWQeDmzHnZ+Ynk87AvwaHnrgQpCNapU8kUQhNtX12A3fn/GMg/MsYQcJn6/n9cGtWJKr6Dyb657t4PHdsDPkyB2B6x8CO54Cfq9Dgpxc6+h0Kl1dPbuTGfvztbXcvW5nM44zYmME9bETFxenDUhs+nSJuu6LjYutHRpSUvXlrR0aUmISwjBzsHYKGu+Z7gg3M7y9fmcyfonyfJPsuV89nkMZkOZdZWSkmbOzazlA9u6t6WFcwvUSnUdRN7wXUjL58mlUZxNyUetlHjvvrbc36VJrbx3bHoBr64+ivlKtSpJYX08bfVROge6EihGwAhCw+AcAM9EQWHG1dfiD8K6F0E2W74/d5hQd/FdR0svyxwwD/yTgHlg/j6WTu2Ku734ficIgiDcmt+iE3hhRTRmGUZ38mfWqLBbT7xkxsKvj1sed3lczPMi1Esi+SIIAr7OWn5+ojvTfznGL4cT+N+fpzgcl82sUWHY25RzmdC5woRfYMvbsPcr2PnxP/PAzLfMESM0SI4aR7r4dKGLTxfrazklOZzKPMWJ9BPWHveXci+RVZJFZHIkkcmR1nWVkpIgpyBauLSgpUtLWji3INg5GF87XzGXhCD8S6GhkJicGM5nn+dC9gXrv0kFSeWub6e2I8QlhFaurWjl2ooQ1xCaOTcTCc9qsv5YEi+vOkp+iREPBxvmTuhIp6a1N6/ZyoNx112+4mAc0wa2qqVoBEG4Zc4Blp8rfMOhKAu2/Q/+fBG8wyzlfOuhFv8kYB78LpLTyXmMnbeXH6d2w9vJtq5DEwRBEBqoXw/H8+LKI5hlGBcRwMyR7VDcauLFUGzpDFycA/6dYcD/qidYQahmIvkiCAIAtmoln4xtTzt/J97/8xR/Hk3idFIucyd0ooWXQ9kNlCq4531L4/GP5+DcxqvzwHiE1P4BCDXCycaJbj7d6ObTzfpasbGYCzkXOJt5lrNZZ60lkHL1uZzPPs/57POsj11vXd9GaUOQUxBBTkE0c2pGsHMwzZyaEeAYgFoheugLt7ciYxExOTGlEiwXsi+QkJ9Q4TZeOi9rgiXUNZQQ1xD87P1E6bAaYDCZ+WjDaebvjAWga5ArXz7YAU+H2r3JGJ9VhNlstpQk+hez2Ux8VlGtxiMIQg2440WI3w/nNlluFj22HbTOdR1VuVp4ObDy8e6Mn7+PmLQCxs7by7KpXcufG1IQBEEQrmNZ5CXeWHMcWYYHugTw/vBqSLwArH8Zko9aynmO+QFUokymUD+J5IsgCFaSJDG5ZxBh/k48vewwF9IKuO/r3Xw4Koxh7SuYRLb9OEuy5afxkHEe5t8JI+ZC6NDaDV6oNbYqW9q4taGNWxvra1cm/z6bZUnInM08y4WcC1zMuUiJqYTTmac5nXm61H5Ukoomjk0IdgomyCmIpo5NaeLYhCYOTXC1dRVzyggNhtFsJDE/kYu5F7mUe4lLuZesj5MLkivcztXWlWbOzWjm1Izmzs1p5mz519nWufaCb8RSc4t55sfD7L+YCcDjvYN5+Z4QVMraT3L5u2hRKK6WGruWQqHA30VMGioIDZ5CASPmwbw+lrkTf3saxi2Fevp9J8jdjpVPdOfB+ZFcziy0JmCCPezrOjRBEAShgZj/dwzvrzsFwKQegbw1tHX1JF4OL4VDiwEJRi0AJ/9b36dQytKdS5l9aDYvd3yZCXfUz3KpDYVIvgiCUEanpq6sfa4Xzy0/zJ4LGTy3/DCHLmUxfXBo+ZMO+4Zbeu/9PAku7YIV46Hn89D/TcsIGeG2J0kS3nbeeNt509u/t/V1k9lEQn6Cted/TE4MMdkxxOTEUGi0lF2KyYkpsz97tT0BDgHWZIxIzAh1zWA2kFyQTEJ+AnF5cVzOvczFnItczL1IfH48RrOxwm2dbZytiZVr/3W1rb2yVvVJbHoBKw/GEZ9VhL+LlrERAQTV8nwmkTEZPLP8MGl5JdjbqPh4TBgD2/rUagzXGhsRwLwdFypcPi4ioMJlgiA0IDpXGLsIvr8HTq+FPV9Az//UdVQV8nfRWUbAfLePC2kFjJ23j2VTuxLiXc6oeEEQBEH4hyzLzNl6js+3nAPgqb7NePmekOppxycdtZTwBMvcw8363fo+hVJkWWZRzCLMzmYWxSxifK/x4h7MLRB3RQVBKJe7vQ1LpnTl081n+HrbBX7Yc5Gj8dl8Pb4jPk7l9MC194CH1sDmt2Hf17D7c0iIgtHfg71nbYcv1BNKhdKSNHFsQt+AvtbXr4yUicmOsY6QuZR3ibjcOJIKksg35HMq8xSnMk+V2aed2g4/ez987X3xs/fDx87H+tzXzhcnGyfxxUC4aWbZTHpROgn5CcTnxZOQn3D1Jy+B5MJkzLK5wu1tlbY0cbQkCgMdA2nq2NT6WIxkuWrlwTheXX0UsJTTUigUzNtxgVmjwhhTCwkGWZb5bmcsH244jcksE+LlwP9N6FjnPbmD3O2YNSqMaf/63QDMGhVGYC0npwRBqEF+HWHgh/Dnf2HLDPCLgMCedR1VhbydbFnxeHcmLtjPqaRc7v92L0umdKWtn5jnURAEQShLlmU+WHfKWtb35XtCeLpf8+rZeVE2rJwIxmJoMcBS0lOoVklJSWw6u4lkLBUckklm8d+LGdByAD4+dddZrSGr9uSLXq/nyJEjAHTu3Lm6dy8IQi1SKiRevqcVHQJceGFlNIcuZzPki118+UAHejZ3L2cDNQz8AAI6w2/PwMWdMK83jFkETbrW/gEI9da1I2V6+PUotazEVEJ8XjyXcy9zOe8yl3Mvl0rMFBgKrOXNyqNT6SyJGHtffOx88LX3xUPrgZfOC0+dJ546T3RqUbO8MZFlmaySLFIKUkgpTLn67zWPE/MT0Zv1192PjdIGX3tf/O39ryZZnCz/euo8xZwsNxCbXsCrq49eLa0lXS2zNW31UToHutZokiGv2MArq46y/rilITE83JcPRrZDp6kffZHGRATQOdCVFdeMChoXESASL7cp0WZq5CIegbhIOLoCVk2Gx/8GB++6jqpC7vY2LH+0Kw9/v58j8Tk8MH8fP0zuQqemLnUdmiAIglCPmM0yb/52nGWRlwF4+97WTO4ZVF07hzVPQtZFcG5iKeWpEO2v6jb749n8Zv8b2qZaJKWEbJJ59693OfL7ET795NO6Dq9BqlRrs1WrVigUCrZt24aXlxcAhYWFrFq1CoCHHnrIum5WVhYTJ05EoVBw8uTJGghZEITadldrL/589g6eWBrFyaRcJi6I5Pm7WvJ0v+Yoy6vX2WYEeLaGFRMh/Qz8MBju+QC6PFZv61oL9YeN0sYyD4ZzszLLriRmEvMTScxPJKEggaT8JMvzgkTSi9IpNBZyPvs857PPV/ge9mp7PHQelmSM1pKQ8dBZEjRuWjdcbV1xsXXBQe0gRtHUY0azkcziTDKKMsgozij1b3pRujW5klqYesPECoBCUuCt88bfwR8/ez/Lj4Mf/vaW525aN5FguQUrD8ZxvbNpxcE4pg1sVSPvfTwhh2d+PMTFjELUSom3hrZmQrem9e78DnS3q7HfgVDzRJtJqDRJgqGfWUqnpJ2ylO596Pd6PVmws07D0qldmfLDQfZfzGTigki+eziCHs3K6ZAlCIIgNDpGk5lXVh3ll8MJSBJ8OLId4zo3qb432DMHzqwDpQbGLraU8hSqXYZ9Brrgq51VJaWELlhHRkxGHUbVsFW6q58sl54BNC8vjw8++ACFQlGqIVHR+oIgNGxN3HT88lQP3vrtOCsPxvPp5rNExmbw2bhwPB1sy27gEQKPboXfn4UTv8L6VyBuP9w7B2zERJ1C1VwvMQNQbCwmqSCJpPwka2ImqSCJtMI0UgpTSCtKo8BQQL4hn/ycfGJzYq/7fiqFCldbV+uPi61LqefONs44ahxxtHG0/KtxRKvS1rsbug2BWTaTp88jtySXHH0O2SXZ5JTkWH70OeSW5JJRnEFmUSYZxZbkSnZJ9k29h5utG152Xnjp/vm55rGPvQ/edt6oFeqaOUCB+KwiTGa53CS82WwmPquo2t9TlmWW7LvE/9aeQm8y4+tky1fjO9KxieitLdQM0WYSKk1jB+OWwvx+cHkvbHodBs+u66iuy8FWzQ+PdObxJVHsPJfOpIUH+PKBDtzTpv6O2hEEQRBqnt5o5rnlh9lwIhmlQuLTse25L9yv+t7gwl+w9V3L48GzwbdD9e1bsJJlmfzwfKRcCZmr31ElJPLD85FlWdzrqIJbrrMgGgyC0HjYqpV8NLo9XYLceHPNcXafz2DwnJ18Ni6cO1p4lN3AxgFGLwT/LrD5TTi+ClKOw9gl4NGy9g9AuO3ZqmwJcgoiyKnioc0FhgJSC1PL/KQVWRI0mUWZZJVkUWAowGg2WpdXlkpS4aBxsCZkHDQO1n/t1HboVDp0ah1alRatSotOrUOn0pV6rFPrsFXaolaqUUmqevkFxyybKTQUYjQYKTGVoDfpKTGVUGgspMBQQKHB8m+BocD6Wnk/ufpcskuyyS3JLfUFr7IUkgIXGxfctG642bpZ/3XXul9Nrth54an1RK0UiZW65O+ixfI1vuzfs/TP8uqUU2Rg2qqjbDhhKTN2V6gXH48Jw1lXf3uWC7cv0WYSyuXeHEZ+C8vvh/3fgk84dBhf11Fdl06jYv5DETy3/DCbTqbw5NIoPhwVxthamLdLEARBqH8KSow8sdSSlNcoFXz1YAcGVGdSPusirHoEZDOET4COD1ffvoVSDGYDGfqMMu1yGZkMfQYGswGNUrSlblb9KHItCEKDMrqTP+EBzjzz4yFOJ+fx0Pf7eapvM164qyUq5b9K8kgSdH/K0jPh50mQdtrSw+++r6HN8LoIX2jk7NR2N0zQgGUUTVZxFpklmdaETGZRJpnFV3+yS7ItozX0ueSW5GKUjRhlI1klWWSVZFVLvBISaoUajVKDRqlBpVChUWhQK9VoFJbX1Ao1CkmBQlIgISFJkuWxJCFheazg6nMAk2zCJJswy+ar/5rLvmY0GzGYDRQbi60JFr1Jj1E2wolqOcRStCotzjbOONk44aRxwtHGEScbJxw1jrjaupZJsjjbOKNUKKs/EKHajY0IYN6OC5R3D1pSKBhXjTfuouOyeebHQ8RnFaFWSrw2KJTJPQPrZSJTEIRGLmQQ9H0Nts+EtS+AZyj4dazrqK7LVq3km/Edmf7rMVYejOeVVUfJKtDzeJ/yRyYLgiAIt6fMAj2TF1rmA9NplMyb2Kn8jrlVpS+EnyZAURb4dYIhn4hS9jVIo9Tw09CfyCzOLLPM1dZVJF6qSCRfqoHJZMJgMNR1GIJQq/wdVayY0olvtl9g7dFE1hy8yPmkLF4fHIqnYzllyLw6wOStsPF1SIyC9W9A4ino/jSoNJhMJgCKi4tRKmvmRurvB39nwckFTGk9hWERw6yvq9XqGntPoeGyVdniY++Dj71PpdaXZZkiY5ElEaPPtZbQsj7W51JoKKTQWEiRsaj0Y2MhhQbL4ys/1v0iozfrLXOW1NOPGpVChY3SBhuljXUEj53KzjLSR63DXm1vfWyntsNOdfV1Jxsn64+jxvG2+UIXm17AymsmTh8bEUBQI584Pcjdjlmjwpi2+ihgKTWm+GeSzFmjwqplYnlZllmwK5YP15/GaJZp4qrjqwc7EObvfMv7FgRBqDG9X4HEaDi73jJn4mPbwb4ab17VAJVSwaxRYbjYaZi3I4aZ60+TWaDn1UGtRKJbEAShEUjILmLigkhi0gpw0alZOLkL4QHO1fcGsmwpY59yDOw8LBVU1OXcaxKqlbedN952opxodRLJl1sgyzLJyclkZ2fXdSiCUGeGN1dzTxN/sgr1mGU4fyGGDDsNtuoKkhnh06BVDpTkWp6fPAR2bsiSEpVKxaVLl6q9wWYymTCZTHhoPHilwysoZAVnzpxBqVRaky7Ozs54e3uLxqJQZZIkWcqGqXW3/GXFLJspNhZjMBswmA3oTXrrv3qzHoPp6utXlpkxI8syZtmMjGx9bJbN1n1eWQdAKSlRSAqUCiVKSXn1+b9fVyixUdqgUWqwUVgSLEpJybmT5+gU3gmtWitGnvzLyoNxvPqvBMO8HReYNSqMMY28LMuYiAA6B7qy4prE1LiIgGpJvGQV6Hnp5yNsPW0pEzi4nTcfjgrD0VaUmxMEoZ5TKGDkPJjfHzLOW0aLP7QG6nm5TEmyjCx01WmYuf408/6OIatQzwcj2pUdDS8IgiDcNs6l5DFxwX6Sc4vxdbJl8ZSuNPes5rl9935lKV2vUMHYxeBUjXPICEItEsmXW3Al8eLp6YlOpxM3bYVGTW80kZhdTInRMoLFTqfB3cEGRUXnRXEu5CYBJsCM7OhFkVmFVlv9k5WnpqaSlpOGe4D71XjT9bg4uuDh4UFhYSGpqZabdT4+lRvlIAg1SSEp0Kl1dR1GhUwmE0mqJLQqkXj5t9j0Al5dfRTzldJaksL6eNrqo3QOdK2WRENDFuhux7SBrap1n/tjM/nPT4dJyilGo1Lw5tDWTOjaRHw3EwSh4bB1gvt/hPl3wqVdsOlNGPRhXUdVKY/3aYaLTsOrvxxl5cF4sgsNfPFAh4o7YwmCIAgNVtSlLB754QA5RQaae9qzZEoXfJyqd+5GLmyDzW9ZHg/8EJr2qN79C0Ituqnky4YNG3BycgIgJyfH+vqaNWusj699/XZmMpmsiRc3N7e6DkcQ6pwtYG+nIzmnmPT8ErL1UJJrJMBVV37Dy9YW7J0sk6cZCqEwAZXGBZWNM5KienvKebg6IWsLLHNU/HMjztFbh4fWCa1Wi1Zr+aKQmpqKp6enKEEmCEKVrTwYd93lKw7GVXvioTEzmMzM2XKOb7afxyxDsLsdXz7YgTa+TnUdmtCIiTaTUGUeITBiLqwYD5H/B77h0P7+uo6qUsZ2DsBJp+bZ5YfZdDKFh7/fz/yHI8ToQ0EQhNvItjOpPLX0EEUGEx2aOPP9w51xsavmstFZF2HVZJDNED4eOk8ttViUdxYamptKvnz4YemeN1d6E7722mvVF1EDcWWOF52u/vZMFoTappAkfJ212NuoiM8qpMhg4nxqPj5Otrjaacr2QFbZgHsLywiYglTU+izkjBJwCbQsqw5GPTY5MTQt0/nZgFkfA7ZtQKWxnssGg0EkXwRBqLL4rCLMZjNIZZPIZrOZ+KyicrYSquJSRgHP/RTNkbhsAEZ38uedYW2wtxEDu4W6JdpMwi0JHWqZA+bvj+CP/4BHK0sSpgG4p403iyZ34dHFB4mMzeT+efv4YXLn8ueDFARBEBqUNYcTeOnnIxjNMn1aevB/Ezqi01Tz9259IayYAEVZ4NsRhnxq7UALoryz0DBVunu5LMuV/mlMRDkLQSjLUaumhZcD9jYqzLJMQnYRlzIKMZrMZVeWFODkh+wShCwpkAyFkHYGirKrJRbZbERRwWmqkCzLQZzLgiBUD38XrXUS+X9TKBT4u1TzkPxGSJZlfj4Yx+A5OzkSl42jrYqvHuzAx2Pai8SLUOdEm0moFn1fgxYDwFhsuQlVkFHXEVVa92Zu/PRYN9zsNJxMymXEN3s4n5pX12EJwk2JTS9g1obTPLv8MLM2nCY2vaCuQxKEOiPLMvP/juH5FdEYzTLDw3357uGI6k+8yDL88RwkHwM7Dxi3BNRXk/fXlnc2y1jLO5tlS3nni+I8FeqpSp0pM2fOrOk4BEG4zaiVCoLc7UjP15OcW0xusYGzqSYCXLQ4lFd+wNaJIvumaItTLAmYrFjQe4Cjb7k9yCtLRuZ6aZUbLReEpTuXMvvQbF7u+DIT7phQ1+EI9dzYiADm7bhQ4fJxokfWLckpNDB9zTH+PJoEQJcgVz4bF46fs0hqCXVPtJmEaqNQwMj5ML8fZMbAqkkw4RdQNowSXm39nPjlqR5MWniA2PQCRv3fXuY/FEGXINe6Dk0Qbkj0rBeEq0xmmXf/OMGivZcAmNwzkDeHtEZRUQ/XW7H3azj2MyhUMGYROPmXWrzyYNw/nVfKvrcsy6K8s1BvVSr5MmLEiJqOQxCE25AkSXg42GBvoyIus5Bio4nY9ALc7W3wdrQt84EtK9Tg1gLyLGXIKEgDfcEtlSFT3CC1cqPlQuMmyzKLYhZhdjazKGYR43uNF6OkhOsKcrdj1qgwpv2r0Q4wa1QYgaIecZXti8ngvyuiScwpRqWQeOHuljzRpxnKmmj8CUIViDaTUK20znD/jzD/Toj9GzZOh8Gz6zqqSmvqZsfqJ3swZdEBDl/OZsJ3kXw2LpwhYT51HZogVOjanvWAtWc9WHrWdw50Fd/lhEajSG/iuZ8Os/lkCgBvDAllSq+gmmkPn98Cm9+0PL5nJgT2LLOKpXxz+e8tSZIo7yzUW9UyRiw3N5dLly7h7OxMQIDoCSAIQmlajZLmnvYk5RaTkV9Cen4J+SVGAlx1aNX/ml9FksDJD2zsIesSGAoh7TQ4BYBO9JYTak9SUhKbzm4imWQAkklm8d+LGdByAD4+4saBULExEQF0DnRlxTUTQY6LCBCN9SrSG83M2XqWb7ZfQJYh0E3HnPs70D7Aua5DE4SbItpMjZNer69wmUKhQKVSVbyuczOk+/4P1aqHkfZ/a5n/pfOUG+5XkiTU6qujZAwGQ4Wl7mpqXQBXOw0/Tu3Gf346zMZjCTy1JJLXBrVics+yN+80mqsTNhuNRsv8aRW4mXXVarX1vWpqXZPJhMlkqpZ1VSqVtdNGfVjXbDZjNBorXFepVFrny6wP68qyjF6vx2AwoNfry8zl+e91r8zle8XyyIvX7Vn/Y+RFXrq7RZll157L5e23onXhFq8R1/j3+dkQrhHXnss3s664RtT8NSIlp5DHl0RxND4bjUrB7NHtGdzOB4PBUP3XiPRzqH+ejCSbIXwCdHm03HV9HDVAxeenj6Om3L/7G533VV23qud9TV4jKrr2Qf28RjQWlU6+FBcX88MPP7Bnzx6++eYb7O3tMRgMfPDBB6xatcp6UoSGhvLhhx/SsmXLGgtaEKoiKSmJV155hYyMDJRKJU899RSDBg2q67Bq3NNPP83+/fvp3r07X3zxRZ3FoVBI+DlrcbBREZ9VRLHBxPnUfLwdbXG315TdwNbJ0sDMvmgZ/ZJ9CUryLENPFWU/SAShus3+eDa/2f+GtqkWSSkhm2Te/etdjvx+hE8/+bSuwxPquUB3OzHsvRqcTs7lvyuOcDIpF4CxEf68fW8b7MTcLkI9JdpMwr998MEHFS5r0aIF48ePtz6fPXt2uTdketGDu9gN618B95YQdAeff/45hYWF5e7X19eXxx57zPr866+/Jjs7u9x1PTw8ePrpp63Pv/32W9LS0spd19nZmeeff976fOHChSQmJpa7rk6n45VXXkGrUfJ/Ezox8vkN7Dh0klf3wk8BzvRu6YHin5uNarWa119/3brtihUrOHfuXLn7BXjnnXesj3/55RdOnjxZ4brTp0+33ohdu3Yt0dHRFa778ssvY2dn6SixceNGDhw4UOG6zz//PM7OzgBs3bqVPXv2VLjuU089haenJwA7d+5k+/btFa776KOP4ufnB8C+ffvYvHlzhetOmjSJwMBAAKKioli3bl2F6z744IPW682xY8dYs2ZNheuOGTOGNm3aAHDq1Cl+/vnnCtcdPnw44eHhAJw/f54ff/yxwnUHDx5Mly5dALh8+TI//PBDhevefffd9Oxp6fmelJTE/PnzK1y3b9++9O3bF4C0tDS++uorkpOT8fb2LjMPX48ePRgwYAAAOTk5fP7556WW79AHI8supSb4vkKWZTbvjkJ/oOzvIzw8nOHDhwNYr/kVad26NWPHjrU+r45rBEBgYCCTJk2yPm8o14grli1bxsWLF8tdV1wjrqqNa8T6HZE8PXMeOUUGbNVKBrT3JfqPQ0T/YVm3Oq8RWoqZynLcyCXPpS0OQz8FSeLypUtlrhG5ZhtkuR0glzlHZRnSI3/ngwMlZWL49zXim2++qTDeG10jrtW5c2eGDBkCQGFhIbNnVzw6tbauEYsXL8bd3b3cOUjr4zWisahUy1Wv1zNx4kSOHz8OYG00zJo1i+XLl5da9+TJk0ycOJE///wTd3f3ag5XEKpOqVQyffp0QkNDSUtLY+TIkfTp0wedTlfXodWohx56iFGjRl33C3ZtctSqaaFREp9VRF6xgaScInKLDOVPQq3SWMqQ5SdDXjIUZYI+31KGTFPJHuQKFTISEmUz7zISkkLcwBPKl2GfgS746vVBUkrognVkxDScSW8FoaEymWW+/TuGzzafRW8y46JT88GIdgxqdxuPOsuOg8Jyri86N3AWoyQaAtFmEmrKLjoTZFdMs4IoWDkRHt1W1yHdFKVCYngHP8x5qew8l050XDb5JUYGtvFGpaz63I6CUN3spYp7gldmuSA0dFGXMnnx5yPkFBlw1KoZHu6Hq105nWWrgQITY1iLG9lk40hMx7foeJ1y846KEnqqY9ljDAJkZFm2Jhm6q2JxVJRNvAhCfSDJ1xvX948FCxZYM3hKpZK9e/dSVFRE//79MZlMSJLE4MGDkSSJP//8E7BkWKdNm1az0dcwk8lEdHQ04eHhZYZsFRcXExsbS1BQELa2tnUUoXArhg0bxrx58xpF+aDIyEiWLVtWpyNf/k2WZTIL9CTlFGOWZRSShJtWgbeLffk1REvyLaNfTHpAAgdvsPcqt1dSGUY9mMsZ3qpQWRI8iHNaKE2WZUavGc253HPI1yTuJCRaOLZg1fBVjXrul+t9PgrCrYpNL+DFldEcupwNwF2hnnwwsh2eDrfxtTk7Dr7qBMZyGo0qG3gm6pYSMDdzzorzu+pEm0n8zZSn2koKGYtRL70PEg+BRyv0D60DG4fy163HJYX+OJrIq6uOojeZCQ9w5pvxnfBwsBElhf4hyo7d2rqyLFNcXMyRI0do3779TZcdu5hRwMAv9lyd8+UaCgk2PteTpm5lO2+KsmM3vy6IsmNVWbcmz/uNJ1J4fkU0xXoDYb4OzJ0YgYdD2WRIdV0jlBtfRRm1AFmtw/jwOhQ+YZU67y9lFLL6cCIJOSX4u2gZ08kPf6eKkzaNpeyYyWTiwIED5V77oH5eIxq6yn4HrlSX740bNyJJEp07d+azzz7D0dGRNWvWWBsRffr04ZNPPgEsQ5O+/fZbdu3a1eAbEkLVLFu2jAULFpCWlkarVq148803CQsLq3D9L7/8kq+++qrUa0FBQWzYsMH6fN68eWzatImYmBhsbW3p0KEDL730EsHBwVWK8fjx45jN5mpLvJhMJr788kt+//130tPT8fT0ZMSIETz11FMV3qC90THl5+czZ84ctmzZQkZGBq1bt2b69OnX/V3Wtls5BkmScLO3wd7WUoasoMRIWqGJjLxUfl08n7/+2lr2uD1CLDeoirNZtvgHFqz8k7TM7Bv/nak0QM301hBuTwazgQx9RqnEC4CMTIY+A4PZgEYp/qYEoTqZzTJL9l1i5vpTFBvMONioeOve1ozu5H/7JzsLM8pPvIDl9cIMMfqlARBtJqE8194EvKV1NRq4/0eY3w/STqP5/Ul4YHmlyvHezI2Oml53VEQgfq4OPLb4IEcSCxg7/wDfT+pMiPfVY7/2ptON1Id1r71Zd7utq1AoKv03XB/WlSQJjUaDWq1Go9Fc9zivrHutlj4aZo0KY9rqo4DlBvCVm8yzRoXRwse50jFUVn1Ytz5dIyqjPpz3t9M1QpZl5v0dw6wNp5FluLuND1880AGd5sbHWOVz+cACiFoASEijvkPt36HS+23ho+HVSpyL5bmZ87M+rAs3fy7f6NpX1f3WxLqNRaWuFjExMQD85z//wc3NDaBUvcJr580YNGgQ3377LUlJSdUZp9BArFu3jpkzZzJjxgzat2/PokWLmDJlChs2bLD+7ZSnRYsWLFy40Pr83xeK/fv3M378eNq1a4fJZOLTTz9lypQp/PnnnzddNiw7O5tp06bx3nvv3XDdL7/8koSEBD788MPrrjd//nyWL1/OrFmzaN68OcePH+e1117DwcGBhx56qNxtbnRMb7zxBufOneOjjz7C09OT33//ncmTJ7Nu3Tq8vLxu6phvVmWPuzqOwUalJNjdjvT8EpJzivn4g3eJj73AGzPep1kTX/7444/S27gEsm7NSmb+3xJmvDCV9q1bsuj3HZX6OxOEytIoNfw09CcyizPLLHO1dRWJF0GoZgnZRbyy6gi7z1vKbvVs7sZHo9vj51xOSUpBqKdEm0mocY4+lgTMwkFwbiNseQcG3LhNU990C3ZjzdM9eeSHA1zMKGTU/+3hywc60K+VZ12HJgiMiQigc6ArKw7GEZ9VhL+LlnERAQS6V7LstSA0ICVGE6//epxVUfEAPNS9KW/f2walogY7PsXsgHUvWx7f+Sa0GlJz7yUI9UClCqwWFxcDWCeAMplMHDx40Lq8e/fu1sdXyvVc2Uaof9544w2eeOKJUq+99957vPzyy6Vei4yMJCQkpNyfyMjIcve9cOFCxo4dy6hRo2jevDkzZszA1taW1atXXzcmpVKJh4eH9cfV1bXU8gULFjBy5EhatGhBq1at+PDDD0lMTOTEiRPWddauXUtYWBipqanW11577TXuvfde8vLyAMuwuqeffppHH32Ujh073viXVUmHDx/mzjvvpG/fvvj7+zNw4EB69erF0aNHK9zmesdUXFzMpk2bePnll+ncuTNNmzbl2WefpWnTpqUmKKvMMdek6jgGsGT+3e1t8LAxErlzG+MfewaP4NZg78ETTz1dehtJYuGPqxg7ehSjhg2ieVNfZjw9DlsbNatXVTzRmyDcLG87b1q7tS7z423nXdehCcJtQ5ZlVh6MY+Bnf7P7fAa2agUzhrVhySNdReJFaHBEm0moFX4dYfg/kwXv+QKil19//Xoq2MOeX5/qSbdgV/JLjExZdICFu2OvW3ZIEGpLoLsd0wa24ssHOjBtYCuReBFuSxn5JUz4LpJVUfEoFRLv3teGd+9rW7OJl4wLsPIhkE3Qbgz0+m/NvZcg1BOVSr44OTkBEB9vyYTu3r2b/Px8JEkiODjY2sAAOHLkCADOzs7VHKpQXYYMGWL9PwTLUNqNGzcyZEjpbHOHDh3YtWtXuT8dOnQos1+9Xs+JEyfo0aOH9TWFQkGPHj04fPjwdWO6dOkSvXr14s477+TFF18kMTHxuutfSSxc+du8clyBgYHMmzcPgC+++II9e/bw3Xff4eDggCzLvPrqq3Tr1o3hw4dfd/83q0OHDuzbt4/Y2FgATp8+TVRUFL179670Pq49JqPRiMlkwsamdN1KGxsbDh06ZH1+o2OubVU5hmspZDNmkwkvFwckSSK32MDZlDyUag1RUVHANX9nvXqDe0uw87T8nXVow+HIXaAvqNmDFARBEKpFfFYhDy88wCurjpJXYqRjE2fW/6c3D/cIRFGTjT5BqCGizSTUmrajoPcrlsd/PAdx++s2nipysdOw+JGujI3wxyzDjD9O8saa4xhMFc+jIAiCINy6syl5DP9mNwcuZuFgo2LhpM481D2wZt+0OAeWPwDF2eDXCYZ9Wbk5fAWhgatU2bG2bdvy999/M2fOHIqKivj000+ty+6++27r4wMHDvDxxx8jSRJt27at/miFatG1a1ecnJz466+/GDZsGAcPHsRgMNCzZ89S62k0Gjw8PCq936ysLEwmU5myT25ubtYyDOUJCwtj5syZBAUFkZaWxtdff8348eP5448/sLe3L7O+2Wzmgw8+oGPHjrRs2dL6uiRJvPDCCzz33HO4u7uzdOlSli1bZi1vFRUVxbp16wgJCWHLli0AfPTRR4SEhJTa/8GDB3n00UeBqxNFbdy4EbCUF4uIiCgT02OPPUZ+fj6DBg1CqVRiMpl44YUXGDZsWGV+deUeU4cOHfjmm28IDg7G3d2dtWvXEh0dTZMmTSp9zGCZyPX06dMUFRXRu3dv5syZU27yrCrHXR3HcC07OzvCw8NZ/sN3/O/DjyhSaNmycR3Hjh7Bzy8AvdFc+u9MUoCTH9g44ObqQszlBEg/Bw5eYO8tPsgFQRDqoStzu8zacJpCvQmNSsELd7Xksd7BNdvTThBqmGgzCbWq72uQdgpO/QE/PQhTt4JL07qO6qZpVApmjQqjuac9M9efZlnkZS5nFvLVgx1x0oq68YIgCNVt+5lUnv3xMHklRpq46vh+UgTNPWu4867JCKumQPoZcPC1lNBUi1HuQuNQqeTL6NGj2bFjB0eOHOHpp5+2vm5ra8uDDz4IwDPPPMPWrVuRZRlJkhg9enTNRCzcMoVCwaBBg9iwYQPDhg1j/fr13H333WUmRbr2Zvy/VeZmfGX16dPH+rhVq1a0b9+efv36sX79esaMGVNm/RkzZnDu3LkypasA+vXrR/Pmzfn666/5/vvvadGihXVZREQEp0+fvmE8bdu2Zc2aNQAsWbKElJQUXnrpJYAK51pZv349f/zxB5988gnNmzfn1KlTzJw5E09PT0aMGHHD9yzvmD766COmT59O7969USqVtG7dmiFDhpQqtXajYwb44Ycfbvj+VT3u6jqGa3300Ue8/vrrDOjfF6VSSYuQVvTqP4CYs6c5l5KHUq8vu5GtI+hcQaECZMhLhuJccG4KattKHb8gCIJQ8y6k5fPq6qMcuJgFQOdAF2aNCiPYo2xni0ZF5wYqGzCWlF2msrEsF+o90WYSapVCASPmQdZFSD4GP46FRzaC1rmuI7tpkiTxWO9mNHWz4/mfotl5Lp2R3+xmwcOdRbknQRCEaiLLMj/such7a09ilqFLkCvzJnTCxa6G5zOVZdgwDc5vBpUW7l8GDqKUt9B4VCr5cvfdd/PQQw+xePFi62tarZbZs2dbh88rlUprfdYxY8Zw11131UC4QnUZOnQoEydOJD8/n82bNzN79uwy61x7M/7fyrsZ7+LiglKpJCMjo9TrGRkZuLu7Vzo2R0dHAgMDuXz5cpll7777Ltu3b2fp0qV4e5e9WP/999/ExMRgNpurPPG6ra0tTZtaeo05OTmRn59vfV6Rjz76iMcee8xaui0kJITExETmzZt3w+RLRcfUpEkTli5dSmFhIfn5+Xh6evL8888TEBBQavvqOGao2nFX1zFcq7xtnn3uP/j4+mGSZYqxRaFUkpySWmq7jMws3L39LAmXnHgwFELaGXDyBZ27GAUjCIJQh4wmM/N3xvLZlrPojWbsNEqmDWrFhK5NRYkxAOcAeCYKCjPKLtO5WZYL9Z5oMwm1TmMHD66E+XdC2mn4+WEYvwqUDXPEyD1tvPn5ie5MXXSQC2kFDPtqF1892JHeLStfjUEQBEEoS280M+OPEyyLtNxnGxvhz/+Gt0OjqtRsFLdm3//Bge8ACUbNt8xdJgiNSKWSLwDTp09nxIgRREZGolarueuuu0rdgG/atCndunXj/vvvZ+DAgTUSrFB92rdvj5eXF/Pnz0eWZbp06VJmnWtvxleGRqOhTZs27N2719qQNJvN7N27lwkTJlR6PwUFBcTFxZUqeSbLMu+99x6bN29myZIl5d68P3HiBM8//zzvv/8+v/76K3PmzOGLL76o9PveiuLiYqR/3dy/tnFdnsocE4BOp0On05GTk8OuXbt4+eWXrcvq8piheo6hItdus3fPbl566SV8nbUk50gEt2jFxm076dSzD+72NiDLV//OdK6gsYfsS6DPtyRiinPAuQkoa7hHhyAIglDGycRcXll9hOMJuQD0bunBByPa4u+iq+PI6hnnAJFkuQ2INpNQ6xx94cEV8P1AiNkOf/4X7v2iwXY8auvnxG/P9OTxJVFEx2UzaeF+Xh3UikfvCC7T3hIEQRBuLDWvmKeXHeLAxSwkCV6rzWvq6T9h43TL4wHvQei9Nf+eglDPVDr5AhAaGkpoaGi5y/773/9WS0BC7Rk8eDALFy5kzJgxKJXKatnn5MmTmTZtGm3btiUsLIxFixZRVFTEyJEjressXbqUzZs3s2jRIgBmzZpFv3798PX1JTU1lS+//BKFQsHQoUOt28yYMYO1a9fyzTffYGdnR1paGgAODg7Y2toSHx/P448/zhNPPMHQoUMJCAhg3LhxnDhxgjZt2lT5eJ599tlKrdevXz/mzp2Lr6+vtezYwoULGTVqVIXHfaNj2rlzJ7IsExQUxOXLl/noo48IDg62/i5r6phv5rhv9Riu/b1cKY+2c+dOgDLbjBo1CrVajaOtitEPTOCT/71NcMtQ2rZtx5bfV5b+O1NpwK05FKRBbiKU5EHqactNLa3LLf1ubldLdy5l9qHZvNzxZSbcUflkqSAIQkWKDSa+/Osc83bEYDTLOGnVvDm0NaM6+okbaMJtTbSZhFrnEwajv4efHoBDi8G1GfR6vq6jqjIvR1tWPN6NN9ccZ+XBeD5Yd5rjCbnMGhWGVlM97VZBEITGIDoumyeWRJGcW4yDjYo5D4TTv9WNy8pXi4RDsHoqIEPEI9D9mdp5X0GoZ24q+SLcXgYPHszcuXMZPHhwte4zMzOTL774grS0NEJDQ/nuu+9KlR3LysoiLi7O+jw5OZn//ve/ZGdn4+rqSqdOnVi5ciWurq7WdZYvXw7AxIkTS73fzJkz6d+/P1OnTqV///489thjgGVkT+/evfn0009ZsGBBtR1fRd544w3mzJnDjBkzyMjIwNPTk3HjxpWq9/3v477eMY0cOZK8vDw+/fRTkpOTcXZ2ZsCAAbzwwguo1Wqys7Pr/Jhv9Riu+PfvJT8//7rbaFRKJo0bgaEgl0WLvmVeZgaBzVry4edf4+J6Tdk1SQJ7T7BxhOyLYCiy1MQuzgEn/3/mhxGSkpJITEzk21PfYnY28+2pbwnVheLr64uPj09dhycIQgO1/Uwqb/12gsuZhQAMbOPNu8Pb4Okg5uESBEGoESEDYeCHsP4V2PI2uARCm+F1HVWV2aiUzBoVRls/J9794yS/H0nkQlo+8yZ2EiMnBUEQKmHlwTje+PU4epOZ5p72fDuxU+3Ns5gdB8vvt5SDb34XDJrdYEdkCsKtkuTr1UX6x5133nnzO5YktmzZUqWg6guTyUR0dDTh4eFlRoYUFxcTGxtLUFAQtrYN80bC7t27efPNN9m6davogSrUOVmWKSwsRKfTVfrv0WAyk5hdRE6RAQCNUoGvsxZH7b/qXMtmyEuG/BTLc4XaMgrG1sm6yu1wTlfFiy++yLebviXwpUDraxc/vshjAx7jk08+qbvAhHrtep+PQuOWmlvMjLUn+fNoEgA+Tra8M6wN97QRk2rWpZs5Z8X5XXWizST+ZuqF9dMgci6obOHhtRDQua4jumX7YjJ4atkhMgv0uNpp+PrBjnRvVvW5LoXbm7gmCY2dwWTmvbUnWbz3EgADWnvxydj2ONjW0nxgxbmWUpipJ8CzDTyyAWwda+e9GzFx7at9lf2dV6rrd0JCApIkXXf+in8TN/Prr9TUVKKiopg3bx6jR48W/1dCg6VWKmjqZkdukYHE7CL0JjMXMwpwtFXj66y9OnmcpLDUw7Z1gqxLYCqBzBjQuoKTX6MeBSMj4znSE9kkIyklZNM/z/Mrf70XBEEwmWWWRV5i9oYz5JUYUUgwuWcQL9zdEnubxnuNFRoX0WYS6oV7PrCM9j67wVKGbOoWyyiYBqxbsBt/PNuLxxYf5ERiLhMWRPLW0NY81L2pOIcEQRCukZ5fwlPLDrE/NhOA/97dkmf6NUehqKVrpckIP0+yJF7svSxzkonEi9DI3VRrWJIk/P398fYWvRcbsry8PKZPn054eDiTJ0+u63AE4ZY5atXY26hIySsmPU9PbrGB/BQjXo42uNnboLjSKNPYgUeIZRRMQSoUZVrmg3EOAGzq9BjqSr9J/dh8aLP1uaSU0AXr6NexXx1GJQhCQ3I8IYfX1xznSFw2AO39nXh/RDva+jldf0NBuE2JNpNQpxRKGLUAFg6C5KOwbCxM2QRa57qO7Jb4OWtZ9UQPXv3lKL9FJ/L27yeIjsvm/RFt0WlEkl8QBOFIXDZPLI0iKccyv8tn48K5q3Utze8CIMuw7iW4sBXUOkvixTmg9t5fEOqpm/6WEh8fD0CXLl3o2rUrXbt2xcurFk9m4ZY1a9aMw4cP13UYglCtFAoJHyctLjoNCVlFFOiNJOUUk1VowM9Zi92VntcKpWW0i60TZF++OgpG6WgpT9aIyLLMskvLkJCQudpLV0Ji2aVlDG07VPQmFAShQnnFBj7fco6Fu2Mxy+Bgo+LlgSGM79oUZW31rhOEekq0mYQ6ZWNvuek1/05IPwMrJsCE1aBq2J2NtBoln48Lp62vEx9uOM2vhxM4mZjLNxM60qy25jEQBEGoZ2RZZum+S7y39hR6k5lgDzvmPxRR+9fFPV9C1EJAglHfgW+H2n1/QainKpV8eeaZZ4iMjCQ6OhqDwUBcXBzx8fH88ssvADRp0sTasOjcubNoWAiCUGds1UqCPezIKjSQnFNMscHEhbR8XHUavJxsUSv/KUVmYw8erSAvyTIKpiQH8rIgNglC76rbg6glBrOB5ILkUokXsJQiSy5IxmA2oFFq6ig6QRDqK1mW+fVwAjPXnyYtrwSAIWE+vDW0NV6OjWfOLEH4N9FmEuoVR19LAmbhYLi4E359wjIiRqGo68huiSRJPNo7mHb+Tjy7/DBnUvK476vdfDQ6jMHtfOo6PEEQhFpVUGLktV+O8fuRRADuaePF7DHtcayt+V2uOLYKNr9peXzP+9BqSO2+vyDUY5J8E0WJi4uLOXjwIHv37mXv3r2cPn0as9nSU/za3tFNmjSha9euvPvuu9UfcS263sQ5FU3OLcsyRcaiWotRq9KKnunCbUGWZQoLC9HpdNX2N200mUnOLSazQA+AUiHh5WCLq73maikygJJ8itMuEhuXQNDuF7Ft1gsGzgStS7XEUZ8lFySTWZxZ5nVXW1e87US5FKF8YjK/xut4Qg5v/36CqEtZAAS66Xh7WBv6hXjWcWTC9dzMOSvO71sn2kxCvXJhGywbDWYjdH/GclPsNpGaW8wzyw9b5zaY0iuIVwe1utrZSmiUxDVJaCzOpeTx5LJDnE/NR6WQeHVQK6b0Cqr9e4Qx22HpaDAboNtTlrnHxH3KWieufbWvsr/zmyo7ZmtrS69evejVqxcAOTk5REZGsnfvXjZs2EBWlqUhfunSJS5fvtzgGxI3S5ZlHlr/ENFp0bX2nh08O7Bo4CKRgBGEcqiUCvxddLjoNCRmF1FkMJGYU0RmoR5fJ1vsr/QGsbEH12BIzQMkOLLc0lAd+ult32PD285bJFkEQbihrAI9H286w4/7LyPLoNMoeaZ/c6b0CsJGJb7cC8K1RJtJqFea9YP7voFfH4O9X1lGxHR/uq6jqhaejrb8OLUrszedYd6OGBbsiiU6LpuvH+yIt5MYiSkIwu3rt+gEXl19jCKDCS9HG75+sCMRga61H0jyMfhpgiXx0mYEDHhfJF4E4V+q3CUkLy+P/fv3s2fPHvbs2UN2djaSJDX6JEBjP35BqI/sbFQEuOpwsFUjSRLFBhMx6QVcyihAbzRZVlIoLBORjloAbi0gPxl+ehBWPgR5yXUavyAIQl0xmWWW7LtEv0+2syzSkni5t70vW1/sw1N9m4vEiyDcgGgzCfVC+3Fw1wzL443T4fjquo2nGqmUCl4bFMq8iZ1wsFURdSmLIV/sZPf59LoOTRAEodqVGE28seYY//kpmiKDiV7N3fnzuf9n777Dm6zaB45/k3Tvlu4BLbQUWkbLKiAbZAoiyFJBBVGG+INXBeEVFRcK4qsyZAjIHrIUZAk4AJE9WkpZLVCglO7dpk3y++OBQC17peP+XNdzNXme0yd30iRNzn3OfZqbJvGSdl6Z8aLNAv/m8NysMl/aUojH4Z5nvhQWFnLo0CHjF4fo6Gjj9PmbK5f5+fkZaxlXNCqVigUdF0jZMSFKmdQcLZfScgGKrW6SkVdIVn4RbvaW2JtdO+JVB4bshD++UBaMi/4Zzv4B7T+G8AHyYUKIm8Ql57D68GUupuXh62xN7wZ+BLjamjos8YjsP5fKhz8fJzohE4AanvZ81C2UxlUrmTgyIUov+c4kSq2n/k9Z63DvTGX9F1t3CGhu6qgemQ6hntTwtGfI4kOcSMjkpbl7Gd4qkJHtgjCTMmRCiHLgfEoOby49TOSlDFQqGNEmiP9rG4RGbYI+wdxUWNxTGbTqHgp9FoOZ5ZOPQ4gy4J6SL4MGDeLQoUPk5+cDxb84+Pr60qhRIxo1akTjxo3x9KzY5WtUKhU25jamDkMIcU1BoY5LabncbnErvcFAYmY+Kfoi8rQ65f3N3BqengC1esL6t+DyYVj/f3BsJXT9FlyDnuh9EKI02hGXy/erdgKg1+tRq9XM+vMsX/asQ68GfiaOTjyM8yk5fLEphk1Ryqw/Bysz/vN0dV5qXEU6sIS4A/nOJEo1lUqpw5+VoAwuWv4iDNwEHqGmjuyRqVLJlrXDmvLRL8dZvj+eab+f4Z/YFL7tF46Pk7WpwxNCiAe27vAl3l8XRXZBEU425nzTJ4xWplpzsTAPlvWFlNPg4AsvrVKqiAghbumeki+7d+82XpYvDkKIsiQ1V3vbxAuAg5U5+YU6Cor0pOZoGb70MMPa1lCm7XrVgUHbYN8s2PEpnN8N3z8FLd+Fpv8HZhZP7H4IUZrEJecw40DmjdeWSo3+2pUxq4/R0N8Ff5kBU+Zk5BYy7ffT/Pj3OQp1BtQq6NPQaSkjLAAAuVhJREFUj3faB1PJTkayCXE38p1JlHpqDTw3G7KT4MLfSrmY134DR19TR/bIWJlr+KJnHZ4KdGXcmkgOnE+j0zd/Men5unSsJa9DIUTZklNQxAc/H2f1oYsANPJ34Zu+YXibKqGs18GqQRC/F6wc4aXVylpiQojbuueyY9dLW126dIm1a9eydu3au7aPjo5+uOiEsUzBrfy7XvSd2gKobyqXVJ7bGgyGYiMNH6btzY+xtH0ybW/3Ow963sKiuzx3VFDdw57LqQaSVRBzKZWe0/+iQ6gn77QPVjqQ6w+Gau0x3zIa1dkdsONTDFFrKOr0NQaf+rc+r1qNmZmZMd7CwsLbx/CAbQG0Wu0jaatSqTA3N3+gtoWFhbf9ezyutgAWFhYP1LaoqOiO7yn309bc3Nz4XHtcbXU6HTqd7pG0NTMzM74HPkzbFfsugEEPqpKzIAwGA0v3nuOdp289Q+zm8+r1eoqKim4bg0ajQaPRlJq2d3t93k/b0vQeUajTs+Sf83y9JZqMPOXcTwW68l6nGtTwdACU15i8R9x/2wd93YuyS74ziVLP3Ar6LYV5HSEpRknADNwE1s6mjuyR6lrXm7q+ToxYfpij8ekMWXyQ/o2r8N8uNbEyl/XKhBClX9SlDN5adpjY5BzUKnirbRBvtg403Ux0gwE2vgMnfwWNJfRbAe41TBOLEGXIPSdf7vSFVTw+V67cfqFvS0tLKlW6UXc9MTHxtn8nCwsLXF1djdevXr162w4Ac3Nz3NzcSEhIYPTo0SQmJqLRaOjfvz+tWrUq1tbMzAx39xtTHZOTk2/biaXRaPDw8DBeT0lJuW0HklqtLjZCMDU19bYdPSqVCi8vr2JtCwoKbtkWwNv7RlY+LS3NWBriVjw9PY1fotPT08nLu/16Ph4eHsZOt4yMDHJzc2/b1t3d3dg5lpmZSU5Ozm3burm5GTubsrOzycrKum1bV1dXY6dQTk4OmZmZt21bqVIlLC2Vkcy5ublkZGTctq2LiwtWVlYA5OXlkZ6eftu2zs7OWFsrozDy8/NJS0u7bVsnJydsbJQyfQUFBSQnJ9+288nR0RFbW2UkvVarJSUl5bbndXBwwM7ODgDNXfqxDPoi1GoVrnaWpNqZ45mwixORF1i5B1bNVVHX14mIqi5YmWto2mQI7ev2g83voboajdmCjuwjjB00pYDio8IbNmxIly5dAOXxnTx58m1jCAsLo3v37oDSQfj555/ftm1ISAi9e/c2Xr9T26CgIF588UXj9cmTJ9/2Nefv788rr7xivP7NN9/c9jns7e3N66+/brw+ffr02z4n3NzcGD58uPH67NmzSUpKumVbJycnRo4cabw+f/58Ll++fMu2NjY2jB492nh9yZIlnDt37pZtzc3N+e9//2u8vmLFCk6fPn3LtgAfffSR8fKaNWvu2Ck2btw442tuw4YNHDly5LZt3333XeNzeMuWLezfv/+2bUeOHImTkxMA27dv5++//75t22HDhhnfh3fu3Mkff/xx27aDBw/Gx8cHgH/++Yfffvvttm1feeUV/P39ATh48CAbN240HvtDG4CB2y/q+Nvug2j3/3TLY7169SI0VClxcuLECX766dbtALp3705YWBgAZ86cYenSpbdt27lzZxo1agTAhQsX+PHHH2/b9umnn+app54CICEhgTlz5ty2batWrYz/+5KSkpgxY8Zt2zZt2pT27dsDyv+Bb7755rZtS8N7RGBgIB71nmbixhPEJueQ8fcKnK3VtAhywz/BljXzthnbynvEDU/iPUKUXfKdSZQJ1s7KaOUfnoakE7C0L/RfCxblq3x25Uo2/PRGE6ZsPcmsv2JZ9M959p9LZdoL4QS625s6PCGEuCWDwcC83ef4clMMWp0eL0crvukTRoSp113880s4MA9QQc8foEoT08YjRBlxT8mX55577nHHIUohjUbDuHHjcHFxISkpiTfeeIOIiAhjx7oQZYGjtRkpubcfJW5vfiM7o1apaFrNFW9bFTtPJ3M+JYfD8WlEJ2QQEVCJBhF6qNMbqrVFu+EdLE6sIYIj1OQ0W2jJcaoDMmpZlH92aJWRT7d6uhsM2KluPytClA5XMvLZ8vtZEqKUkc6VbC1oGOJBTXcb1KZYtFOIckC+M4kyxdFXScDM7wjx/8DKAdB3abkrq2thpmZs55o0DXTlPyuOEHMli65TdzP+mRD6NfKTGYdCiFIlJbuAd1cdY0fMVQDah3jwZc86ONua+L157yz4Y6JyufNkCOlm2niEKENUBhmedVs6nY4jR44QFhZmnNFwXX5+PnFxcQQEBBhnBDwOpansWPfu3fn++++LzTJ52PMWFBTw8ccf89tvv2FpacnAgQN59dVXb9k2MTGRzz//nL1792JpaUmnTp0YNWoUlpaWqNVqtFotEydOZMOGDZibm9OzZ09GjhxZ4gO1lB0rnW31ej25ubnGmTCPMoa0HC2X0pVZSwZu9Bf7OFnjbGuBSqUyvqZ9fHyMr+mdp5L4cnMMJxOV2Ua+Lrb8p31Nuof7oFZB0cmtmG0ZjSrtnHIfAlpR1OELcKlWqkoK3UtbKTv2YG0ratmxs1ez6DxtD4ZbZF/UKtjy1lNUqXTr17KUHVOY6j3izNVsvtl2ii3Hr4BKjaWFOYOaBTCsVTUs1Xd+X5X3iPtvW1rKjt3pM+3DtBUC5DlT5sXvg4XPQmEu1OoJPeYoa8OUQ1cz8xm18gi7zygz6NvWcOeLnnVws5d1zcoTeU8SZdWOmERGr4okObsACzM147vU5KXGVUyfJD66AtZem9Xeahy0GmPaeMQtyXvfk3evj/k9lx0TpnFzouBRt33ppZeMZW/Mzc3x8/Nj2LBhdO3atUTbqKgo9Hq9sVzNo4rhq6++4vjx4yxYsIDLly8zZswYfHx86NixY7G2KpWKkSNH4uDgwJIlS8jIyGDcuHFoNBrGjFHe+D/99FP27t3L3LlzycnJYdSoUfj4+NC3b9/bxvDvBNadSNsn0/Zefud+z+tiZ4mtpRmpuVoKiwyYm6lwsbHA8hb1ni0sLIwda21r+dAqxJtVB+OZsvUUlzIKePuno8z66yxvtw+mfUh7VNVawu5vYOfXqOP+wGJOS2g2StmuvcWqVKpinXV3i/de216P19Rtb+4MLQttb+6YLgttb+7QLy1tq3s5MayhI98fUEob6vV64/v/lz3rEOTldE/nVavV9/xcKw1tH9dr+Um8R1xOz+Pbbaf56WA8egOozcx5LtyHUe2q4+dy/2Vm5D3i8bYVQognxq8R9FmklB6LWg1WTtBlCpi6s+8xcHewYtHACObtjmPS5pNsj7lKx2/+YmKP2rQP9bz7CYQQ4jHIKSji019PsGzfBQCC3O2Y+kK4ce1Fkzq5CdYNVS5HDIGWo+/cXghRgnwLrKAMBgPR0dGMGTOGrl27kp+fz6JFixgzZgxhYWH4+fkZ26anpzNmzBg++eSTRxpDbm4uP/30E3PmzCE0NJTQ0FBOnz7NkiVLSiRfYmNjOXLkCLt37zauXfPWW2/x5ZdfMmbMGNLT01m9ejXz58+nTp06AAwcOJCjR4/eMfkiKg5Lcw1ejvdfMk+jVtGnYWW61fVhwZ5zfP/HWU4lZvPGooPU9XNiTIdgmrZ6D2r3UhafO7sD/vwCjq2ALl9BYLvHcG+EML02/jb0aF6XVYcuczEtD19na/o08MPfVdasKE3ScrTM+OMMC/acR1ukzLpoV9ODdzsEE+wp9e6FEEKgfF7tMQtWDYIDc8HGBdq8b+qoHgu1WsVrzavSLMiVkcuVMmSvLzpInwZ+jO8agp2ldJEIIZ6cg+dT+c/Ko5xPyUWlgkFPBfBOh2CsbjFQ9Ik7txt+egUMOqjTBzpMLJeJeSEeN/lkUUGdO3eOnJwcmjdvjpubGwDPP/88CxYsIC4uzph80Wq1DB8+nMGDB1OvXr1HGkNMTAxFRUWEh4cb99WvX5+ZM2cWG0UNyoK8P/zwgzHxcl12djagLAZtZ2dnXGwZKLbYrxAPy9pCw5CW1ejXqDJz/opl7q44jsan88IPe2kW6Mq7HYKp+9IaiF4Hm8dCWhws7gkhz0LHL8DB29R3QYhHzr+SLWM61jB1GOIWcgqKmLcrjtl/xZJVoJRVa+TvwphOwdSv4mLi6IQQQpQ6tXpCXjr8+h/4azJYu0CTYaaO6rGp4enAz28+xde/nWL2X7GsOBDPntgU/tenrvyfFEI8dtoiPd9uP8X3f5xFbwBvRyu+6l2XptVc7/7LT8LlI7CsLxTlQ/VO8Ox0uI9KN0KIGyT5UkEdP34cR0dHAgMDAbhy5Qr/+9//sLCwIDg4GFBmx7z33ns0btyY7t273/ZcM2fOZNasWXe8vV9//RVv7+Kdz0lJSTg7OxcrXeLq6kpBQQHp6em4uNz40Ovg4EDz5s2N1/V6PYsXL6Zx48YAxMfH4+Pjw7p165g5cyaFhYX06NGDoUOH3lcpNCHuxtHanHc6BDOgaRVm/H6WJXvPs+tMMrvOJNMh1INRT7elxvB98McXsHcmRP8MZ7ZDq/eUabqaey99I4QQ9ytXW8SiPeeZ9VcsqTnKuiw1vRwY3TGYVtXdTF8zWgghROnVcBDkpcKOT2HLWLB2hrB+po7qsbE00zC2U01aB7vz9sqjXEjNpdfMPQxpWY3/axeEpVkpGHkuhCh3TiVmMWrFEY5fVko496jnw0fdQnGwKiV9BclnlIGkBZlQ5SnoNV/6MYR4CJJ8qaCOHz9OVlYW9erVQ6fTUVBQgJWVFRMmTMDDwwNQZpNs3LiR4OBgtm3bBsCkSZOMyZnr+vbtS6dOne54e+7u7iX25eXllagZf/36nRbyBZg8eTLR0dGsWrUKUEqYnT9/nuXLlzNx4kSSkpL44IMPsLa2ZuDAgXc8lxAPwt3eio+6hTKoWQDfbDvNmsMX2XI8kS3HE+lUy5O32r5HzbB+sOE/cHEfbH0fDi1UZsEEtjV1+EKIciZXW8Tif84z689YUq4lXapUsuE/T1enax1v1GpJugghhLgHzd+B3DT4Zzr8PBysHKBGF1NH9Vg1rlqJTSOb89Evx1lz6BIz/jjLb9GJTO5VlzA/J1OHJ4QoJ4p0eubsjON/206hLdLjbGPO58/VplNtL1OHdkPGRVjUHXKTwasu9FsG5vdfvl0IcYMkXyqo6OhoXnzxRfr3709mZiaTJk2iXr169OjRw9imQYMGxMTE3PVcTk5OODk53XcMlpaWJZIs169bWVnd9vcmT57MggUL+N///kf16tUBZRHb7OxspkyZgo+PDwCXL19m2bJlknwRj5Wfiw1TetfljZZV+XbbaX6NTGBT1BU2RV2hY6gnb3X6iZDEX2DbBEg+BYt7QHBn6PAZuFQ1dfhCiDLuVkmXyi42jGgTyHPhPphpZPanEEKI+6BSQftPIS8Nji5V6v2/sAKqtTF1ZI+Vg5U5X/cOo32IB++vi+L01Wx6zNjN4BZVGdWueulYf0EIUWbFXMnk3Z+OEXkpA4DWwW582bMO7g637/t64rKTYNFzkBEPlQLhxdVg5WjqqIQo8yT5UkFFR0fTu3dvqlSpAsCHH35It27d6NWrF76+vvd1rgctO+bh4UFaWhpFRUWYmSlPxaSkJKysrHBwcLjleT755BOWLVvG5MmT6dChg3G/m5sblpaWxsQLQEBAAAkJCfd1X4R4UNU97Jn+Yj3eupLFdztOszEygc3Hr7D5+BXah4Qw8vnfCTk1E/bNgpMb4cw2aDoCmv0HLO1MHb4QoozJ0+qUpMtfZ0nOvpF0efNa0sVcki5CCCEelFoN3aaCNgtOrIdlL8BLq8H/KVNH9th1rOVFREAlJqw/zrojl5n1Z6wyC+b5OrIWjBDivmmL9Mz44wzTfz9Doc6Ag5UZH3QNpWc9n9JVDjg3VZnxknwKHHyg/zqwczN1VEKUC5J8qYDi4+PJzMwkKCjIuC8wMBA/Pz82bNjAkCFD7ut8D1p2rGbNmpiZmXHkyBEaNGgAKKXOateufct1WqZNm8by5cv5+uuv6dixY7FjdevWpaCggLi4OAICAgCIjY0tlowR4kkI9rRn+gv1OJWYxdQdZ9hw7DJboxPZGp1Iu5o9GP3cc1Q//BnE/g47p8CRpfD0J1D7eWWkoRBC3EFmfiGL9pxn/u44Y9LFz8WaEa2DeK6eJF2EEEI8Ihoz6DkPVrwIp7fC0t5KZ5xfQ1NH9tg521rwTd9wutTx5r9rI4lNyuH5mXsY+FQA77QPxtpCZsEIIe4u8mIG7646SsyVLACeDvHgs+61StdsF4D8DGXGS2IU2HnAgF/Ayc/UUQlRbsg39AooKioKc3Nz/P39i+1v0qQJv/32232fz8nJiSpVqtxxuz6z5WbW1tZ0796djz76iGPHjrFt2zbmzZvHgAEDAEhPTycrS/kndfbsWWbMmMHgwYOpX78+SUlJxg2gatWqtGrVirFjxxITE8POnTuZPXs2/fqV3wUiRelW3cOeqf3C2TqyBd3qeqNSwbYTibRfcpX+2vc40XImBqcqkJUAa16DeR0h4aipwxZClFJJWQV8uTmGpybuYPKWkyRna/F1tubLnrXZ8XYrejf0k8SLEEKIR8vMAnovhIAWoM1WFmC+fMTUUT0xT4d48NuolvSs54vBAHN3xdHp27/YczbF1KEJIUqx/EIdkzbH0H3GbmKuZOFia8HUfuHM7l+/9CVeCrJhSS9IOAI2lWDAz+AaaOqohChXZOZLBRQdHU2VKlVKLHbftGlTli9fzpUrV/D09HwisYwdO5aPPvqIl19+GTs7O0aMGEH79u0BGDFiBD4+PnzxxRds374dnU7H999/z/fff1/sHCdPngTgq6++4pNPPqFfv35YW1sb17QRwpSCPOz5rl84b7UNYtqO06w/lsDOMyl0OuNAfZ9v+Dz0T6qfmo0q/h+Y1RLq9YfW/wX7J/MaFEKUbvGpucz+K5aVB+IpKNIDEORux9BW1eha11sSLkIIIR4vc2vot1xJvFzYo4yOfuVX8AgxdWRPhKONOVN61+WZOl6MXRPJuZRc+s35h+fr+zKuc01cbC3ufhIhRIXx95lk/rsuirjkHACeqePFhG6hVLKzNHFkt6DNhWV9IX6vsrZL/3XgXtPUUQlR7qgMBoPB1EGUVjqdjiNHjhAWFoZGU3xqcX5+vrHE1Z0WhxdC3BuDwUBubi42NjYmqX36pF7T8am5/LAzluX7b3SkNnLJY7LTaqpc3qg0MreFp/4Pmr4JFraPLRYhHtSd/j+KR+PklSxm/nmWX45eRqdXPqqF+TkxrFU12tX0QK2WMoXi3t3Pa1Ze3+J+yXOmgsjPhIXPwuVDYOsOr26qcKOjM/MLmbz5JIv3nsdgAGcbc/7bJaT0rd1Qwcl7kjCF5OwCPvv1BGsPXwLAzd6ST56tRcdapXRQZVGBkng5uwMs7JUZL771TR2VeAjy3vfk3etjLsMlhRDiCfJzsWHCs7XY/V4bRrQJxMHKjH2p1rSMfYnXzD4j0aE2FObAH5/D1PpweAnodaYOWwjxBBgMBnaeTuKV+fvo8M1frD18CZ3eQPMgV5YOjmDtsKa0D/WUxIsQQognz8oBXloNHrUh5yos7AZp50wd1RPlYGXOJ91rsXpoU2p42pOWW8g7Px2l35x/OJuUberwhBAmoNcbWL7vAm2n/Mnaw5dQqWBAkypsf7tl6U286Arhp1eUxIu5Dbz4kyRehHiMpOyYEEKYgKudJW+3D+aNltVYvu8CP+yMY1tmANuy36OnxT7et1qJc1YC/DwM/vke2n8C1VqbOmwhxGOQX6jjlyOXmbc7zrggp0oFnWp5MrRlILV9HU0coRBCCAHYuMCAdTC/MySfhAVdlRkwjr6mjuyJqlfZmfUjmjF3VxzfbDvFP7GpdPpmJ0NbVWNY62pYmsmIYyEqglOJWYxbE8mB82kAhHg58HmP2oT5OZk2sDvRFcHq1+DkRjCzUspKVmli6qiEKNck+SKEECZkZ2nGa82rMqCJP+sOX+KHXbGsToxgvbYer5htYaTFz9gkRsKi7hDUHp7+WOqwClFOJGcXsPif8yz+5zzJ2VoAbCw09G7gxytN/fF3lbKDQgghShlbV3j5F5jfCVJj4cdn4JUNFS4BY65RM6RlNbrU9mL8z1H8cTKJb7ef5pejl/mgawitg91NHaIQ4jHJKShi6o4z/LAzliK9ARsLDf95ujqvNPXHrDSvx6grgnVDIHodqM2hzxKo2tLUUQlR7knyRQghSgELMzW9G/rRq4Evu8+kMG93HLNjnuGnoha8ZbaW/mbbMDu9FcOZbajqvQytxoK9h6nDFkI8gJgrmczfdY61Ry6hvbb2k5ejFa809advo8o4WpubOEIhhBDiDuw9YcAv8GMXSItTfr7ya4VLwIBSUnj+Kw3ZGHmFj9YfJy45h1fn76dtDXfGPxMiAymEKEcMBgO/HL3M5xtPkJhZAED7EA8+6haKt5O1iaO7C10RrH0DolaB2gx6/QhB7UwdlRAVgiRfhBCiFFGpVDQLcqVZkCtnk7JZ8Pc5Jh1wZmFBe8aYLaejZj8cnI/+6HLUTYZB07fA2snUYQsh7kJbpGdTVAKL/znP/nNpxv11fR0Z1LwqnWp5Yl6aR8oJIYQQN3PyUxIuC55R1n75sQu8vEHZX8GoVCq61PGiRXVXvtt+mvm7z7E95io7TyczuEUAw1sHYmMhXS9ClGVRlzL46JfjxhJjlV1sGP9MCE+HlIEBkboiWPs6RK2+kXip+YypoxKiwpBPAEIIUUpVc7Pj42dr8fbTwaw4cIFP/q7KvIxDjDNfSljRWdg5hcK9P6Bp8TbqiNfBvJSPthGiArqUnsfSvedZsT/eWFpMo1bRIdSDgU8FUL+KMyqVysRRCiGEEA/gegLmx2dumgGzAZwqmzoyk7C3Mue/XULo09CPCeuj2Xk6mem/n2X1wUuM61KTrnW85H++EGVMao6Wr7aeZNm+CxgMYG2u4c02gQxqFoCVeRlY30lXBGsGw/E11xIvCyTxIsQTJskXIYQo5RxtzHm9RTUGPhXA1uiaTP7nKWzjtvCu2UqCtJdg2wdk/zUVQ8v3sG/8CmjkrV0IU9LrDew8k8yiPefZEZOI3qDs93CwpF+jyvRtWBlPRyvTBimEEEI8Co6+1xIw/ypBVkETMACB7vYsHNiIrdGJfLIhmotpeby17DBL/jnP+GdCqOXjaOoQhRB3UajTs3TvBaZsPUlmfhEA3ep6M7ZzDbwcy8igR10hrH7txhovvRdAjS6mjkqICkd66IQQooww06jpXNuLzrW9OJtUm2X/9KTg4FLeMKzEV5sEv73N1T/+R3rjMQS2ehG1pgyMxBGiHLmSkc+qg/H8dPAi51NyjfubVqtE/8ZVaBfiIaXFhBBClD+OPjdKkKXG3ihB5lzF1JGZjEqlokOoJy2ruzHrz1hm/HGGvXGpdJ22i+fCfXinfXDpXyNCiArIYDDwW3QiX2yOITYpB4AanvZM6BZKRNVKJo7uPugKYfUgiP5ZSbz0WQTBnUwdlRAVkiRfhBCiDKrmZsf7XWuT3/FTNh4ezJa/vqd71jLcCy/ivnMEJ3f9j+iQUTRs2xNfF1noU4jHRVukZ/uJRFYciOevU0nGWS72lmb0rO/LS40rE+hub9oghRBCiMftegLmx2cg9azy85WKnYABsDLX8H/tguhZ34dJm0/yy9HLrDl0iV+PJTCoWQBDW1XD3src1GEKIYCj8el8tvEE++JSAXCxtWBUuyD6NaqMWVkaQKUrhFUD4cQvoLGA3osguKOpoxKiwpLkixBClGFW5hp6NKoKjSYTHTeSQ5un0PTKEoKJJfj4CPZHTmWR+0BCnupKh1peZaMurRBlwKnELFbsj2ft4Uuk5miN+xsFuNC7gR+da3vK4rpCCCEqFgdvJeFiTMB0gZfXg0uAqSMzOV9nG77rF86gZgHGzt0Zf5xlxf54/u9a567MjhXCNOJTc5m05STrj14GwNJMzaBmAQxpVQ2HspYcLdLC6oFwYr2SeOmzGKp3MHVUQlRo0isghBDlREiADyFDvyYvbQxnNnxK5bPLaKg+RcPk99i79keG/dwbz7rt6VXflzA/J1nwU4j7lJxdwIajl1l75DJH49ON+93tLelZ35feDfwIcJWZZkIIISowB+8bJchSzsD8zjDgZ3CrburISoW6fk6seL1xsbJGH/x8nB93n2N0xxp0CPWQz+hCPCHpuVqm/36GBX+fR6vTo1JBj3Bf3m5fvWyWBSzMg5UD4PTWa4mXJVC9vamjEqLCk+SLqDASEhIYPXo0KSkpaDQahg0bRqdOUvPyuuHDh7Nv3z6aNGnCd999Z+pwxEOwdvYgsP9UyBxH1vbJWB9bRIQ6hgg+5p/DP/HFvudJdKlPt7redAvzlpJIQtxBTkERv0UnsvbwJXadSUZ3ra6YmVpFmxru9GnoR8vqbmWrFIEovYq0cHwtWNhCzWdMHY0QQjwYBy8lAbPwWUiKgfmdYMA68Kxt6shKBZVKRftQT1rXcGf5vgt8s+00sck5DFl8kNo+jrzdvjotq7tJEkaIxyQrv5C5u+KYuzOOrIIiAJoFujK2cw1CvR1NHN0DKsiGZX3h3E4ws4a+iyGwnamjEkIgyRdRgWg0GsaNG0fNmjVJSkqiR48etGzZEhsbG1OHVioMGDCAnj17sm7dOlOHIh4VBy/sn/sa2r6DYefXGA4uoDEnWGH5CX9nhvC/35/nux01CPFy4Nkwb7rW9S6bI3yEeMQKdXp2nU5m3ZFLbD2eSF6hznisrq8jz4b50LWuN272liaMUpQrRQVwZAns/Boy4kGlgfHJoJaknhCijLL3hFc2wuLnIOGoUoLspTXg28DUkZUa5ho1/Zv40z3ch9l/xTJ3VxyRlzJ4Zf5+Gvo783b7YBqXpQW+hSjlcrVFLPj7PLP+Okt6biEANb0cGNMxuGwnPPPSYUkvuLgPLOzghZXg/5SpoxJCXCPJF1FhuLu74+7uDoCbmxvOzs5kZGRI8uWaiIgI9u7da+owxOPg4I2qy1eomo2CXV9jOLSQpkTTVPMxu/W1+OZKDyZuqsHETTE08nehW5g3HWt54monHcui4ijU6dkbm8rGqAS2RF0h5aZ1XKpUsuHZMB+6h3lT1c3OhFGKckebC4cWwO7vIEupM46dJzw9QRIvQoiyz7aSsubLkl4Qv1eZCfPCCvBvZurIShV7K3Pebh/MK039mfnnWRbuOc/+c2n0nf0PzYNcebt9MGF+TqYOU4gyK79Qx7J9F5j++1mSswsAqOZmy3+eDqZTLU/U6jKadAHISYZF3eFKJFg5XUty1zd1VEKIm0jyRTxyS5YsYe7cuSQlJVGjRg3Gjx9PnTp17vg7iYmJTJ48mZ07d5KXl0eVKlX4/PPPqV279n21uVdRUVHo9Xq8vLzu+3dvZf/+/cydO5eoqCiSkpKYPn067dq1u+82/6bT6Zg6dSq//PILycnJuLu789xzzzFs2DDjqIzs7Gy+/fZbtm3bRkpKCiEhIYwbN+6uj7kpzJ49mylTpjBgwAD++9//Gvdfv58///wzKSkpt7yfN2vTpg2XLl0qsf+FF17gww8/BGDp0qUsW7bM2C4oKIhhw4bRsmXLx3TvygBHH+gyRUnC7JwChxbxFFE8ZRnFCfNQvszpwh/n6rLvXCof/BxFQ38XOtbypEOop8yIEeWStkjP7rPJbIpM4LfoRNKujYADqGRrQde63jwb5i1rJIlHLz8TDsyFv6dBbrKyz94Lnvo/qP8KmMt7rhCinLByVDoDl/eDuL9gcU9lHYIgKYfzb5XsLPlvlxAGNavKtN9Ps2J/PDtPJ7PzdDLtarozok0QdSUJI8Q9yy/UsergRab/foaEjHwAKrvYMLJdEM+G+aApy0kXgMwEJamdfBJs3aD/OvCsZeqohBD/IskX8Uht3LiRiRMnMmHCBOrWrcuCBQsYNGgQmzdvplKlW0+ZzsjIoF+/fkRERDBnzhycnZ05f/48jo6O99XmXqWnpzNmzBg++eSTu7adOnUqly5d4osvvrhju9zcXIKDg+nZsydvvvnmA7f5tzlz5rBs2TK+/PJLAgMDiYqKYuzYsdjb2zNgwAAA3n//fU6fPs2kSZNwd3fnl19+4dVXX2Xjxo14eHjc0+08iHt9bK47duwYy5cvJzg4uMSx6/dzwoQJhIaGcvz48RL382arVq1Cp7tRBuj06dO8+uqrdOzY0bjP09OTd955hypVqmAwGFi3bh3Dhw9n7dq1BAUFPcA9LkccfeGZ/0GzUbDrf3B4MTULj/OjxXGS7YL5geeYnVyLvXGp7I1LZcL6aOr6OdEx1JOOtTxlQXFRpuUX6th1OpmNUUrCJSu/yHjMxdaCDqGedKrlSZNqlTCXdVzEo5abCntnKlt+hrLPqYryfhz2ApjJjEMhRDlkaQcv/AQ/vQynNivrEvSaDzW7mjqyUsnT0YpPu9fmjRbV+G77aVYfusi2E1fZduIqzYNcGdEmiEYBLqYOU4hSK1dbxNK9F5j9VyxXs5SZLl6OVoxoE0SvBr7l4zN+2nlY2A3SzoG9N7z8C7hW8H4OIUopSb5UQO+//z7JycnMnDnTuO+TTz4hMzOTyZMnG/ft3bv3lh3fAAsXLiQiIqLE/vnz59O7d2969uwJwIQJE/jjjz9YvXo1r7/++i3PNWfOHDw9PZk4caJxn5+f33232bBhA+PGjWPbtm3G8mJjx44lKiqKpUuXYm9vj1arZfjw4QwePJh69erdMp4H0bJly7vOqLiXNv92+PBh2rZtS6tWrQDw9fXl119/5dixYwDk5+ezdetWZsyYQcOGDQEYMWIEv//+O0uXLmXUqFHAvT02j1NOTg7vvvsun376Kd9///1t72fz5s2xsbHBz8+v2P38NxeX4l82Zs+eTeXKlWnUqJFxX5s2bYq1GTVqFMuWLePIkSOSfLnOqbKShGkxGvZMgwPzcc0+yXt8wdte1fjbcwDfp9Zj74UsjsanczQ+nS83x1DD056nQzxoXcOdur5OZX/EkCj3rmbmsz3mKttPXGX3meRia7i42VvSMdSTTrU9aeTvgll5+DImSp/sq8r77P65oM1W9rlWh+ZvQ63nQSMfyYUQ5Zy5FfRZDGsGw/G1sPJl6P491O1j6shKLT8XGyb3qsuQVtWY8ftZ1h25ZJwJ0yjAhTdbB9I8yFVm5wpxTWZ+IQv/Pse83edIvVZC2MvRijdaVKVvo8pYmWtMHOEjknxamfGSeUkZxPPyL+Dsb+qohBC3Id/0KqAuXbrw+uuvk52djZ2dHXq9ni1btvDpp58WaxceHs6uXbtueY5bzTjRarUcP36cN954w7hPrVbTtGlTDh8+fNt4duzYQbNmzXjrrbfYv38/Hh4evPDCC/Tu3fu+2nTp0oXZs2cza9Ysxo8fz3fffcfff//NypUrsbe3x2Aw8N5779G4cWO6d+9+rw+XSYWHh7Ny5Uri4uIICAggJiaGgwcP8t577wFQVFSETqfD0rL4SFlLS0sOHTpkvH63x+Zx+/jjj2nZsiVNmza9ZfIlPDycFStWcP78eWrWrFnift6JVqs1zva53RcPnU7H5s2byc3NJTw8/KHvT7nj4AUdPlM6AffOgr0zMU87S8u0D2np6EdWp6H8ataOX0+ks+dsCjFXsoi5ksXUHWdwsbWgVXU3Wtdwp0WQG4425qa+N0JgMBg4fjmTbScS2X7iKpGXMood93K0okOoJ51re1G/irMkEMXjkxoLe6bD4cVQpJS7wKM2tHgbanYDdTnpBBBCiHuhMYeec8HcBo4sgbWvQ14qNB5q6shKtWpudkzpXZeR7YL4/s+zrDpwkX1xqQyI20ddX0eGtw6kXU2Psr1uhRAPITVHy7xdcSzYc844q71KJRuGtqxGj3q+WJiVo8FVlw4q62jlpigDeQb8DA7epo5KCHEHknypgCIiInB0dGTHjh1069aNAwcOUFhYyFNPPVWsnYWFBW5ubvd83rS0NHQ6XYnyYpUqVSI2Nva2vxcfH8+yZct49dVXGTJkCJGRkXz66aeYm5vz3HPP3XMblUrFqFGjeOutt3B1dWXx4sUsWbLEWHrr4MGDbNy4keDgYLZt2wbApEmTSpTBOnDgAIMHDwagsLAQg8HAli1bAGUGToMGDe75MXlY15NknTp1QqPRoNPpGDVqFN26dQPAzs6O8PBwZsyYQdWqVXF1dWXDhg0cOXKEypUrG89zt8cG4JVXXiEmJoa8vDxatGjBt99+WyJR8SCPza+//kp0dDSrVq266/3s0aPHLe/nnWzbto2srCzj8+BmJ0+epG/fvhQUFGBjY8P06dMJDAy86zkrLBsXaD0Wmr4JB+YpaxFkxGO/Yxx9bf9H30avk/Fsf7ad17Ej5ip/nUoiNUfLmsOXWHP4Ehq1ivqVnWldw53WNdwI9rCXkXjiiUnJLmD32RR2nU7ir1PJXMnML3a8rp8T7Wq406amOyFeDvLcFI/XxQOw+1s4sR4wKPt8GkCLd6F6B5DnnyhlCgoKGD16NCkpKWi1WsaNG0dYWJipwxLlkVoD3aaBpQPs/R42v6fMDmz7gbw33oWfiw2fP1ebt9oEMfuvWJbuO8/Rixm8vugg1dxsGdSsKj3q+ZSf0f1C3EVsUjZzd8Wx+tBF8gv1AAS52/Fmm0C61PYqfzPaz+6A5S9BYQ54hcGLq8Du3vvshBCmIcmXCkitVtOpUyc2b95Mt27d2LRpE08//TTm5sVHrN/c0f5vjzIJYTAYqFWrFv/5z38ACAkJ4fTp0yxfvtzYoX4vbQBat25NYGAg06dPZ968ecXKSzVo0ICYmJi7xlOrVi3WrVsHwKJFi0hMTOSdd94BeKxrqNzKpk2bWL9+PVOmTCEwMJATJ04wceJE44L0oCSQxo0bR4sWLdBoNISEhNClSxeOHz9e7Fx3emwAfvzxx7vGc7+PTUJCAp999hnz5s0rMTvnVvfz888/JyQkhJiYmBL383ZWr15NixYtbnn7AQEBrFu3jqysLLZs2cKYMWNYvHixJGDuxtJeWfS50RtwZDHs+hYyLsDvn+G482t6hr1Az47DKewbxoFzafxx8io7Yq5y+mo2+86lsu9cKl9ujsHVzpKm1SrRLNCVpoGV8HW2MfU9E+VIfqGOg+fTrpXfSOL45cxix20sNDQPcqVtDQ9a1XDD3d7KRJGKCkOvh9NbYPd3cOHvG/sDn4an3gL/5tKxKEqtVatWUbVqVb799ltiY2MZO3YsK1asMHVYorxSq6HjRKXTcPvHsOtryEmCZ76RMoz3wNPRig+6hjCsdTXm7Ypj0Z7znE3KYdzaSKZsPclLjavQv0kVXO1kHTFR/hgMBvbGpfLDzli2x1zFcG2MS20fZRZY+5ByOgssajWseQP0hRDQEvouUb63CyFKPflkU0E988wz9O/fn+zsbH777bdia71cd3NH+7/dqqPb2dkZjUZDSkpKsf0pKSm4urreNhY3NzeqVatWbF/VqlWNMyrutQ3AX3/9RWxsLHq9vsQMnHtlZWVFlSpVAKW8WnZ2tvH6kzZp0iRef/11unTpAkBwcDCXL19m1qxZxqRE5cqVWbx4Mbm5uWRnZ+Pu7s7IkSNLrIljisfm+PHjpKSk0KNHD+M+nU7H/v37WbJkCZGRkWg0GiZNmsTgwYPp0KEDNjY21KhRo8T9vJVLly7x999/M3Xq1Fset7CwMMZXq1YtIiMjWbhwIR9//PGD3P2Kx9wKGr4G9V6G4+tgz1RIOAoH5sKBeZjX6EKTJm/SpFNjxnauSXxqLr9fS8T8E5tCcnYBvxy9zC9HLwPgX8mGpoGuPFXNlSbVKuFia2Ha+yfKFG2RnqjLGeyLS+Xvsynsi0sxjnC7roanPc2DXGkW5EZEgIuM/BRPRlEBHFuhzBZMPqnsU5tD7V7QdAR4hJg2PiHuwbPPPmucEajT6UoMyhLikVOplJK3Nq6wYSQcXgS5qfD8XDC3NnV0ZYKrnSWjO9ZgaKtqrDxwkXm74riUnse320/z/Z9n6RHuw2vNAwh0lw5aUfYV6vRsjEzgh51xxUoKt6vpzqBmVWlc1aX8zmzfNwc2vgsYIKQ79JgNZpJcFaKskORLBVW3bl08PDyYM2cOBoOh2ELl193c0X4vLCwsCA0NZc+ePbRr1w4AvV7Pnj17eOmll277e/Xq1SMuLq7YvnPnzuHj43NfbY4fP87IkSP57LPPWLt2Ld9++y3ffffdPcdfGuXn55f4AKHRaDBcH95xExsbG2xsbMjIyGDXrl28++67xmOmemwaN27M+vXri+0bO3YsVatWZfDgwWg0Ssdofn4+anXxKcG3u583W7NmDZUqVaJVq1b3FI9er0er1d77HRAKjTnU6QW1n4dzO5UOxtNbIGaDsvk0gKZv4lejKwOa+DOgiT8FRToOX0hn95lkdp9J5ujFDM6l5HIu5QJL914AoLqHHQ38XWjo70yDKi74OluX3w/M4r7lFyrPoX1xqew7l8Kh8+nkFeqKtXG3t6RZkCvNg1x5KtBVZreIJysnBQ7Oh32zITtR2WfpAPVfUdYvkPrbohRasWIFixYtKrZv7ty5xoFVqampjB49mtGjR5siPFER1X8ZbCrBqoFw8ldY1AP6LQNrJ1NHVmbYW5kzqFkALzepwubjV5izM46j8eks3x/P8v3xNA9y5aXGVWhbw738lWES5d7VzHyW749n6d4LxrLClmZqetb3ZVCzAKq52Zk4wsfIYIA/JsKfXyrXG74GnSbJmoFClDGSfKnAOnfuzPz58+nVq5exE/xhvfrqq4wZM4ZatWpRp04dFixYQF5eXrGZD4sXL+a3335jwYIFALz88sv069ePmTNn0qlTJ44dO8bKlSuLzU64W5uLFy/yxhtvMGTIEJ555hn8/Pzo06cPx48fJzQ09IHvz4gRI+6pXU5ODhcuXDBev3jxIidOnMDR0RFvb+97bvPvx6Z169bMnDkTb29vY9mx+fPn07NnT+N5du7cicFgICAggAsXLjBp0iSqVq1qfMxN+djY2dlRvXr1YvtsbGxwcnIqtv/6/XRxcSE0NJSYmJgS9/Pfj41er2fNmjV0794dM7OSb2VTpkyhRYsWeHl5kZOTw4YNG9i3bx9z58590LssVCoIaKFsSSdhzzQ4ugIuHYCfXgGnyhAxBMJexNLaicZVK9G4aiXebh9MVn4he2NT2X1WScacSsw2bteTMV6OVsZkTP0qzgR72MsXxArCYDBwJTOfIxfSORKfzsHzaRy9mE6hrngC1tnGnIb+LjQKcKF5kBvVPewkYSeevCuRsHcmHPsJdAXKPntvJeFS/xWwcjBpeELcSZ8+fejTp88tj8XFxfHWW28xatQomjRp8oQjExVazWeg/xpY1k8p2zi/M7y0Ghy8TB1ZmWKmUfNMHW+61PbiwPk0ftgZy9boxGslWpPxcrTihUaV6dPITwasiFLtemmxRf+cZ0vUFYr0yncCVzsLBjTx56XGVcp/FQW9Dja+o6zFCtBqLLQcIyVshSiDJPlSgXXu3JmZM2fSuXPnR3rO1NRUvvvuO5KSkqhZsyY//PBDsbJjaWlpxMfHG6/XqVOHadOm8fXXXzN9+nR8fX0ZN25cscXW79QmPT2d1157jTZt2vD6668DysyeFi1a8PXXXz+RzvaoqCgGDBhgvD5x4kQAnnvuOb744ot7bvPvx+b999/n22+/ZcKECaSkpODu7k6fPn0YPny4sU1WVhZff/01V65cwcnJifbt2zNq1CjMzc1LxWNzL67fz4kTJ5KWlnbL+/nvx+bvv//m8uXLxRI0N0tJSWHMmDFcvXoVe3t7goODmTt3Lk899dRjvz8VglswdJsKbcYr06D3/wDpF2DLONjxGdTtA41eB/eagDIir12IB+1ClJG1KdkFHDifxoFzqew7l8bxSxkkZOSz/uhl1l8rU2ZlribU25E6vo7U9XWijq8j/pVsy2cN3womu6CIYxeVRMv1hMvVrIIS7TwcLGkUUIlGAS5EBLgQ6GYnf39hGroiOLkR9s6C87tu7PeqCxFDoVZPMCvnnQCiXEtISGDo0KFMmjSJOnXqmDocURH5N4NXN8LinnD1OMxrDy+tBVdZq/F+qVQqGvq70NDfhfjUXJbsvcDKA/EkZOQz5bdTfLv9NB1qedK/cRUiAspxqSZR5mTlF7L28CUW7TnP6avZxv0NqjjTv0kVOtbyxNKsAsz6KMyDNa/DiV8AFXSZAg0HmToqIcQDUhnuVtenAtPpdBw5coSwsLASM0Py8/OJi4sjICAAK6uyOWpk9+7djB8/nu3bt8sHLmFyBoOB3NxcbGxsTPJ8LA+vaZPS5sKx5bB3NiSduLHfvzlEvAHVO91xAdVcbRFH4tM5cC6N/edSOXIhnayCohLt7K3MqOPrSB1fJ2p42lPTy4EAV1vMZYbME3Wn/4//djUrn+jLmZxIyCI6IZPoyxnEJufw708fGrWKYA97wio7EebnRESAC5VdTPN+IIRRbiocWqgkmDOuDQBQaSDkWWWmn1+jMjEC8X5es/fTVpieVqulR48ejB8/noiICAAKCgqYMGECW7duxcrKioEDBzJw4MA7nmf8+PH8+eefxpLDzs7O91yiVp4z4pFKjYPFPSA1Fqydoe8yqCIzsR5WfqGOTVEJLP7nAgfPpxn3V3WzpVd9P3rU88HDoXx8B5L3pLJFr1dmufx0MJ5NkVeMZYZtLDR0D/fhpYgqhHhXoFnFOcnKLMCL+0BjAT3mQGh3U0clygB573vy7vUxl5kvFdDVq1c5ePAgs2bN4vnnn5eOLSHEw7OwgQYDof6ryrow+2ZDzK/K5XM7wdFPGa1T72WwcSnx6zYWZjSt5krTasosOb3eQFxKDscupnM0PoNjF9M5fjmTrPwidp9JYfeZlBs3rVFTzd2Omp72BHvaU8PLgRqe9rjbW8r72xOUXVDE2avZnE3K5mRiljHhkpxdckYLgI+TNWF+TtT1cyTMz5laPg7YWMjHElFKJByDA3OV0opFeco+axdo8Co0GASOPnf+fSGegIKCAt5++21Onz5dbP+kSZOIiopiwYIFXL58mTFjxuDt7U3Hjh1ve65PPvnkoePR6XR3byTE3ThWhlc2oV7eD9XlQxgWPovh2ekYQnvc/XfFbZmroVsdL7rV8SL6ciZL9l3gl6MJxCbl8OXmGCZviaFFkBu96vvQpoY7FmZld2DT9fcieU8q3S6n57H60CXWHL7EhdQ84/5AN1tejKjMc+He2FuZAxXob5lyFvXyPqhSYzFYOaLvvRiqPAUV5f6LhyLvfU/evT7WMvPlDsrrzJezZ8/y/PPPExYWxowZM7C2tjZ1SELIzJfyKD1e6bw8uADyUpV9ZlZQ63mlA9On/n2NGC/U6TmVmMWxixlEXsrg5JUsTl7JIvsWM2QA7CzNCHC1paqb7bWfdlR1VS7bWkon/4PQ6ZW1WWKvZvHX4ZPkWzoRl5zLmavZxgUw/02lgqquttT0ciDE24GQaz+l1rgodbS5cHwNHJivrGV1nUdtaDxEKS1mXjY/M8nMl/LnzJkzvP322xgMBk6ePMnChQuJiIggNzeXxo0bM2fOHONMmBkzZrBnzx4WLVr0WGK5/pwR4lFSFeVT9dBnOCXuBuBizcEkVutbJmYblhV5hXp2X8zn97g8YlIKjfvtLVQ0r2xNK39rqjqZyWAm8cjkF+nZf7mA38/lcSxRy/XOSGszFU/5WdEmwJrqLuYV8jlnmxpF4L73MSvMpMDakzMRE8m3r2LqsIQQ90BmvogSqlWrxuHDh00dhhCivHPyg3YfKQsDRq2BfbMg4SgcWaxsHrWUxalr9wJrp7uezlyjrAET6u1Iv2v7DAYDF9PyiLmSRUxCpvLzSiZxyTlkFxQReUlJ1Pybh4Mlvs42+DhZ4+tsjY+z9Y3LTjZYW1TMDked3kBKTgEJ6fnEp+VyITWX+NQ8LqblEp+ay6X0PAp1N4/ZyCz2+652lgS62xLobkeIlyM1vZTZSDKjRZRqV2Pg4Hw4sgwKrr1fqM2hZldo+BpUaSqdfaLU2bdvHxEREYwaNYqwsDDj/piYGIqKiggPDzfuq1+/PjNnzkSv16NWP77R7LVr15aEnXi06q1D/9t/Ue+bje+JOXjbFGHo+CWo5XPFo9KkIbwDxCZls/rQJdYevkxiVgEbz+Sy8Uwu/pVs6FrHi2fqeBHobmfqcO+JTqcjMjJS3pNKiYIiPX+dSmJDZALbT6QYy4oBRAS40Ku+Dx1CPSr294Xon1H/8y4qXQEGr3DM+i6jhp27qaMSZYy89z151x/zu6nA725CCCGeCHNrCH8Rwl6A+H1KJ+fxtZAYBRvfga3jlRHl9V8B3wb31cmpUqnwc7HBz8WGp0M8jPsLinRcSMklNjmH2KQc4pKzibt2OSVHS2JmAYmZBcVqXt/MxdYCd3tL3G7e7IpfdrQxx9HavNQv+qjTG8jMKyQtV0tabiHpuVpScrRczcwnMbOAK5n5xstJ2QXo9HeeEGumVuHjbI2bhY7wQG+CPOyp5mZHoJsdjjbmT+heCfGQigog+hc4MA8u/H1jv1MV5b0o/CWQL72iFHvhhRduuT8pKQlnZ2csLCyM+1xdXSkoKCA9PR0Xl5KlPx8VjUYjX/bFo6XRQOfJ4FIVNo9FfXA+ZFyEXvPB0t7U0ZUrQZ6OvNfZkXc61GDnmWRWHbzItuhEzqXkMvX3s0z9/Sw1vRzoWteLrnW88XOxMXXIdyXvSaZTpNOzJzaF9UcvsznqCpn5NyoVVKlkw7NhPjxfz5fKlUr/8+ixMhhgzzTl+zAGqN4J1fNz0VjYmjoyUYbJe1/pI8mXR8xgMBTL5D9u1uaaCjklUwhRBqlUUDlC2TpOhGMrlfI+SSceeDbM7ViaaQjysCfIo+QX84zcQuJScriUlsel9FwupeVxMS2PS+l5XErLI6ugiNQcLak5WmKuZN31tqzM1ThamxfbHKzMsbLQYG2ubFbmaqzMNVgZr2vQqJXkkUalQq0GtUqFWqVCo1ahAor0BnR6A4U6PUV6g7Jdu6wt0pOn1ZGjLSJXqyNXW0RuwY3rWflFpF9LtmTmF5ZY3P5O1Cpws7fEz1lJavk5W+PrYkPla0kuTwcrMOivlSUKlg92omxJPA6Hl8Cx5ZB7be0olQaCOynlEKu2gcc4M0CIxy0vL69Y4gUwXtdqtaYISYiH13goOPrC6tfgzG8wvzO8sBIcvEwdWbljplHTOtid1sHuZBcUsS06kfVHL/PnqSROJGRyIiGTSZtPUsfXkfYhHrQP9STI3U76JAT5hTp2n0lm6/FEtp1IJCXnxv8cTwcrnqnjRbcwb2r7OMrzBUBXBFvGKmulAjR6HTp+AerS890qISGBhISEEvu9vLzw8pL3XyHulSRfHiGDwcDzM/fcdiT149CgijM/DWki/7yEEGWLtTNEvKF8yIzfBwd/VNZauHk2TM2uENYPAlo+0g+hjjbmhNk4EebndMvjGXmFXE7PIymrQNmyC25czirgalY+ydlaY1Ijv1BPfqEyk6Y0s7c0w8nWHGcbC5xtLPBwsMTDweqmTbleydYCM82dO59lDT9RpuSmQtRqOLwYEo7c2O/gA/Vehnr9wcHbZOEJ8ShZWlqWSLJcvy5r2okyrWZXeOVXWNoHrhyDOW2g31LwDr/774oHYmdpRvdwH7qH+5Ceq2Vz1BV+OXqZPbEpHLuYwbGLGXy19RT+lWxoH+pJ+xAPwis7o1FL30RFkZFbyI6TiWw9nsifp5LI1d74kuBsY07n2l50retNI38X1PK8uCEvHVYNhLPblevtP4Mmw0tdmdvlsyazaNa3Jfb3f+P/GPXR1yaIyLR0Oh2FhYV3b2gi1xd/z8/PlwGSD8jc3PyxPHaSfHnEStdbpRBClHLFZsN8Dsd+UsqSXY2GyJXK5uADdfooZctcgx57SNdnr9S8y2Aevd5AVkERmXmFZFzbrl/OzC8kT6snr1BH/rUtr1BHnlZHfpGefK0OvcGAzmBAb1DOpTcoM130BgMGA2jUKsw1asw0KszUKszUNy6ba9TYWpphY6G5tplha6nB2sIMWwsNtpZm15Is5jjZWOBkY475XRIqQpQreh2c/V2ZURfzK+iudUarzSG4I4S9BIHtQCMfhUX54uHhQVpaGkVFRZiZKc/vpKQkrKyscHBwMHF0Qjwk3wbw2jZY2huST8G8TvDc9xD6nKkjK/ecbCzo26gyfRtVJimrgO0nEtkanciu08mcS8ll9l+xzP4rFlc7C1oFu9OiuhvNA11xtrW4+8lFmWEwGIi5ksWfp5L482QS+8+lUnRTyWJvRytjIq5hgIt8/7iVlLNKEjnlNJjbwHMzIeRZU0dVUno8IzWLGPVGybWeDJpFkD5KWeO1AjAYDFy5coX09HRTh3JHBoMBMzMzzp8/LwP0H4KTkxOenp6P9DGUb5yPkEql4qchTaTsmBBCPAhrZ4h4HRoNhsuH4MhSiFwFmZdg19fK5ttImQ0T2uOhypI9Cmq1ypioqRgfO4UoA5JPK+8dR5dD1uUb+z1qKeu41O4Ftq6mi0+Ix6xmzZqYmZlx5MgRGjRoAMDBgwepXbs2aimpJ8oDlwAlAbNqIJzZBj+9AkknocVoKRv5hLjZWxoTMdkFRfx5Momt0VfYEXOV5Gwtqw5eZNXBi6hUUMfXiZbV3WhZ3ZW6vk53nV0tSp+0HC27ziTz56kk/jqVxNWs4rP9gz3saR/qQYdQT0K9HaR/6k5i/4SVAyA/XRlg2G8ZeNU1dVS3lpuCSnfrcqUqnVYp31tBki/XEy/u7u7Y2NiU2ue4wWAgLy8Pa2vrUhtjaWYwGMjNzeXq1asAj7S0XrlPvhQUFDB69GhSUlLQarWMGzeOsLCwx3Z7KpUKG4ty/7AKIcTjo1KBT31l6/A5nNykdKae2QYX9ynbpvegRheo2xeqtgYzGVUnRIWVmaCULTy2snhZMWtnJdkS9qLyxVa+hIgKwNramu7du/PRRx/x+eefc/XqVebNm8fEiRNNHZoQj46VI/RbAb99AP9Mhz8mwtUT0P17sKjgC3g/YXaWZnSp40WXOl5oi/Tsi0vlz1NX+etUMicTszgan87R+HS+234aByszIqpWIiLAhcZVK1HTy0FKlJVCGXmFHDiXyt64VPbGphB5KYObJrdgba6hSbVKtAhypVWwO/6usjj8Pdk/Fza+CwYd+DSAvkvA3tPUUYm70Ol0xsRLpUqVTB3OHRkMBvR6PVZWVpJ8eUDW1tYAXL16FXd390dWgqzcZwlWrVpF1apV+fbbb4mNjWXs2LGsWLHC1GEJIYS4F2aWENpd2bISlTJkh5dA0gmls/X4GqWDNeRZqNUTqjxVqhYpFEI8JvkZEP0LRP4EcX8B13oFVBqo1gbCX4Tgzsp7iBAVzNixY/noo494+eWXsbOzY8SIEbRv397UYQnxaGnMlJK17jVgw38geh2kxUHfZeDoY+roKiQLMzXNglxpFuTKf7tAQkYeO08l8+fpJHadTiYjr5DfohP5LToRAHsrMxr6uxAR4EJE1UqEejtImSoTSMku4MD5NPbGprI3LoXohEwMhuJtgj3saRnsRosgNxr4O2NlLt+37pmuCLaMhX2zleu1e0O3qWAu67CVBdfXeLGxkcR+RXH9b11YWCjJl3v17LPPGjN+Op0Oc3NzE0ckhBDigdh7QNMR0ORNZXT70eUQtQZyrsLBH5XN3kup+137efCuJyPdhShPCvPh9FYlCXtqK+huKnvhF6HMcgl9TsqKiQrn5MmTxa5bW1vz5Zdf8uWXX5ooIiGeoHoDwKUarOwPCUdhThvouxR865s6sgrPy9Ga3g396N3QD53ewLGL6cbZFAfOpZGVX8SOmKvsiFFKvFiaqQn1dqCunxNh17bKLqW3xE9ZlF+o4/jlDI7EZ3AkPp0j8WnEp+aVaBfganstKabMUvJytDZBtOVAbqpSIjH2d+V6m/HQ/G35jloGyftQxfE4/tblJvmyYsUKFi1aVGzf3Llz8fDwACA1NZXRo0czevRoU4RXJiUkJBhLtmk0GoYNG0anTp1MHZYQoqJTqcA7XNk6fA7ndiqj36PXQ1YC/DND2ZwDlNkwtXqAe4h8yBWiLCrMgzPbIfpnOLUZCjJvHHOroSRcaj8Pzv4mC1EIIYSJ+T8Fg3fA0r7K7Oj5naDLFKjX39SRiWs0ahXhlZ0Jr+zMkJbV0OkNRF/OZG9cCv/EprL/XCoZeYUcupDOoQvpxt9ztjGnjq8Tod4O1PByoIanPQGutjJD5h5k5BYScyWTmCtZxFzJJOpSJicSMinSG0q0DXS3M85AighwwcNBZmU8tCuRsOIlSDsH5jbQYzbU7GrqqIQQJlBuki99+vShT58+tzwWFxfHW2+9xahRo2jSpMkTjqzs0mg0jBs3jpo1a5KUlESPHj1o2bKlTLcTQpQeag1UbaVsXb5W1oWJXKWsE5MWBzu/UjaXasqH3ZBuMiNGiNJOmwtnfoPj6+DUFijMuXHMwUdJqtbuBZ615bUshBBC4ewPg7bC2jfg5Eb45U24dBA6fSklKEshjVpFbV9Havs68lrzqhgMBuKSczh6MZ2j8Rkcjk/nxOVM0nIL+fNUEn+eSjL+roVGTaC7HTW87KnhaU9VVzsC3Gzxc7bBwqziJWXSc7XEJucQl5TD2aRsJdmSkMnljPxbtne1s7w2s8iRMD9navs64mgtFWIeqchV8PObUJQHTlWU9V08a5s6qvtjUwmDxgKVTlvikEFjgcqmdK9/UlF17tyZK1eusGjRIho1anTLNi+88AIHDx7kk08+oXfv3g98W1OnTmXevHkcPHgQtfre3nsnTpzI+vXr+fvvvx/4dsuicpN8uZ2EhASGDh3KpEmTqFOnjqnDKVPc3d1xd3cHwM3NDWdnZzIyMh5p8qWgoIAJEyawdetWrKysGDhwIAMHDrxlW61Wy8SJE9mwYQPm5uY8//zzjBo1yjgl7G7HhRDlnJkl1OiibAXZSgImajWc3QGpZ2H3N8rm4HsjEeMXIWvECFEaFGTD6S3KDJfTv0Fh7o1jDr7Kuk4hz4JvQ7jHD/dCCCEqGCsH6LNEGXjz++dwcD4kRkHvheDgberoxB2oVCqqutlR1c2O58J9ASgo0nEiIYvIi+mcuJZQOHklixytjuiETKITMoudQ60CX2cb/CvZYGfIpX7uOXycbfFxssbLyYpKthZlsm+goEjHlYx8Lqfnczk9j8vpecSl5BCXnMO55BzScgtv+7s+TtbU9LKnhqcDNb0cqOvniI+TdZl8HMoEXRH89gH8M125Xq0N9JwLNi6mjetBOPnxja4/i2Z9W+JQ/zf+j1FOfiYIStxJcnIyV65cASA2NvaWyZfNmzdz5MgRAGrXfriE4NGjR6lVq9Y9J14AIiMjH/p2y6JSm3zRarX06NGD8ePHExERAdxfR/11M2bMIDc3l8mTJwPg7OzMd99999jjLwteeukl9u/fD4C5uTl+fn4MGzaMrl1LToWMiopCr9fj5eX1SGOYNGkSUVFRLFiwgMuXLzNmzBi8vb3p2LFjibaffvope/fuZe7cueTk5DBq1Ci8vb3p27fvPR0XQlQglnZQp5eyFWQp60RE/6J06mZehL3fK5ut+7WEzTPg30wWPhTiScq8rJQSO7kJYv8svoaLU2UI6a5sPjJbTQghxD1Sq6HlaKU87epBcHE/zGoBvX5UPuuJMsPSTGNc++U6vd7ApfQ8TiQo5bROJmZxLllJRORqdVxIzeVCqjKAY+OZmGLnszBT4+VohZejFR4OVrjYWlDJ1gLnaz9dbC1xsbXAwdoMWwszrM01qNWP/vOHtkhPrraI7IIiMvIKSc3RkpKtJSVHS2pOgfF6YmY+l9LzSc4uuOs5vRytCHC1JcDVlhqe9tTwcqC6h73MaHmSspNg1atKSWxQ1nZp/d8yPdCv7xvv0rLbSyX2P+p+QfFoREZGAlC5cmXi4uJKHNdqtXz11VcEBgZy/vx5goKCHvr2evTocc/tdTod0dHRvPbaaw91u2VRqUy+FBQU8Pbbb3P69Oli+++no/66Tz755KHj0el0t9xnMBiMW1ljMBiIjo5m9OjRdO3alYKCAhYtWsSYMWMICwvD19fX2DY9PZ0xY8bw8ccfP9L7mpuby08//cTs2bMJCQkhJCSE1157jcWLF9OhQ4dibdPT01m9ejXz5s0zZklfffVVjh49Sp8+fe56XJR+159bpno9XX8t63S6W77mRRlmZgM1uytbYR7E/o7qxHpUpzahyrmqjIo8OB+DuS1UbYUhqD2GwKfB3tPUkZda118j8loR98VggCuRymvv9BZUCUeKH3apiqFGNwwh3cCz7o2Ei17/5GMtZ+7nNSuvayFEuRD0NLz+B6zor8x+WdAN2n8KjYdKQr8MU6tV+LnY4OdiQ/vQG5/VDQYDSVkFxCbnEHs1i70nzlFgZkdCZgEJ6XkkZRegLdJzPiWX8ym5d7iFG1QqsDHXYGNphp2lkowxN1NjplahUauK/VSrVBTpDej0Bor0enR6A4U65bq2SE92QRG52iJyCnRodff/ucbSTG2cwePlaI1/JRsCXO0IcLXF39UGG4tS2bVXcVw8CCv7Q+YlsLCD52aWi/VdvLy8JNFShkRGRmJmZkZ4eDixsbElji9atIisrCyCg4OxsbHBzMyMtLQ0vvvuO7Zt20ZWVhZVq1ZlxIgRtG7d2vh7BoOBH3/8kUWLFpGWlkbbtm0ZOHAg6enpxWax7NmzhxkzZhAVFYWlpSVdunRh9OjRWFoqpT/PnDlDXl6ezHwpDc6cOcPbb79dogP2ekf9nDlzCA0NJTQ0lNOnT7NkyZI7Jl8ehevZw38zMzMjLy8PfRnsFDh//jw5OTk0bNgQW1tbbG1t6dKlCwsWLODEiRO4uCjTIrVaLUOHDmXAgAHUqFGD3Nx7+6ByL44ePUpRUVGx84aGhjJz5kyys7OLTV3bs2cPdnZ21KpVy9j2pZeUDHxubu5dj4uyIy8vzyS3W1BQQGFhITExMXdvLMo4b/B/A1XlgdgnH8EpYSeOiXuwKEiBk7+iOvkrADlOwWR4NCHdvTF5jkHyRf0Wbvf/UYjrVLoC7JOP4Ji4B6fEPVjk36jZbkBFjnNNMjyaku7ZhHw7f+V1lggkHjVZzOWZvGaFEBWKS1UY9Busfwsif4ItY5V1YLp9Bxa2po5OPEIqlQp3ByvcHaxoWMWJYPMUwsLC0GiUWQfaIj2JmUrZroSMfJKyCm6aaVJ4Y8ZJjpbsgiIMBmXMSI5WR45WR1LW3Wef3C8LMzWO1ubXZt1YGGfiuNha4mJngYe9Jd5O1ng7WeNsYy6lwkojg0EZyLdpDOi0UClIWd/FLdjUkYkKKCoqCn9/fwIDA1mxYkWxY6mpqcycOZMhQ4Ywf/58OnbsSFZWFv369UOv1zN+/Hg8PT1ZtWoVQ4cOZfHixTRo0ACADz74gM2bN/P+++8TEBDAvHnzGDZsGHCjdNmGDRt499136dKlCyNHjiQ5OZmPP/4YlUrF+++/D9z4HiLJl1Jg3759REREMGrUKMLCwoz7Y2JiKCoqIjw83Livfv36zJw5E71ef1815u5X7dq1jf+0r8vPz+f8+fNYW1tjZVX2ytScPXsWR0dHatWqhUql4sqVK8ycORMLCwvq1KmDjY0NBoOB999/n6ZNm95xEaaZM2cye/bsO97ehg0b8PYuXmc3MzMTZ2dnHB0djft8fHwoKChAq9UaE0AAV69excfHh61btzJr1iwKCwvp0aMHQ4YMQa1W3/W4KP0MBgN5eXlYW5umBq1arcbc3JzAwMAy+ZoWD6ohMBgMBnRXjimj8U9vRXX5ELbpJ7FNP4n3yR8x2HthCGyHoWprCGgJ1s6mDtykdDqdsV7rv/8/igrOYICkGFSxO1Cd3QHn/0Z1Uzkxg7kNVG2NoXpHDEHtsbZ1wxqQeWaP1/28Zq+3FUKIcsHCBnrMAZ8GsGUcRK2CK5HQewG41zR1dOIJsTBTG2fM3I3BYCC/8MZsFeWnjpyCIop0hhIzXIr0BvR6Axq1CnONuvisGI0KC40GW0sNtpZm2FqaYWdhho2lBnON9FOUaQVZsH6k8p4CENxFmfFi5WDSsETFFRkZSfPmzfH39+fy5csUFBQYZ51MmzYNJycnmjVrxqRJk6hduzaTJ08mMTGRTZs24empfBurXbs2hw8fZsGCBTRo0IBdu3axcuVKZsyYQdu2bQH48ssvadq0KU5OTvj5+ZGamsqECRN4+umn+eqrr4zxZGVl8eGHH/LOO+9gZWVFZGQkPj4+xfp6K4pSl3x54YUXbrk/KSkJZ2dnLCwsjPtcXV0pKCggPT39sf7xNBpNiS+qGo0GlUpl3Mqa6OhosrKyqF+/PjqdjoKCAqysrJgwYYLxRXfw4EE2bdpEcHAw27dvB5TSb8HBxbP4/fr1o3Pnzne8PQ8PjxKPU35+PhYWxRe9u/7GUFhYWGx/bm4u58+fZ8WKFUycOJGkpCQ++OADrK2tGThw4F2Pi7LDVK+p67d7q9d7eZZ46iCpF0+X2O/iG4RH9fomiMiEfOspW+uxkJWorBNzajOc/R1VVgKqw4vg8CJApdQRr9YGqrUG30ZgZnHX05dHFe31Im4jNxVi/4Cz2+Hs70rJhZs5+ED1DlC9E6qAFmBuRdn75FQ+yGtWCFEhqVTQeAh41oZVAyH5JMxuDV2mQPiLpo5OlDIqlQprCw3WFhrA0tThiNLoShT89DKknAGVBtp9CE1GKGtOCWECFy9eJC0tjdDQUKpWrYper+fcuXMEBwdz9uxZVqxYwf/+9z/jAKvg4GDGjx9P7969jX3AoLz/hYaGcvz4cQBWrFhB9erVjYkXUPptPTw8jCXp1q9fT2ZmpnE2zHWhoaEUFRURHx9PUFAQkZGR1KpV63E/FKVSqUu+3E5eXl6xxAtgvK7Vak0RUpkWHR3Niy++SP/+/cnMzGTSpEnUq1ev2GJJDRo0uKcSTE5OTjg5Od13DJaWliX+dtev/3vmgZmZGdnZ2UyZMgUfHx8ALl++zLJlyxg4cOBdjwshbiE9HpelT+NByfr+hWhg5FFw8jNBYKWAvQfU669sRQXKwolndsDZHZB0Ai4fUradX4G5LQQ0h6qtlWSMa3UpUSbKN20uxO9VXhexfyqvBcNNJVjNrJRFjau1hcC28poQQghROvg/BUN2wZrBEPs7/DwMzu2CLl9JGTIhxN0ZDHBoIWwaDUX5ygCj5+dD5QhTRyYquOtJlZCQEPz8/DAzMyMuLo7g4GAmT55MeHg47du354MPPsDe3p68vDwKCgpo3rx5iXOlp6djb28PwOHDh3nmmWdKtElJSeHpp58GlIH7QLH+5Jup1Wq0Wi2nTp2iU6dOj+T+ljVlJvlyPx314u6io6Pp3bs3VapUAeDDDz+kW7du9OrVC19f3/s618yZM5k1a9Yd2/z6668lyo55eHiQlpZGUVERZmbKUzEpKQkrKyscHIpP1XRzc8PS0tKYWAEICAggISHhno4LIW4hNwXzWyReAGV/bkrFTb7czMwSAtspG0Dm5Wuj/HcoP3OSlBkypzYrx23doUpTpfO5ylPgVkNGQYmyrTAP4vcpyZZzu+DiAdAXFm/jVlNJtFRrozz/za1NE6sQQghxJ3Zu8NIa2DUFfv8cji5V1oGRMmRCiDspyIYNoyBypXI9qD08NwtsKl4JJVH6REZGYm5uTvXq1bGwsMDX15fLly9z4MAB/vzzT3766ScAjh07RmhoKJmZmYDSl3qz7Oxs9u3bR58+fQDIyMgo0T8bFRVFenq6ce2WzMxM6taty6effnrL2CpXrsyJEycoLCyskOu9QBlKvtxPR724s/j4eDIzMwkKCjLuCwwMxM/Pjw0bNjBkyJD7Ol/fvn3vmr10d3cvsa9mzZqYmZlx5MgR40JOBw8epHbt2iXWaalbty4FBQXExcUREBAAQGxsrDHZcrfjQgjxyDh4Q9gLyqbXQ2KUMnry7A648A/kXIXodcoGYO1SPBnjUUuSMaJ0K8hSOqLO71ESLhf3K4uI3szBV5nx5d9MmfXlKP9vhRBClBFqNbR4Fyo3gVWDpAyZEOLOrkTBqlch+ZRSZqzteGj6f/KdTpQakZGRBAcHY25uDiiD0RMTE/n222/p1q0btWrVIj8/n9OnT/Pqq68aS4adPHmSkJAQ43lmzpxJQUEBPXv2BMDT05OzZ88ajxsMBr755hsAYyKlcuXK7Nq1i8DAQGNfbmpqKi+//DIDBgygevXqREZGolKppOxYaXc/HfXizqKiojA3N8ff37/Y/iZNmvDbb7/dd/LlQcuOWVtb0717dz766CM+//xzrl69yrx585g4cSKgTHXTaDTY29tTtWpVWrVqxdixY/noo49ISkpi9uzZDB06FOCux4UQ4rFQq8GrjrI99X9KibJLB+Hcbji/S5ktkJcKMRuUDcDKEXwb3rQ1UPYJYQoGA6SfV56r8XuVLfF48TJiAPbeN5It/s3B2V9KiQkhhCjb/JspZcjWvq4Movl5mDKgpssU+WwmhFAG2u2dCds+VAYi2XvD8/OgShNTRyaEkV6v5/jx43Tr1s24LyAggB07dpCYmMhXX30FwPHjxykqKqJ27dpUr16diIgIpkyZYqwitGHDBhYtWsQ777xDYGAgAJ07d2bWrFk0aNCAWrVqsWjRIvbv34+bmxseHh4A9OnTh9WrV/PRRx/Rq1cv4uPj+fbbb7G2tqZDhw6AkhwKCAjAzs7uCT86pUOZSb7craNe3Lvo6GiqVKlSYg2dpk2bsnz5cq5cuVJswaXH6Xqy5OWXX8bOzo4RI0bQvn17AEaMGIGPjw9ffPEFAF999RWffPIJ/fr1w9ra2rhmzXV3Oy6EEI+dmaUyy6VKU+BdKNJCwhGlVNP53crMmPwMOLNN2QBQgVuwkojxa6T8dA2WkVTi8SjIhiuRSpLwerIlO7FkO6fK4BdxI9niUlWSLUIIIcofOzd4cTXs+lopQxb5E1zYCz1mXfs8J4SokLISYd1QOLtduV69Izw7HWxdTRuXEP8SFxdHTk5OsVklVatWZd68ebz55pvGJMn1dWGuz1iZNm2asR81Pz+fGjVqMH36dNq2bWs8z7Bhw8jKyuKbb77B3Nycfv360bx5c4qKioxtQkNDmTVrFl9//TXr1q3Dzc2Njh07MmTIEOPaMZGRkRW25BiAymAwGEwdxO0EBwezcOFCIiKUxavy8vL46KOP2Lp1K3Z2dgwaNIhXXnnlsd2+TqfjyJEjhIWFodFoih3Lz883lriSNWeEeHgGg4Hc3FxsbGxQmaCDr0K+pi8fgdktb3/89T/BO+xJRVMx6IogMVJZMyN+H1zcB2nnSrazdLw2o6YueIUpPysFlpqEzJ3+P4pSRJurlMW7fPjGlnyq5KwWtbnyWveLuJYAbAQOXiYJWTwe9/Oalde3uF/ynBHlRvx+WPOa8tlMpYZm/4FW74HG3NSRifsg70nioZ3crMyEy00BMyvo8Bk0GCQDkSqgstRPZOo+tfLifv7m9/r/plTPfDl58mSx69bW1nz55Zd8+eWXJopICCHKEZtKGDQWqP69lgMo+20qmSCock5jBt7hytZosLIv+6qSjLm4T/l56SAUZFxb3Hznjd+1sAPP2tcSMtc21+rSISAUOSlw9TgkRiszWy4fhqQYMOhKtrX3Vp6Dfo2UhIt3GJhbP/GQhRBCiFLFr6FShmzTGDiyBHZ+pZQj6/kDVKpm6uiEEI+bNhd+Gw/7f1Cue9RWXv/uNUwblxCiTCvVyRchhBCPkZMf3+j6s2jWtyUO9X/j/xjl5GeCoCogO3eo0VnZQJkdk3QCEo4qs5MSjiqd6dpsuLBH2a5Tm4NrELjVAPcQcK+pbM7+oJaRfuVSYb6yMHBi9LVky7WES/aVW7e3dQefejeSfl5hYO/xREMWQgghygxLe+g+A4KehvX/B5cPwczm0OkLCO8vI9+FKK8SjsKa15XBSwCNh0O7D5Wy0kII8RAk+SKEEBVY3zfepWW3l0rs9/KSkkMmozFTZrh41obwa38bvQ6STyvrxyQcvbYdA20WXI1WtuNrbpzDzEpZR8atppKcqVRNKVvmUhUsbE1yt8R9MBggJ0n5m6ecvvbzjPIz7dytZ7OAknRzDwWPUGU2i3c42HtJR5EQQghxv0KfU9bhWztEmYn8ywg4uQme+UYGMQhRnugKYecU+Gsy6IvAzgO6fw+Bbe/+u0IIcQ8k+SKEEBWYl5eXJFrKArVGme7uXgPq9lX2GQyQEQ9XY64lYE4oM2aSTkJR/o0kzb/ZeyvJGJeqSkKmUjVwqgJOfmDl+GTvV0Wm10FWAqSdh/QLkH4eUuOuJVvOKKXnbsfa+VqSJURJtLiHKs8NS/snF78QQghR3jn6woBf4O/vYMencHKjMgO581dQq6cMbhCirEuMhnVDbnxnqtkNnvkf2LqaNi4hRLkiyRchhBCiLFKpwKmyslVvf2O/XqfMjrh6QtlSzyqzJlLOQl4qZF1WtpvXk7nO0lFJwjj6KR0O1y87VQZ7T2UkmKwxc3cGA+RnQNYVJcGSdQUyLykJluvJloyLoC+8w0mu/X1dg6BSELgGXvsZJLNZhBBCiCdFrYZmI5UyZGuHwJVjsHoQHF+rdNLauZs6QiHE/dIVwd/fwh9fgE6rDGySpKoQ4jGR5IsQQghRnqg118qMVYOazxQ/lpsKqbFKIubmpExGPOSmKLMtEjMgMer257ephNrOgyC9NarzQTeSMvYeYO0CNi7KFxhrZ7CwKz9fYPQ6yEtXHqfcFCWRdf1yTvKNJMv1n4W5dz+n2uxGcsu5ijID6XqyxaUqmFs99rslhBBCiHvgEQqDd8DOr+GvSRCzAc7/DV2mQK0epo7OZBISEkhISCixX2bXi1Ir6RSsGwqXDijXq3eCrt8o32mEEOIxkOSLEEIIUVHYXEuO+DYoeUybo8zGSI+HjAvXfsbf+JmdqNRBzk1BlZuCA0DywTvfntrsRiLG2gWsnZTSWOY2SmLGwvam7fp1G9BYKjNsNOagNgeNxY3rGgvlvNcZDIDhxs/r+wx60BVAkfZfP69t1y8XZCmbNvvG5Zv35WcoSau8tBvnv1dWjsosleubc5Vrs5WqKJftvZRkmRBCCCFKP405tBoDwZ1g3TBIjIRVr0L0Oug8BezcTB3hE7d81mQWzfq2xP7+b/wfoz762gQRCXEbukLYM02Z7VKUr8z47/QF1O1XfgaLCSFKJUm+CCGEEEJJfLgFK9ut6PVKAiL7CrqMy1yIPkAVF0vUOVeVxEz2VWU2SF6akqzQFSjJmpwkZSsvLB2vJbEqXduuXbb3UkbM2XuBgxfYeSqJJCGEEEKUL151rs2CmQI7v4LonyHuL2j/GYS9UHE6ctPjGalZxKg37EocMmgWQfoopYStEKZ26RD88paSMAWo1ga6TQNHH9PGJYSoECT5IoQQQoi7U6vBtpKyudYgNcuFymFhoLnFzA2DAQrzlERMXtqNpExemjLDRpujzCrR5oA296bL1zZ9oVJ/WVd07adWSeTotMqoNYPuFgGqrnV2XOvwUKmVWTJmlsp2/bLGEswsrv20VGbi3LxZ2JXcdz3RYu0sa94IIYQQpdgTK4NlZgGtx0KNzrBuuNKp+/MwOLoMun6rlH8t73JTUOm0tzyk0mmV0qySfBGmpM2B3z+Hf2Yos+KtnSteklQIYXKSfBFCCCHEo6VSKbM+LGwez4gyvV65DfnSJIQQQoibPPEyWF514fXfYc90pZzRuZ0wowm0fBea/p+SpBFCPHlntsGGUZB+Qble63noeK3kWMLRku1tKkmyUJQbwcHBLFy4kIiIiFseP3/+PF999RX//PMPWq2WwMBAXn31VZ55Rlkztn///uzbt++259++fTvTpk1j7dq1jBgxgjfffLPY8ezsbBo3boy7uzs7dux4dHesjJLkSwUUHFy8pIyzszPt2rVj7Nix2NraPtbbnjp1Kvv27WPRokWsWbOGadOmyQtRCCHE/VGrTR2BEEIIIUobU5XB0phDs5EQ8qzS2Rv7O+z4FCJXQ7fvwK/Ro79NUWE8sdlc5UX2VdjyX4hcqVx39INn/gdBT0N6PIap9W45Y8ugsUA14pAkYMRjodMb2BeXytWsfNztrWgU4IJGbZqBhHl5eQwYMIDWrVuzZMkSLC0t2bVrF2PGjMHc3JwOHTowdepUCgsLAZg3bx6HDx9m6tSpxnO4uLgAYG5uzo4dO0okX/744w+Kioqe3J0q5ST5UkFNnTqV8PBw9Ho9CQkJfPDBB0yaNIkJEyY8sRg6d+5Mq1atntjtCSGEEEIIIYQop0xdBsslAPqvhcifYPN7kHQC5raHegOg7YdK6VYh7tMTn81VVumKYP8P8PtnUJCplCCOGAKt/wuW1xKypn6PEBXS5qgEJqyPJiEj37jPy9GKD7uG0LHWk0+g/v333+Tm5vLRRx8Z91WpUoXo6GhWrlxJhw4dcHJyMh6zsbHB3NwcNze3EueqX78+e/fuJTExEQ8PD+P+bdu2ERYWxtWrVx/nXSkzZOhoBeXo6IibmxseHh6EhYXxxhtvsGnTpicag5WVlTFbKoQQQgghhBBClGkqFdTpDW8egLAXAQMcWgBT68G+OaC/1bp1QtzGtdlch96wK7GN1CyC9HhTR1g6nN8Ds1vC5jFK4sU7HF7bBh0n3ki8CGECm6MSGLr4ULHEC8CVjHyGLj7E5qiSs9oeN7VaTU5ODkeOHCm2/+233+bTTz+9r3N5eXkREhJSrKKRVqtl165dtGnT5lGEWy5I8uUx0Gq1t93+Pe3qTm2vT/G6U9tHxdrautj1xMRE3nrrLRo2bEitWrV47rnnOHjwoPH4woULad26NbVr16ZHjx4cOHDAeOzUqVP079+fOnXq0KFDB5YsWXLL21yzZo3xxbh3717atGnD0qVLad68OWFhYbz77rvF7uNvv/1G586dqVu3Ls8///wd6w8KIYQQQgghhBAmYeMC3WfAq5vAoxbkp8PGd5QO4gv/mDq6R8OmEphZ3vqYmaVyXDyce5mpUZFlX4W1Q2B+R0iMAmtnpcTYa9vBp76poxMVnE5vYML6aAy3OHZ934T10ej0t2rx+DRt2pSAgAD69u1Lv379mDZtGkePHsXFxeWBShm2adOmWPJlz549BAYG4urq+ijDLtOk7Nhj8Pnnn9/2WFBQEC+++KLx+uTJk0skWa7z9/fnlVdeMV7/5ptvyM3NLdbm5mliDyo1NZVFixbRrVs347533nkHBwcHli9fjsFg4KuvvuKjjz5i/fr1REdHM2nSJKZNm0ZgYCALFy5k5MiR/PXXX2i1WgYPHsxzzz3HJ598QmxsLOPHj8fW1pbu3bvfMY6rV6+yZcsWfvjhB65evcqbb75Jw4YN6d27NzExMYwZM4YJEyZQp04d/vzzTwYPHswvv/xClSpVHvoxEEIIIR4Vqc0thBBCCACqNIXX/4SD82HHJ3AlEuZ1gLr9oN0EsPe4+zlKKyc/EntvIuFsFAMHDgSUtQEsLS1x8Q3CQ8o3icdFV3itxNjnykwXVFLeT5Q6++JSS8x4uZkBSMjIZ19cKk2qPbnnraWlJUuXLmXmzJls3ryZqVOnMnXqVEJCQvjf//6Hv7//fZ2vXbt2zJo1i9zcXGxsbNi2bRtPP/304wm+jJKZLxXU4MGDCQ8PJywsjCZNmhAdHU3//v0BMBgMtGvXjvHjx1OtWjUCAwN58cUXOXPmDACXLl1CpVLh7e2Nr68vI0eOZPLkyej1etavX0+lSpUYOXIk/v7+tGnThiFDhrBw4cK7xlRYWMj7779PcHAwzZs3p3nz5kRGRgIwd+5cevfuTdeuXalSpQoDBgygRYsWLFu27PE9SEIIIcQDWD5rMq91aVhiWz5rsqlDE0IIIcSTpjGDRoNhxCGlgxgVHF0GU+vDzq+hMM/UET6w75euJ7zzKxy+oufwFT3hnV8hpG0/vl+63tShifLIYICYjTCjsbKukrHE2Hbo9p0kXkSpcjXr9omXB2n3KDk6OjJmzBh+//131q9fz8iRI7l06RJvvfXWfZ+rRo0auLm5sWvXLvR6PTt27JDky7/IzJfHYNy4cbc9plYXz3e9++67t22rUqmKXR85cuRDxXWzTz/9lLp162IwGEhLS2Px4sX069fPmDzp168fGzdu5NChQ8TFxREVFYVerwegWbNmVK9ena5duxISEkLbtm3p1asXZmZmxMbGEhMTQ3h4uPG2dDodGo3mnuK6eRaLnZ2dsUzb2bNn2bRpEytWrDAeLywspFmzZo/i4RBCCCEejWu1uUe9UbK+tEGzCNJHyUKeQgghxONgUwmDxuKWZZoMGgtUpi6DZesK3aZCvVeUEmSXD8H2CXBgHrT9AGo9D+qyNT72jTfeKFZB4zqZ6SseuYSjsOW/cG6nct3WDVr/V0loqu+tv6nUv0eIcsXd3uqRtntUVq5ciZ2dHZ07dwagevXqVK9endDQUAYPHkxqaup9r899vfSYq6srLi4uVK5cudjyFBWdJF8eAwsLC5O3vRsPDw9josPf35/Q0FAiIiLYtGkTL7zwAgMHDiQzM5POnTvTpk0bCgsLefPNNwFlfZiffvqJffv28fvvv7NmzRqWLVvGmjVrKCoqokmTJnzwwQcPFNe/76PBoNQ+1Ol0DB48uETpMiurJ/smJYQQQtzRvdTmrsDJl8RTB0m9eLrEfhffIDyqS21uIYQQD8HJj290/Vk069sSh/q/8X+MKi3/f33rKyP1I3+C7R9DRjysGQz/zID2n4H/U6aO8J5JSVXx2GUmKCX7jiwFDKCxhCbDodkosHK4v3M5+aEaceiWa+WobCpV6M/o4tFrFOCCl6MVVzLyb7nuiwrwdLSiUcD9JToe1qlTpzh48CAdO3YsNkHAwcEBCwsL7OxKDiK8m7Zt2/Kf//wHZ2dnmfVyC5J8EYAyI8dgMKDT6Thz5gz79+9nz549xmznkiVLACUZcuTIEf755x+GDh1K48aNefvtt2natCkHDx4kICCA7du34+vra5zt8vPPPxMZGcn777//wPEFBARw8eLFYjNjJk2aREBAAL169XqIey6EELeRHn/rRSzlg7kQDyY9HpelT+OBrsShQjQw8qi8toQQQjyUvm+8S8tuL5XYX+oSBGo11O0DId2UpMvO/8Hlw/BjZ6jxjLIejGugqaMUplaRZ2rkZ8Ce6fD3VCi8tvZx7V7KLDGnyg9+Xic/+bwpngiNWsWHXUMYuvgQKiiWgLle5+jDriFo1Kpb/PbDO3bsGAUFBcX2NWzYkAEDBrBu3TrefPNNBg0ahLu7O2fOnOHrr7/mxRdffKCB/w0bNkSn07FixQpj/7G4QZIvFVRGRgZJSUkA5OTkMG/ePHQ6HW3atMHc3By1Ws2vv/5KmzZtiIyMZOrUqQBotVqsrKyYPn06rq6uNGnShP3795Obm0twcDAeHh5MmzaNDz74gIEDB3Lx4kU+++wzXn311YeK95VXXuHFF1+kdu3atGrVih07dvDjjz+yYMGCh34shBCihPR4DFPr3f6LzohDFf5De/alGGLSTpYopykzGMRt5aZgfovEC6Dsr+CzgoQQQjy8MjcTw9wamr8N4f3hj4lwcAHEbICTmyD8RWgxWv43VmRlZTbXo1SYB/vmwK6vIS9N2ecXAR0+B98Gpo1NiPvUsZYX379Ujwnro0nIuLG2i6ejFR92DaFjrcf3/+qrr74qsW/r1q1UqVKFZcuW8e233/Lmm2+SlZWFt7c3zz//PIMGDXqg2zIzM6NFixYcOnSImjVrPmzo5Y4kXyqoESNGGC9bW1tTq1Yt5syZg5+f8s/7o48+Yvr06Xz99dcEBATw/vvvM2bMGKKjowkPD+ezzz5jxowZfPzxx3h7ezN58mSqVasGwJw5c/j888/p3r07Tk5OvPjii7zxxhsPFW9YWBiTJk1i6tSpTJo0icqVKzNlyhQaNmz4UOcVQohbktJRd5ZxkaYH38RcpS9xSGYwCCGEEELcJzt3eOZ/0OgN2PYhnNoMhxbC0eXQYCA0+w/Ye5g6SmECZWY218PSFcLhRfDnJMhKUPa5Voc270PNbqB6PLMDhHjcOtby4ukQT/bFpXI1Kx93e6XU2OOa8QJw8uTJOx4PCgpi2rRp93Sum/uPb/bFF18Uu/7vZE+PHj3o0aPHPd1GeSfJlwrobi9CgD59+tCnT59i+5555hnj5WeffZZnn332lr8bGhp622lmN79ob34hRkRElIjr3y/kLl260KVLl7vGLoQQ4jHLTbll4gVkBoMQQgghxANzrwEvrIALe5V1Ls7thL0zlURMo9fhqf8Dmye7PoAwrTI3m+t+6XUQtRp+/wzSzin7HCtDq/egTh/QSLelKPs0ahVNqpXjMoHijuRdTAghhBDiUanItbmFEEII8WhUjoCX10Pcn7D9E7h0AHZ/AwfmQeOhEDFEkjCibNMVQeRPsHMKpJxW9tm6QYt3of4rYGZp0vCEEOJRkeSLEEIIIcSjUhFrcwshhBDi0VOpoGorCGiplCHb8RkkRsKfXyoLkTccBE3eVEqWCVFWFGnh6DJlTZfrM12snKDpCCWxaGFryuiEEOKRk+SLEEIIIcQjVGFqc98vmRUkhBBC3D+VCoI7QVAHOPEz/PUVJEbB7m9h7yyoNwCaviUlX0XpVpivrOmy+1vIiFf22VRSEogNXwMrB9PGJ4QQj4kkX4QQQoh/s6mkTHUvKih5zMxSOS7EbZT72twPSmYFCSGEEA9OrYbQ5yCkO5zaAn9NVsqR7ZutlCOr2xeeGgWugaaOVIgb8tKU5+fe2ZB9Rdln56EkDBu8KjNdhBDlniRfhBBCiH9z8oM3DyoLx/+bTSUZWWhTiUKDGnOVvsShQjSYS3JK3IbMChJCCCEekkoFwR2hegdlTZi/voJzO+HwYmWr3hGaDAf/5kpbIUwhNQ7++V55ThbmKPscfOCpkVCvP5hbmzQ8IYR4UiT5IoQQQtyKk58kWW7H0Ze/60/D1UaFWq0udsjFNwgPedzEbcisICGEEOIRub4mTNVWEL8Pdn4NpzYp68Oc2gwetaHJMKjVUxYvF0/OxQPw91Q48QsYrg3U8qilrOkS2gPMLEwbnxBCPGGSfBFCCCHEfbPzqUGNsDA0Go2pQxFCCCGEqNj8GsELyyH5DOz9Ho4shcRIWDcUtn0EDQdD/VfAzs3UkYryqDAfotfB/h/g4v4b+6u1VZIuVVvJLCwhRIUlyRchhBBCCCGEEEKIss41ELpMgdb/hYM/wr45kHUZfv8U/vwSanaFBgPBv5l0houHl3YODsyHw4tulGtWm0Od3krpO49Qk4YnhBClgSRfhBBCCCGEEEIIIcoLGxdo/h9l1sHxdcpsmEsH4fgaZasUpCRh6vZV2gpxr3RFcHY77J8Lp7cCBmW/gy80eBXqDQA7d5OGKERF995777F27drbHl+4cCERERFPJJbt27czYcIEMjIymDZtGs2bN38it1uaSPJFCCGEEEIIIYQQorzRmEOdXsqWcFSZpXBsJaSchi1jYfsECH0Owl6EKk/Bv9byE8Io+TQcXgzHVkBWwo391dooZe2C2oNGuhiFKCY9/sassFuxqfRY1pn973//y9tvvw3Axo0bmTdvHqtWrTIed3R0fOS3eTvfffcdzZo1Y/jw4VSqVOmJ3W5pIu+MokJISEhg9OjRpKSkoNFoGDZsGJ06dTJ1WKXC8OHD2bdvH02aNOG7774zdThCCCGEEEIIIR41r7rQ9Rt4+mOI/ElJxCRGwtFlyuboB3X6QN1+SvkyIfIzlZlSh5fAxX039lu7KM+ThoOgUjXTxSdEaZYeD9PqQ1HB7duYWcKbBx95Asbe3h57e3vjZY1Gg5ubadb8ysrKon79+vj4+Jjk9ksDGdYgKgSNRsO4ceOMGd/PP/+c3NxcU4dVKgwYMIAvv/zS1GEIIYQQQgghhHjcrByUTvMhO2HQNqj3Mlg6QEY87PxK6Sz8oZ2yeHpuqqmjFU9aUQHEbIRVg+Cr6rD+/5TEi0oNQR2g90J4+yR0/FwSL0LcSW7KnRMvoBy/08yYx+DixYsEBwczffp0GjZsyMcff4zBYGDmzJm0adOGWrVq0axZM6ZNm2b8nf79+/P9998zaNAg6tSpQ4cOHdi5c6fx+MaNG+nQoQO1a9emc+fObNu2DYA2bdpw6dIlxo0bR5s2bQC4cuUK//d//0ejRo2IiIjg008/RavVArBmzRr69u3L8OHDqV+/Pr/88gv9+/dn7ty5vPrqq9SpU4fnn3+e8+fPM378eMLDw2nfvj379t1IDp86dYr+/fsb41yyZInx2NSpUxk2bBgvvvgijRo1KvZ7j5MkX0SF4O7uTs2aNQFwc3PD2dmZjIwME0dVOkRERGBra2vqMIQQQgghhBBCPCkqFfg1hG7fwTun4Pl5SukolQYu7odf34avgmBRDzi0UBIx5ZmuEM5sg3XDYXIQLO8HUaugKA9cq0O7CfCfE/DiSgh5FswsTB2xEOIhHTp0iNWrVzNgwADWrVvHggUL+Oyzz9i8eTPDhw9n6tSpHD9+3Nh+5syZdOnShQ0bNlCjRg3Gjx+PXq8nJSWF0aNH88Ybb7B582Z69uzJf/7zH9LT01m1ahWenp6MGzeOVatWodVqefnll8nLy2PRokV88803/PHHH0yaNMl4O4cPHyYwMJCVK1fSrFkzAKZPn07v3r1Zs2YNWVlZPP/887i6urJq1SqCgoL49NNPAcjPz2fw4MHGxM2YMWOYMWMG69atM55/+/btPPPMMyxYsIA6deo8kcdayo6JR27JkiXMnTuXpKQk4wvydk/o61nQf3vhhRf48MMPjdcTExOZPHkyO3fuJC8vjypVqvD5559Tu3bt+44vKioKvV6Pl5fXff/urezfv5+5c+cSFRVFUlIS06dPp127dsXaLF26lGXLlhnva1BQEMOGDaNly5a3Pa9Op2Pq1Kn88ssvJCcn4+7uznPPPcewYcNQqVQPfN4naerUqcWy5QABAQFs3rwZuPe//3WzZs1i69atxMbGYmVlRXh4OO+88w5Vq1Yt1u5RPl+EEEIIIYQQolwzt4ZaPZUtK1EpS3Z0uVKW7Ox2ZdswCgJaQEh3qNkVbFxMHbV4GEUFELcTYjbAiV+Kj76391LWAqrVE3zqK4k6IUS58vLLL1O5cmVAmY0yceJEmjRpAkC/fv2YPn06p0+fJjQ0FICWLVvSo0cPAIYOHcqzzz5LUlISKSkpFBYW4unpiY+PDwMHDiQ4OBhLS0usra3RaDTY29vj4uLC9u3bSUxMZOXKlcZ1Zz744AOGDh3KqFGjAFCpVAwdOhQrKytjrK1btzYuHdGuXTs2btzIW2+9hUqlonfv3gwfPhyA9evXU6lSJUaOHAmAv78/ly5dYuHChXTv3h0AV1dX+vXr9xgf2ZIk+SIeqY0bNzJx4kQmTJhA3bp1WbBgAYMGDWLz5s23XFhp1apV6HQ64/XTp0/z6quv0rFjR+O+jIwM+vXrR0REBHPmzMHZ2Znz588/0AJR6enpjBkzhk8++eSubadOncqlS5f44osv7tguNzeX4OBgevbsyZtvvnnLNp6enrzzzjtUqVIFg8HAunXrGD58OGvXriUoKOiWvzNnzhyWLVvGl19+SWBgIFFRUYwdOxZ7e3sGDBjwwOd9FO71sQElITR//nzjdY1GY7x889/fYDAQFRXF0KFDi/39b7Zv3z5efPFFateujU6n4+uvv2bQoEH8+uuv2NjYAI/2+SKEEEIIIYQQFYq9BzR9U9mST0P0Ojj+87VEzA5l2zAKqjRVZspU7wiuQdJBXxbkpsLprXByI5zZDtrsG8dsXCG0O4T2gMpNQC2FcoQoz25eg6Vx48YcPXqUKVOmcPbsWU6cOEFSUhJ6vd7Yxt/f33jZzs4OgKKiImrWrEmrVq149dVXCQgIoG3btvTq1Qtra+sSt3n27Fn8/f2L9c/Vq1ePoqIiLly4AEClSpWKJV4AfH19jZetrKzw9vY2Dkq3srKisLAQgNjYWGJiYggPDze21+l0xfohTbH2jCRfKqD333+f5ORkZs6cadz3ySefkJmZyeTJk4379u7da+zk/7eFCxcSERFRYv/8+fPp3bs3PXv2BGDChAn88ccfrF69mtdff71EexeX4qNlZs+eTeXKlWnUqJFx35w5c/D09GTixInGfX5+xRej2rBhA+PGjWPbtm24u7sDMHbsWKKioli6dCn29vZotVqGDx/O4MGDqVev3m0fn/vVsmXLu840uV7b8LpRo0axbNkyjhw5ctskyeHDh2nbti2tWrUClDebX3/9lWPHjt3Xee/lsXmc7rSw181/f4PBwF9//VXi73+zuXPnFrv+xRdf0KRJE44fP07Dhg2Be3u+CCGEEEIIIYS4C9cgaPGusiWfURIx0evgSiSc26lsv40HZ38lCRPUHvybKYtIC9PT668lzX6H07/BhT1guDH4FXsvCO6kzGTybwEa6SIUoqKwtLzxPv3TTz/x+eef06tXL9q3b8+YMWNK9Aebm5uXOIfBYEClUjFr1iyOHTvG9u3b+e2331i6dClLly41Lv9wq9u87vqA7Os/b9XGzKz4e5P6NsnhoqIimjRpwgcffHDL47c7/+MmqewKqEuXLuzevZvsbGWUg16vZ8uWLXTp0qVYu/DwcHbt2nXL7eYs4nVarZbjx4/TtGlT4z61Wk3Tpk05fPjwXePSarX88ssv9OzZ05jBBNixYwe1atXirbfeokmTJnTv3p2VK1eWuE/+/v7MmjULgO+++46///6bH374AXt7ewwGA++99x6NGzc2TjUzFZ1Ox6+//kpubu4tH8frwsPD+eeff4iLiwP4//buO6yp8+0D+JcpIMqQ4UJRaFEBBcTiAAf15yvWvReuqmitVqUVR1UUFbVD0aq4cFdx2zrrntQJRUWUIihOEEEREBDy/pFyTEyAAIEwvp/rypXk5Dkn95k5J/d5ngeRkZG4efMm2rZtW6jpFrRsStqjR4/g6uqKL7/8Et7e3nj27JnccpmZmTh27Bh69+4ttf7zk5KSAgBSWXNFthciIiIiIiIqBBNroO33wLhLwKQwwGMpYOUOaGgDSbHA1UBge29giaW4n5hLy4Gnt4Cc7PynS8r19hkQugPY+7W4z561bYFTc4FHl8SJF3M7cTJtzFlxPy5dl/23Hpl4Iaqsdu7ciQkTJmDmzJno2bMnjIyMkJiYCJFIVOC40dHRWLJkCZo2bYopU6bgyJEjqFWrFi5evChTtkGDBoiNjUVycrIwLCwsDJqamkITaMXRoEEDxMTEoG7duqhfvz7q16+PsLAwbNu2rdjTLg4eXSshFxcXGBgY4MyZM+jevTtu3LiBrKwstGnTRqqctrZ2njUW5ElKSkJ2drZM82I1atTAw4cPCxz/1KlTSElJQa9evaSGx8XFYefOnRg5ciTGjRuH27dvY8GCBdDS0hLKqqmpYcqUKZg0aRJMTEywfft27NixA+bm5gCAmzdv4ujRo7CxscGpU6cAAEuXLoWNjY3Ud924cQNjxowBAGRlZUEkEuHEiRMAxDUqnJ2dFV4en7p//z4GDhyIjIwM6OnpYdWqVbC2ts6z/NixY/Hu3Tt4eHhAQ0MD2dnZmDJlCrp3716o6Ra0bEaMGIHIyEikp6ejbdu2CAgIkJsUKsqyadq0Kfz9/dGgQQOhP5whQ4bgzz//FKop5jp9+rTc9Z+XnJwcLFq0CE5OTvj888+F4YpsL0RERERERFRExg0AFy/xI+Md8PAcEHUCePAX8O7Fx35iAEDHALB0E/cXU68VYNaEf/Qri0gkTnw9/ht4fAV4FAIkRkmX0dYX10aycgc+/z9xLSUiIglGRkYICQnBl19+idTUVCxbtgxZWVnIzMwscNzq1atj586dqFatGrp164Z///0XT58+RZMmTWTKtmnTBhYWFpg2bRq8vb2RlJQEPz8/dO3aFdWrVy/2fHTv3h2//fYb5syZg1GjRuHJkydYuHAhRo4cWexpFwd/8SohdXV1eHh44Pjx4+jevTuOHTuG//3vfzJVyCT/bP9UcRMR8uzbtw9t27YVkgK5RCIR7OzsMHXqVABAkyZNEBUVhV27dkn9md6hQwdYW1tj1apVCAoKkmrOy9nZGZGRkQXGYGdnh4MHDwIAtm3bhpcvX+L7778HAJm4CqtBgwY4ePAgUlJScOLECfj4+GD79u15JmCOHTuGP//8E7/88gusra1x7949+Pv7w8zMTGq+FZlufstm8+bNCsVflGUj2Rxbo0aN0KxZM3To0AHHjh1Dv379pMru3bsXrVu3Vng5z5s3D1FRUfj999+lhiu6vRAREREREVExVdEHGncVP0QiID4CiLkgfsReAt6/EXfqHnlYXF6rKlDHCbBwASy+AOq2APSM8/8OEstKB17eBZ7eFDch9vhvIOW5dBk1daC2ozjZ0rCDePlqaqsmXqLKTK+GuAnGDxl5l9GsIi6nYjNnzsTMmTPRo0cP1KhRAx4eHtDV1cW9e/cKHNfU1BQrV67Ezz//jMDAQNSoUQNTp06Fq6urTFkNDQ2sXr0afn5+6N+/P6pWrYpu3boJ/98Vl76+PtavX49FixahZ8+eMDQ0xJAhQ+Dl5aWU6RcVky+VVNeuXeHp6Yl3797h5MmTUn295JL8s/1T8v4gNzIygoaGBhITE6WGJyYmwsTEJN94nj59iitXrmDlypUyn5mamsLKykpqWMOGDYVaF7kuXLiAhw8fIicnR6b2jaJ0dHRQv359AOKmrN69eye8Ly5tbW1hWnZ2drh9+za2bt2K+fPnyy2/dOlSjB07VmgOzsbGBs+ePcPatWulkgiKTLesLJvq1avD0tJS6Egr19OnTxESEoKff/5ZoenMnz8f586dw/bt21GzZk2pzxTdXoiIiIiIiEiJ1NQAc1vxo+V4IPsD8PwfIOYcEHMReHIDyEz52F9MLuOGQM2mQE37j8/VaoqnV1llpokTWc9CgWdhwPMwIP6edJ8tAKCuJU621GsJ1G8tTmoxmUWkeoYWwLc3gbTEvMvo1RCXK0G9e/dG7969hfd169bF/fv3pcpYWVkhODg4z2l82mzXp9Nwc3ODm5ub3HHPnDkj9d7CwgLr1q1TKFZ53z1x4kSp9y4uLlKx2NraYseOHXKn/+m4pYXJl0qqWbNmMDc3x/r16yESieR2cC75Z7sitLW1YWtri5CQEHTs2BGAuGmokJAQDB06NN9x9+/fjxo1agidy0tycnIS+j3JFRsbizp16gjv7969i8mTJ2PhwoU4cOAAAgICsGLFCoVjV4WcnJx8q/C9f/9epu8TDQ2NAttc/HS6ZWnZpKamIi4uTqY5u9z1Ly8zLkkkEsHPzw8nT57Etm3bYGEh+yOlyPZCREREREREJUxDE6jbXPxw8xb3/5IQCcRdA55cFz8nRgGvH4ofEQc/jqtnAtS0A0w+B2p8Ju5zpsZnQPU6QB6dLZdLGSnAqwdAwn3xsomPFD8nPwYg59q/qilQywGo5yJuxq22E6CtV9pRE5EiDC1KPLlCZR+TL5VYly5dsGnTJvTr1w8aGhpKmebIkSPh4+MDOzs7NG3aFFu2bEF6erpU5nL79u04efIktmzZAkCcLNi/fz969uwJTU3ZTXL48OEYNGgQAgMD4eHhgfDwcOzevVuo2fHkyRN4eXlh3Lhx6Nq1KywsLDBgwADcvXsXtra2RZ4XRTOiqampUjU5njx5gnv37sHAwAC1a9cGAPzyyy9o27YtatWqhdTUVBw+fBjXrl3Dxo0b81wuHTp0QGBgIGrXri00O7Zp0yb06dNHGKeg6ap62SxZsgQdOnRA7dq1ER8fj5UrV0JdXR1du3YVyhS0/iWXy7x583D48GGsXr0aVatWRUJCAgCgWrVq0NHRAVDw9kJEREREREQqoK7xsWaM839t8Ke9FteOeXH74+PVAyDtlbgvmYfnpKehqQvUsAaMLQEDC8CgrsTDAtAxKuWZyodIBLxPBt7FA2+fAkmPgORH0s9pr/IePzfRUtvhv2dHoHrtyl0jiIionGHypRLr0qULAgMD0aVLF6VO8/Xr11ixYgUSEhLQuHFjbNiwQarZsaSkJMTFxQnvr1y5gmfPnkklFSQ1bdoUv/32G3799VesWrUKdevWxcyZM9G9e3ckJydj9OjRcHd3x9ixYwGIa/W0bdsWv/76q1Ryo6TcuXMHw4YNE977+/sDAHr16oXFixcDEDe95uPjg/j4eFSrVg02NjbYuHEj2rRpI4z36XL58ccfERAQgHnz5iExMRFmZmYYMGAAJkyYIJTJb7plYdm8ePECU6dORXJyMoyNjdG8eXPs3r0bxsYfq0Hnrv9PqxbmklwuO3fuBAB4enpKlfH39xfGz297ISIiIiIiojJEzxiw6iB+5MpKFzex9fKuuGbMq38/1pD5kA68vC1+yKGurommWtWhfrUmUNVEXIMm97lKNUC76n8P/f+e9QCNKuLEkJrGf8/q4meoAdmZQHbWf8//PT5kAJnvgPdvgYy34uf3b4CMN+Jk0ruX4oTLu5fi8gWpagaY2gCmjQCzRuJn00biuImIqFxTExXUhlEllp2djbCwMDg4OMjUDHn//j1iYmLQoEED4Y778uby5cuYPXs2Tp8+LdO8FVFpE4lESEtLg56enkq2x4qwTxOVlvx+H4mo7CnMPsv9mwqL2wwRlZrsLHFtkcQoIDkOeBMHvHny8ZHyHHKb6lI1HUNxHzaG9QDD+oBRfcDI8uNrHQNVR0hEcpSn/4lU/Z9aRVGYda7oOTBrvlRC8fHxuHnzJtauXYu+fftypyQiIiIiIiKisk1DS9z3i4m1/M+zs5D95hnuh16BjYUJNN4nAamvxE17pSUCGe+AzFRxrZXMVCArTTwsO1PckX1ONiDK+fgsygE0tAFNbfGzhtZ/z9rimjM61YEq1SWeDQBdI3GiRd8c0DcT12rRKtt/2hIRUclh8qUSSklJwcyZM+Hg4ICRI0eqOhwiIiIiIiIiouLR0AIM6iLd8HPAygFgbTwiIlIxJl8qISsrK4SGhqo6DCIiIiIiIiIiIiKiCkld1QEQERERERERERERERFVJKz5omwikbjd0NKipQewzxYiIiIiIiIiIqIKJ+ZVKnbfiMOTpHTUNdJFf2cLNDCpquqwiEgBTL4ok0gEBP0fEHe19L7ToiUw6jgTMERERERERERERBXI7htxmL4vHACQk5MDdXV1rD0fjSV9mqKfs4WKo6OyyMbGBlu3boWLi4vMZytXrsS1a9ewbds2FURWOTH5onRMghBR+cK7aIiIiIiIiKikPH/+HM+fP5cZXqtWLdSqVUsFEZUPMa9SMX1fOHJE/w1QUxde++wLRwtLY1jy2p0KYdSoUfD09FR1GJUKky/KpKYmroXCZseIqJzgXTRERERERERUktauXYt58+bJDJ87dy58fX1LP6ByYveNOIhEIsi70VskEiH4Rhx8Ojcq/cCo0EKehWDxtcWY/sV0tKrdSmVxVK3KZF1pU1d1ABWOmhqgXbX0Hky8EFERSd5FkyOCcBdNjkh8F03sq1RVh6hSz58/x61bt2Qe8u7YIiIiIiIiIvm8vLxw6dIl4f2lS5dw8+ZNeHl5qTCqsu9JUjryamFHTU3tv8+prBOJRAi4FYCHbx4i4FbAfwk11Vi5cqVQ82X//v3w9PTEihUr4OLiAmdnZ/j7+0vFt2vXLri7u8PR0RGenp64f/++8NnLly8xadIktGjRAnZ2dujVqxdu3rwJAHjy5AlsbGywatUqtGjRAvPnzy/dGS1DmHwhIqqkPt5FIyv3LprKbO3atWjevLnMY+3ataoOjYiIiIiIqNyoVasWjCw+h2Hb4TDp9gPOJlaHUT0bNjlWgLpGugDyvmYXf05l3ZVnV3A38S4A4G7iXVx5dkXFEX0UGhqKmJgY7Ny5E7Nnz8bWrVtx5Yo4vjNnzuC3337D7NmzceDAATRv3hzDhg3DmzdvAADff/89srOzsWvXLhw8eBDm5uYyNdlu3bqFffv2YdiwYaU9a2UGky9ERJUU76LJn5eXF/YePy9cIHy7/iT+PHeVd2cREREREREVwu4bcei65hqqu/SGXiNXBIU8xpe/nMOeSn7DX0H6O1tALY8Wb9TU1DCATYWXeSKRCCtDV0JdTfwXvLqaOlaGrlRp7RdJ2dnZ8PPzQ8OGDdGjRw80atQIt2/fBgBs2LABXl5e6NChAywtLTF58mTUqVMHf/zxB0QiETp27IjZs2fDysoK1tbWGDJkCP7991+p6Q8fPhz16tWDpaWlCuaubGCfL5Sn58+fY9q0aUhMTISGhga++eYbeHh4qDosIlKSj3fRyG8/trLfRXPx6QdMP5eC6i69AQBHojNwJDoBS6rWQj/eoEVERERERFQgyeau1dQ1AICdxiuogUlVLOnTFD6f9NMKAEv6NOVyKwcka70AQI4oR6j90qZOGxVGJlajRg3o6+sL7/X19fHhwwcAQHR0NH766Sf8+uuvwucZGRmIjY2FmpoaBg0ahKNHj+LWrVuIiYnBnTt3kJOTIzX9OnXqlM6MlGFMvlCeNDQ0MHPmTDRu3BgJCQno3bs32rVrBz09PVWHRkRK0N/ZAmvPR0PeDReV/S4aXiAQEREREREV3+4bceLaG3IuPNXU1NhpfAH6OVughaUxgm/E4UlSOuoa6WKAswWvR8sByVovOaKPSYnc2i+ta7fOs2ZTadHW1pYZllsrJzs7GzNnzkSrVq2kPtfX10dOTg5GjRqFt2/fokuXLnB3d0dWVha+/fZbqbJVqlQpueDLCSZfKE9mZmYwMzMDAJiamsLIyAhv3rxRavIlIyMD8+bNw19//QUdHR2MGjUKo0aNkls2MTER8+bNw5UrV2BkZITx48ejd2/xHen79+/HjBkzZMZRU1NDZGSk0uIlqkh4F03eeIFARERERERUfE+S0vPta7SyN3etCEuTqrz+LIc+rfWSq6zVfslLgwYN8OLFC9SvX18YNmPGDHTs2BEWFha4fv06QkJCYGxsDADYsWMHAJSZJtXKCiZfKrGhQ4fi+vXrAAAtLS1YWFjgm2++Qbdu3WTK5lYdU3ZnaEuXLsWdO3ewZcsWPHv2DD4+PqhduzY6d+4sVU4kEmHChAnIycnB1q1b8fLlS/j4+EBfXx+dOnVCly5d4ObmJpT/8OEDhg8fjvbt2ys1XqKKhnfRyMcLBCIiIiIiouKra6Sb741tlb25a6qYcmu9qEENIsjZ9qFWorVfwsPDkZGRITWsRYsWhZrGyJEjMWvWLFhaWsLJyQnBwcE4duwYvLy8oKOjA3V1dRw5cgTu7u64ffs2Vq5cCQDIzMxU2nxUBEy+VFIikQgRERHw8fFBt27d8P79e2zbtg0+Pj5wcHCAhcXH5oaSk5Ph4+MDPz8/pcaQlpaGPXv2YP369bC1tYWtrS2ioqKwY8cOmeTLnTt3EBoailOnTsHCwgJNmjTB6NGjsXHjRnTq1Ak6OjrQ0dERyq9duxYikQjff/+9UmMmqoh4F40sXiAQEREREREVX25z1/KIRKJK3dw1VVxZOVl4kfpCbuIFAEQQ4UXqC2TlZEFbQ7bpr+L6+eefZYb99ddfhZpGly5d8OrVK6xYsQKvXr2CtbU11qxZA0tLSwCAr68vVq1ahV9//RUNGjTAjz/+CB8fH0RERMDU1FQZs1EhMPlSScXGxiI1NRVubm7CDtG3b19s2bIFMTExQvIlMzMTEyZMwJgxY+Dk5KTUGCIjI/Hhwwc4OjoKw5o3b47AwECp5o8AIC4uDsbGxlJJIRsbGwQEBCArKwtaWlrC8OTkZKxfvx4LFiyQ23YhEVFBeIFARERERERUfJLNXWdnZwMQ9zEMsLlrqri0NbSxq+suvH7/Os8yxjrGJZJ4uX//fp6fTZw4UXjdu3dvoTuHXNu2bZN6P2zYMAwbNkzutAYMGIABAwZIDevatatCcVQmTL5UUnfv3oWBgQGsra0BAC9evMCyZcugra0NGxsbAOI/GKdPn46WLVuiZ8+eeU4rMDAQa9euzff7jhw5gtq1a0sNS0hIgJGRkVSCxMTEBBkZGUhOThbaDMwdnpKSgvT0dOjq6goxf/jwASkpKVJld+7cCTMzM5naM0REiuIFAhERERERkXL0c7aArbkO2gz9AZoGZvhutCeGtm7I6yqq0GpWrYmaVWuqOgxSMSZfKqm7d+8iJSUFTk5OyM7ORkZGBnR0dDBv3jyYm5sDAG7evImjR4/CxsYGp06dAiDuoyU3OZNr4MCB8PDwyPf7zMzMZIalp6fL1EzJff9p+4DNmjWDmZkZ/Pz88OOPPyIhIQGbNm0CAGRlZQnlRCIR9uzZg9GjRyuyGIiI8sQLBCIiIiIiIuWob6yH5AtbAABTds5F1aq8riKiio/Jl0oqIiICQ4YMgaenJ96+fYulS5fCyclJqrqZs7MzIiMjC5yWoaEhDA0NCx1DlSpVZJIsue8l+2/JLbt8+XJMnjwZzZs3R40aNTB69Gj4+/tDX19fKHf79m28fPkSX331VaHjISKS9Pz5cyQ9fihcIHTw6YHXj++jSlYt1KpVS8XRERERERERlQ/Pnz/Hw4cPhfdhYWHQ1dVFrVq8tiKiik294CJUEUVERMDR0RH169eHvb095s6di/Xr1+PJkyeFnlZgYCAcHR3zfTx79kxmPHNzcyQlJeHDhw/CsISEBOjo6KB69eoy5Zs2bYozZ87gwoULOHfuHBo0aAAjIyOpuyUuXrwIZ2dnGBgYFHo+iIgkrV27Fq6ursJ7V1dXNG/evMBmFomIiIiIiOgjXlsRUWXFmi+VUFxcHN6+fYvPPvtMGGZtbQ0LCwscPnwY48aNK9T0itrsWOPGjaGpqYmwsDA4OzsDEDd1Zm9vD3V16bxgcnIyxo8fj9WrV8PU1BQAcO7cOXzxxRdS5cLDw+Hk5FSo+ImI5PHy8kL37t1lhvPOLCIiIiIiIsXx2orKM5FIpOoQqJSUxLpm8qUSunPnDrS0tGBpaSk1vFWrVjh58mShky9FbXZMV1cXPXv2hK+vLxYtWoT4+HgEBQXB398fgDjhoqGhgWrVqsHQ0BBpaWn46aefMH78ePz999/Yt28ftm/fLjXNqKgouT/oRESFxSrwRERERERExcdrKyqPtLS0AABpaWnQ1dVVcTRUGtLS0gB8XPfKwORLJRQREYH69evLdHbfunVr7Nq1Cy9evEDNmjVLJZYZM2bA19cXw4cPh76+PiZOnIhOnToBACZOnIg6depg8eLFAIBly5Zh7ty56NatG+rWrYuAgAA0bdpUanqvXr2S22QZERERERERERERkSI0NDRgaGiI+Ph4AICenh7U1NRUHJV8IpEIGRkZUFdXL7MxlmUikQhpaWmIj4+HoaEhNDQ0lDZtJl8qIW9vb3h7e8sM79SpEyIjI0s1Fl1dXSxZsgRLliyR+Wzbtm1S7xs2bCgz7FPh4eFKjY+IiIiIiIiIiIgqn9yb03MTMGWVSCRCVlYWtLS0mHwpBkNDQ6VXSGDyhYiIiIiIiIiIiIhIgpqaGmrVqgUzMzNkZWWpOpw8ZWdnIzIyEtbW1kqttVGZaGlplciyY/KFiIiIiIiIiIiIiEgODQ2NMp3UyM7OBgDo6OiU6TgrI3VVB0BERERERERERERERFSRMPlCRERERERERERERESkREy+EBERERERERERERERKRGTL8UkEolUHQIRKQH3ZSIiIiIiIiIiIlIWJl+KSEtLCwCQlpam4kiISBly9+XcfZuIiIiIiIiIiIioqDRVHUB5paGhAUNDQ8THxwMA9PT0oKampuKoiMovkUiEjIwMqKurl+q+JBKJkJaWhvj4eBgaGkJDQ6PUvpuIiIiIiIiIiIgqJiZfiqFmzZoAICRgiKjoRCIRsrKyoKWlpZJEpqGhobBPExERERERERERERUHky/FoKamhlq1asHMzAxZWVmqDoeoXMvOzkZkZCSsra1LvfaJlpYWa7wQERERERERERGR0jD5ogQaGhr845aomLKzswEAOjo63J+IiIiIiIiIiIioXGPyJR8ikQjAxz+Fiajk5O5n3N+Iyj7ur0TlS2H22dwyuefBRAXhNRMRlSU8TyWiyojHvtKn6HWTmohXVnnKzMzE7du3VR0GEREREVGpsre3h7a2tqrDoHKA10xEREREVFkVdN3E5Es+cnJy8OHDB6irq6ukA3AiIiIiotIkEomQk5MDTU1NqKurqzocKgd4zURERERElY2i101MvhARERERERERERERESkRb2cjIiIiIiIiIiIiIiJSIiZfiIiIiIiIiIiIiIiIlIjJFyIiIiIiIiIiIiIiIiVi8oWIiIiIiIiIiIiIiEiJmHwhIiIiIiIiIiIiIiJSIiZfiIiIiIiIiIiIiIiIlIjJFyIiIiIiIiIiIiIiIiVi8oWIiIiIiIiIiIiIiEiJmHwhojIrIyMD3333HYYOHYr+/fsjLCxM1SERUT6ysrIwdepUDB48GF9//TVev36t6pCIqAAxMTFwcnJSdRhERESljr+BRFSZ8HpdNZh8IaIya+/evWjYsCG2b9+OxYsXw9/fX9UhEVE+jh49CnNzc/z+++/46quvsH79elWHRET5SE9Px5IlS1ClShVVh0JERFSq+BtIRJUNr9dVg8kXIiqzevTogdGjRwMAsrOzoaWlpeKIiCg/PXr0gLe3NwDgxYsXMDAwUHFERJSfhQsXYsKECdDV1VV1KERERKWKv4FEVNnwel01NFUdABFRXvT19QEAr1+/xrRp0zBt2jQVR0REBdHU1MTYsWNx+/ZtbNq0SdXhEFEegoOD0ahRI9jb26s6FCIiohIRHByMbdu2SQ3buHEjzp07x99AIqqw8jr2mZub83pdBdREIpFI1UEQEeUlJiYGkyZNwpQpU+Du7q7qcIhIQY8ePcLYsWNx4sQJVYdCRHIMGTIE6uriSvBhYWFwcXHBhg0bVBwVERFRyeNvIBFVdrxeLz2s+UJEZdbz588xfvx4LF26FE2bNlV1OERUgODgYGRlZWHo0KHQ09MTLmqJqOzZsWOH8Nrd3Z1/OhERUaXB30Aiqox4va4aXMpEVGoyMzPRtWtXXL16VRiWkZGBmTNnwtnZGa6urggKChI+W716NdLS0vDTTz/B09MTkyZNUkXYRJVWYfdZDw8PXLp0CUOHDsV3330HPz8/VYRNVCkVdn8lIiIqb/hbR0SVkbKOfbxeVw3WfCGiUpGRkQFvb29ERUVJDV+6dCnu3LmDLVu24NmzZ/Dx8UHt2rXRuXNn/hAQqVBR9tnq1asjMDBQRRETVV5F2V8lnTlzpjTDJSIiKrTi/tblhb+BRFSWKfPYx+t11WDyhYhK3L///gtvb2982sVUWloa9uzZg/Xr18PW1ha2traIiorCjh07FD5ZJiLl4z5LVH5wfyUiooqOv3VEVBnx2FcxsNkxIipx165dg4uLC4KDg6WGR0ZG4sOHD3B0dBSGNW/eHP/88w9ycnJKO0wi+g/3WaLyg/srERFVdPytI6LKiMe+ioE1X4ioxA0ePFju8ISEBBgZGUFbW1sYZmJigoyMDCQnJ8PY2Li0QiQiCdxnicoP7q9ERFTR8beOiCojHvsqBtZ8ISKVSU9Pl/qxACC8z8zMVEVIRJQP7rNE5Qf3VyIiquj4W0dElRGPfeULky9EpDJVqlSR+WHIfa+jo6OKkIgoH9xnicoP7q9ERFTR8beOiCojHvvKFyZfiEhlzM3NkZSUhA8fPgjDEhISoKOjg+rVq6swMiKSh/ssUfnB/ZWIiCo6/tYRUWXEY1/5wuQLEalM48aNoampibCwMGHYzZs3YW9vD3V1Hp6Iyhrus0TlB/dXIiKq6PhbR0SVEY995QvXCBGpjK6uLnr27AlfX1+Eh4fj1KlTCAoKwrBhw1QdGhHJwX2WqPzg/kpERBUdf+uIqDLisa980VR1AERUuc2YMQO+vr4YPnw49PX1MXHiRHTq1EnVYRFRHrjPEpUf3F+JiKii428dEVVGPPaVH2oikUik6iCIiIiIiIiIiIiIiIgqCjY7RkREREREREREREREpERMvhARERERERERERERESkRky9ERERERERERERERERKxOQLERERERERERERERGREjH5QkREREREREREREREpERMvhARERERERERERERESkRky9ERERERERERERERERKxOQLERERERERERERERGREjH5QkREREREREREREREpERMvhARKcn06dNhY2MDGxsbPHnyRObzGzduCJ+vXLlS4fE+NWvWrEKVHzFihFC+LJI3P1evXpW7rCqSwq53IiIiImXiuWvR8Ny1/J+7Ss7L1q1bZT5/8uRJmVmf+/fvF2LZv3+/SmMpqmvXrqF///5o1qwZnJycMGjQIIhEonzHiYuLw7t370okHk9Pz1I9xqxcuVL4vqtXryq9PClHZGSkqkOgCorJFyIiIiIiIiIiqnQCAgLw8uVLVYdRYaWnp2P8+PH4559/8P79e6SmpiIlJQVqampyyycnJ8Pf3x8eHh5ITk4u3WCpUvrnn38wePBgLFy4UNWhUAWlqeoAiIgquxkzZmDy5MkAAFNTU9UGU0Y4Ojri/PnzAAB9fX0VR1MyuN6JiIioPOI5jCyeu6rGjRs3MGTIEADAt99+i4kTJxZ6Gu/evYO/vz+WL1+u5OgIAP7991+hBourqyvmzJmDnJycPMsvWbKkxGv4BAQEIDMzs0S/g8qP/v37AwC++OILFUdCFRWTL0REKmZgYAADAwNVh1GmaGtro2bNmqoOo0RxvRMREVF5xHMYWTx3Ld+OHTuGPn36wM3NTdWhVDjp6enC62bNmqF+/fr5li+oOTJlMDY2LvHvICLKxWbHiIhULK/2kzMzMxEQEIAvv/wS9vb26NatG44fP57ndFJSUrBgwQK4ubmhadOm6N+/f75txL59+xb+/v5wd3eHnZ0d3NzcMHv2bJlq95JtziYlJSEgIAAdOnSAnZ0dunXrhoMHDyo0n4WZn7zazXZ3d4eNjQ2mTJmC8PBwDB8+HA4ODmjdujWWLFmCzMxMhIeHw9PTE82aNUObNm2wcOFCZGRklMq85+TkYPPmzejVqxccHR1ha2uLNm3aYOLEiYiKipIqm1+72bdv34a3tzfc3NxgZ2eHdu3aYdasWYiLi8tzOZ09exYHDx5E9+7dYW9vj/bt22PZsmXIyspSaP0QERERKYLnrrJ47qqac9emTZvi/PnzOH/+PEaOHKnweJJym7+aP3++zHL/VF7LQLKPmOnTpwvDc/sW6d+/P2JjY/HNN9/AyckJX3zxBWbOnImUlBTExsZi/PjxcHR0hIuLC6ZPn443b97I/f7s7GysXr0a7du3h729PXr06IE//vhDppyi20vu/Li4uODy5cvo2LEj7Ozs4Onpme9yyMnJwe7duzFw4EA4OzvDwcEBPXv2RFBQkFSNEk9PT6lprVq1Kt++a9zd3XHgwAHh/Zdffgl3d3cA0n3fnDlzBoMGDYKdnR3atm2LV69eAQDOnz+PESNGoE2bNrCzs4OLiwtGjhwp1EqTjOvTPl+Ksm2+ePECc+bMgbu7O5o2bQonJyd07doVv/32W57b0vv377F48WK0adMGzZo1w8CBA3Hx4sV8l7ekP/74A3379kWzZs3QvHlzDBs2DBcuXFBo3Nz57tGjBx49eoQJEyagefPmcHZ2xuTJk+X25XTo0CEMHDgQLi4usLOzQ+vWrTFu3DiEhYVJlctddosXL8bixYvh6OgIJycn7Nq1q1DLSvIYlpiYiAULFqBNmzZwcHDAiBEjEB0djXfv3sHPzw8tW7aEo6Mjhg8fjvv37xd6WeWu81zXrl2TOYZHR0dj8uTJaNmyJezt7dG5c2esWrVKZv3mHusnTZqEDRs2wMXFBQ4ODkKNutDQUIwbNw6tWrVCkyZN4OTkhH79+mHfvn0KrTsq31jzhYioBLx69QqamtKH2KSkJIXHF4lEmDBhgtTJwYMHD/Ddd9/BzMxMpnxGRgY8PT1x7949Ydg///yDUaNGyb1D7c2bNxg4cCAePnwoDIuPj8fu3btx9uxZBAcHo06dOjLjffvtt7hx44ZUTD4+PjA3N0erVq2UNj8FiYiIwJAhQ4ST+/T0dAQFBeH+/fu4ceOGcDL0/v17bN26FTk5OZg9e3aJz/vixYuxZcsWqfFevXqFv/76C1evXsWePXsKvNvr4MGDmDVrFj58+CAMe/HiBfbu3Yvjx49j7dq1cHZ2lhlvw4YNUvE9f/4cgYGBUFdXx3fffZfvdxIREVHlxnPX4s1PQXjuWjLnrsqocdS7d2/s27cPjx8/RmBgYImcN7948QL9+/eXSqrs27cPMTExePjwodC3SVpaGg4cOIDk5GQEBgbKTGfFihWIj48X3kdGRuKHH35AQkICvv76awBF215SU1PxzTff4P379wAAOzu7POclOzsb48aNk/nD/969e7h37x5OnjyJjRs3Qk9PT8GlU3g+Pj54+/YtAMDExAQmJiY4deoUJk6cKNWkWXJyMq5cuYKQkBBs27YNLVq0UGj6imybKSkpGDp0qFSCMSMjA1FRUYiKisKzZ8+waNEimWn/+OOPUuswNDQUY8eOxS+//IIuXbrkG9fPP/+M9evXSw27evUqrl27Bl9fXwwcOFCh+Xv9+jUGDBggdYw/duwYrl+/jr1796JWrVoAgO3bt8PPz09q3MTERJw9exZXrlzBH3/8AUtLS6nP9+3bJ6wbAHByciryshoxYgQePHggvA8JCcHIkSNhYmKCu3fvCsP//vtvfP311zhx4gSqVq2qtGUVHh6OESNGIDU1VRgWExODFStWICQkBJs2bYKWlpbUOCEhIThx4oTwvlmzZkKCXTJ5l5qaivDwcISHh+Pt27dFTh5T+cCaL0REJWDAgAFo166d1OPbb79VePzTp08LJ7T16tXDxo0bcejQIfTq1UvqZC3Xrl27hItXOzs77NixA/v370erVq2QmJgoU3758uV4+PAh1NTUMH36dBw/fhxr1qyBqakpEhISsGDBArlxRUVFYfny5Thx4gR69OghDC+oXd7Czk9BYmNj4erqij/++AMBAQHCnwWXL19GkyZNsH//fqxZs0Y4GZI8ASrJed+zZw8AcXvGBw8exKlTp7BgwQJoaGggOzsbp06dyne+4uLiMGfOHHz48AFGRkb46aefcPToUcydOxd6enp49+4dJk6cKLSbLOnmzZuYOnUqTpw4gVmzZsmNj4iIiEgenrsWb34KwnNX5Z27StZayO+hqGnTpgnNUG3YsAExMTEKj6uoly9fomHDhti7dy82b94s9At069YtGBkZYceOHdi+fTsMDQ0BiGtwSDbXlSsxMRHTp0/H0aNHsXDhQujq6gIQbyOvX78WXhd2e8nKykLt2rWxb98+bNmyBYMGDcpzXjZu3CjsG61atcKuXbuwf/9+dO3aVZinxYsXAxD3rSLZl86IESNw/vx5eHh4yJ12cHAwOnfuLPU+ODhYbrxr1qzBoUOHMHPmTADiREFOTg7q1auHXbt24eTJk8J2JRKJcObMmTzn6VOKbJunTp3Cs2fPAAC+vr44deoUduzYgdq1awNAnt/37t07LFq0CEePHoWPjw80NDSQk5ODRYsW5dsPTXh4uJBMcHNzw759+3Do0CG4u7tDJBJh0aJFCh+b4uPjYWBgIBzXunfvDkCceP35558BiGs3bdu2DYA4gXDgwAGcOHECY8aMASBOnly+fFlm2m/fvsXQoUNx/PhxLF++HJ9//nmRl9Xr16+xbt06HDp0CLa2tgDE+1JMTAyWLVuGw4cPw8HBAQCQkJCAW7duFWpZSfbVBQAODg5CLTqRSIRZs2YhNTUVRkZG+O2333D8+HHMnj0b6urquH79Onbs2CF3/v/v//4Px44dw7Jly+Dm5oZDhw4hKysLenp62LBhA06dOoXff/8dn332GTQ1NXH8+PF8+0Gi8o/JFyKiMkjyJGD+/PlwdXVFo0aNsGDBArl3tkmWX7ZsGZydnWFra4tffvlF5q4jkUiEo0ePAhCfYHh4eEBXVxdNmjRBnz59AADnzp2Te7fjuHHj4OHhAUtLS6kq9blVvZU1PwVRU1ODv78/bGxs0LlzZ3z22WfCZ7NmzYKtrS3c3d3RqFEjAB/v3CzpeTcyMgIAPH78GGFhYcjOzka/fv1w6dIl3Lx5U7gjLS979+4V7nycM2cOunfvDisrKwwePFjoQPT169c4cuSIzLjt27eHl5cXLC0tMWzYMGGZFLRuiIiIiIqL567547lr2T13NTQ0hI+PDwBxU3Pz5s0rke+ZM2cO7O3t0apVK7Rs2VIYPnnyZDg7O6NFixbC8JycHKnaA7m6deuGkSNHwsrKCn379sXw4cOFuC9fvlys7WXMmDGws7NDy5YtUa9evTznI/cPZ2NjY6xatUporu6nn34Stt/9+/cjNTUVxsbGUv2r6Ovro2bNmkLS6FOmpqZSn5mYmMDU1FSmXOfOnYX9JbdW1ebNm4UaLo6OjjA3N4eVlZUwTl5NucmjyLbZq1cvhIaG4siRIxg0aBAsLCxgZGQk1MTK6/tGjhyJPn36wMrKCqNGjRISUQkJCbhz506eMR0+fFh4PWnSJJiYmMDQ0BCTJk0CIE6G5K57RSxcuFA4ri1atEg4rp05cwbZ2dlQV1fHiRMncOHCBaxZswZNmjSBiYkJGjZsKEwjt8aWJB0dHfzwww9o0KCBMG9FXVZjxoxBu3bt0KhRI6kEcq9evdClSxd89tlnQuII+HjcVHRZfVpzLve9vr4+7t+/L9S66dWrF+zt7aGrq4uOHTsKNagkm8iTNG3aNDRs2BBdunSBpqamkFTNyMjA33//jZcvX8LOzg47d+5EaGgogoODoa7Ov+crMjY7RkRUAk6fPo26detKDbtx4waGDBmi0Pi5d4YA4raMc2lqasLW1hZPnz6VW97Q0FDqZNnAwAANGjSQqpablJQknCiFhoaiXbt2Mt+fk5ODyMhImeYYJE9gjY2NoaamBpFIJNXMgDLmpyDGxsbCSQwAoXoxAFhbW8sMz42vpOd99uzZmDp1Kh4/fgxfX1+hrIuLC3r27In27dvnO1+SbdW2bt1a6jPJ9/LatJWMD/h4MV3QuiEiIiLiuWvx5qcgPHdV3rlrQEBAvjUEiqJnz57Yt28frl27hpCQEKk/bxWhSCfxkn9aF7T+Acjt+0ZyWwTENRJyPX/+vFjbi2RCMC9JSUl48eKF8N2S8aqrq6Nly5aIjIxEVlYWHj58CHt7+wKnWRR5xRoREYG//voLoaGhiImJkVqGhalZoOi2mZCQgOPHj+PatWu4d++eVMIsr+/7dB06ODgI29vz58/zjCk2NlZ43a9fP7llJI+b+VFTU5OKQ0tLC3Z2dnj69CnS0tKQlJQEExMT5OTkICwsDGfPnkVYWBgePXokNV/y5tHCwgI6Ojoyw4uyrBo0aCC8ltzWJNeP5PDc9aOMZSVZAy4oKAhBQUEyZaKiopCZmQltbW1hmJ6ensxvqaenJ86cOYOIiAhs2LABGzZsgJaWFuzt7fG///0P/fv3F2rDUcXE5AsRURmU2/EjIHsyL++uiNzy8k78Py2voaGhUAy5VdclfXoipa6ujuzs7AKnVdj5KYi8OHJJ3i0l+b1Ayc97hw4dcPr0aRw9ehQXL15EaGgoXr9+jWPHjuHYsWP4+uuvMW3atDy/V9H4Pp0vefEpOi0iIiKi4uK5a/547qq8c1fJmhSZmZnCvOvr6xfrD8x58+ahe/fuQpNWBZH8w1iRZJDk/Equf8nh8paTpE8TMpLLTF1dvVjbS7Vq1Qoc79N+oT4lua8UNC/FIS/WOXPmCDUI2rVrh169eqFZs2YYPHhwoaevyLYZEhICLy8vZGRkwMrKCgMGDECzZs2E5vvy8mkCR3JbyO/Yosi6lbde5clNwkomDSTlJmrHjh2LixcvQktLCx07dsTQoUNhbm6eb5OU8vbBoi6rvPaZ/I6ZgHKWVUHbOiDu/+jNmzdStbPkzb+hoSH27t2L8+fP4+zZs7h27RpiY2Nx69Yt3Lp1C8HBwdizZw+qV69e4HdS+cTkCxFRGSR5B2B4eLhw51hWVhZu374tt/zDhw/x5s0bPHr0SOgY882bN4iOjpYqa2BgAENDQyQnJ6NNmzZSd3HExsZCQ0MDderUUWrV18LOT0kpyXl///49Hjx4gJiYGDg5OWHo0KEQiUSIjo6Gt7c3IiMjsWPHDnh7e+d5QmhlZSWcgIaEhEi1h3zlyhXhdW6VfiIiIqKygOeuJYPnrvkLDw8Xamd9++23QlNnRdGwYUOMHTsWq1atEjqe/5Tkn9WS/dhI1pQqSTdu3MCIESOE9+Hh4cLrevXqFWt7UeTP5mrVqgl9x4SHhyM1NVWoeZCTk4OrV68CEC8nyZo+hZFf4jOvWOPi4oS+Yfr164f58+cDUDwZURSrVq1CRkYG9PX1cfDgQWHbyO1HKS/Xr19Hx44dhfeSx5P8mnvLPUYCwIULF2Bubg5AvB0+evQIDRs2zLM5t7ziyK0ZlZ2dLdQEqVatGoyMjHD16lVcvHgRADBx4kR4eXkBkN7m5Pm0A3qg6MuqqIq6rCS3N8l1MWXKFIwbN054HxERAVNTU7lN4smb/5iYGMTExCA9PR1+fn4AxNtmUFAQ1q9fj9jYWJw/fx7dunUrwtxSecBG5YiIyqBOnToJr3/88UdcuHAB9+/fx8yZM+U2cyBZfvLkybh+/Tru3LmDKVOmIC0tTaZ87g/7lStXEBgYiIcPH+L69esYPnw4OnbsiPbt2+d50VEa81OSSmreX716hYEDB2LatGmYPHkyLl++jCdPnuDly5dISUkBIL5jJ7+7wHr06CFcTMyfPx+HDx9GdHQ0du3ahZUrVwIQt32cVyeVRERERKrAc9eSw3PX0jNu3DhYWlrm+bmZmZnwevv27cjKysLjx4+xbNmyUogOOHnyJH755Rc8ePAAhw4dEpIrVatWFRKEJb2v9O3bFwCQmJiIiRMnIiwsDBEREZg+fToiIyMBAH369JHpu0lRkgmu8PBwhZKdqampwusbN27gzp07CA8Pxw8//CAMV3ZTzLnfmZqaiiNHjiAmJgbr1q3DpUuX8v3O7du3IygoCP/++y+2bduGP//8EwBQt25dNG7cOM/vk/xj3sfHB2FhYYiOjsbcuXPRu3dvODo65luL5FO+vr44e/YsHjx4AF9fXzx58gQA0LFjR6irq0st04sXL+LBgwe4evWqVJ9Iii7Toi6roirssqpSpQoAcRI1Ojoajx49wueffy4kjYOCgnDkyBE8fvwYhw4dQt++feHq6qpwsnfevHkYP348vv/+e2zevBmxsbGIj4/Hy5cvhTKKJD+p/OLaJSIqg1q2bIlevXrhwIEDePr0KcaMGSN8ZmtrK9NGac+ePfHnn38iJCQEERERGDp0KADxBVOjRo2EE+Fc48aNw5kzZ/D06VMsW7ZM6oJBXV0d3t7ecttqLa35KUklNe9169bFd999h19//RWPHj3CqFGjZMpMmDAh3zsTrays8OOPP8LPzw+vX7+Gt7e31Of6+voICAhgm7BERERUpvDcteTw3DVvzs7OcvuTKSptbW3MnTsXI0eOlPt5586dERgYiKysLOzbtw/79++HSCTCZ599Bj09PbmJQ2VycHDAunXrsG7dOqnhM2bMEJZxSe8r33zzDUJDQ/H333/j8uXLuHz5stTnTk5O8PHxKfL0JWtJTZ06Fbq6uggLC8t3HGtra1hZWSE6OhrR0dHo06ePTJlXr14VOSZ5OnXqhIiICIhEIkyfPl1umVevXkl16A4AdnZ2WLJkCZYsWSIM09LSgq+vb777mq2tLQYNGoSdO3ciJCQEISEhUp+7urrC3d1d4fhFIpFUbQ5AnFycOnUqAKB58+aoUaMGEhMTcf36dbm1MhRdpkVdVkVV2GXVqFEj/PPPP3j69Cm6dOmCwYMHY+7cuZg1axZGjx6NN2/eCMsll6GhYb7Nr0maMWMGhg8fjqSkJPj7+8Pf31/q8yZNmuDLL78s4txSecCaL0REZdSiRYvw/fffw8LCAtra2mjcuDGWLVuG3r17y5TV0NBAYGAgxowZAzMzM2hra8PR0REbN26U6fwSEN+BtmfPHgwbNgwWFhbQ0tKCsbExXF1dsWnTJvTo0UOl81OSSnLevby8sG7dOri5ucHc3ByampqoXr06XFxcsHz5cowePbrAaQwaNAjBwcHo2rUrzMzMoKWlBXNzc/Tp0wcHDx6Es7NzkeMjIiIiKik8dy0ZPHctXa1bt86z+R9ra2usWbMG9vb2qFKlCkxNTTFs2DD8/vvvefafoUy+vr6YMmUK6tSpA21tbdja2mLVqlVSnYqX9L6ira2NTZs2wc/PD82bN0e1atVQpUoVNGrUCD4+PtiyZUuhmr/6VI8ePdCtWzfUqFEDurq6sLa2LrCmjqamJtavX4/OnTvD2NgYenp6sLGxwcyZM4WaOjdv3pTq5L24xo4di6lTp6JevXqoUqUK6tSpg549eyIgIEAoc/r0aZnxVq9ejVGjRsHU1BRVqlSBs7MzNm/eDDc3twK/c+7cuViwYAEcHBxQtWpV6Orq4vPPP8cPP/yA1atXF6r5wZ07d6JTp07Q09NDtWrV8NVXX2H37t1C7S5DQ0MEBQXB1dUV1atXR7Vq1WBvb4+lS5cKx+jz588r1IdWUZdVcRRmWc2YMQPNmjWDrq4ujIyMUKNGDQDAF198gd27d8PDwwMmJibQ0tJCrVq10Lt3b+zevRs2NjYKxWJjY4O9e/di6NChsLS0hK6uLqpUqQJra2uMGzcO27ZtK5XjB6mOmiivRhSJiIiIiIiIiIiIqFzz9PTEtWvXAECpNcaIKH+s+UJERERERERERERERKRETL4QEREREREREREREREpEZMvRERERERERERERERESsQ+X4iIiIiIiIiIiIiIiJSINV+IiIiIiIiIiIiIiIiUiMkXIiIiIiIiIiIiIiIiJWLyhYiIiIiIiIiIiIiISImYfCEiIiIiIiIiIiIiIlIiJl+IiIiIiIiIiIiIiIiUiMkXIiIiIiIiIiIiIiIiJWLyhYiIiIiIiIiIiIiISImYfCEiIiIiIiIiIiIiIlKi/wdrxOzGI4LGqgAAAABJRU5ErkJggg==;" vertex="1" parent="Z3_2BHZnYLwMcyUPd-yU-3">
          <mxGeometry width="520" height="146" as="geometry" />
        </mxCell>
        <mxCell id="8LufOgQv0FV3Rry3xIU0-3" value="" style="rounded=1;whiteSpace=wrap;html=1;fillColor=none;dashed=1;arcSize=5;" vertex="1" parent="Z3_2BHZnYLwMcyUPd-yU-3">
          <mxGeometry x="270" width="250" height="150" as="geometry" />
        </mxCell>
        <mxCell id="Z3_2BHZnYLwMcyUPd-yU-2" value="" style="rounded=1;whiteSpace=wrap;html=1;fillColor=none;dashed=1;arcSize=5;" vertex="1" parent="Z3_2BHZnYLwMcyUPd-yU-3">
          <mxGeometry width="260" height="150" as="geometry" />
        </mxCell>
        <mxCell id="8LufOgQv0FV3Rry3xIU0-7" value="(B)" style="text;html=1;strokeColor=none;fillColor=none;align=center;verticalAlign=middle;whiteSpace=wrap;rounded=0;fontStyle=1" vertex="1" parent="Z3_2BHZnYLwMcyUPd-yU-3">
          <mxGeometry x="270" y="120" width="26" height="30" as="geometry" />
        </mxCell>
        <mxCell id="8LufOgQv0FV3Rry3xIU0-6" value="(A)" style="text;html=1;strokeColor=none;fillColor=none;align=center;verticalAlign=middle;whiteSpace=wrap;rounded=0;fontStyle=1" vertex="1" parent="Z3_2BHZnYLwMcyUPd-yU-3">
          <mxGeometry y="120" width="24" height="30" as="geometry" />
        </mxCell>
      </root>
    </mxGraphModel>
  </diagram>
</mxfile>
